{
.appVersion = "1271";
DisplayStrings = (
"/da-hira"
);
copyright = MIT;
customParameters = (
{
name = localizedFamilyName;
value = "Japanese;Kugane";
}
);
date = "2019-12-06 16:10:29 +0000";
designer = "Gelehrte Crest";
designerURL = "http://www.gelehrte.com";
familyName = Kugane;
fontMaster = (
{
ascender = 800;
capHeight = 700;
descender = -200;
id = "1305C52C-0BD1-483E-A343-C05F3AFF2931";
xHeight = 500;
}
);
glyphs = (
{
glyphname = "a-hira";
lastChange = "2019-09-26 14:48:38 +0000";
layers = (
{
layerId = "1305C52C-0BD1-483E-A343-C05F3AFF2931";
paths = (
{
closed = 1;
nodes = (
"241 799 OFFCURVE",
"357 750 OFFCURVE",
"383 726 CURVE",
"397 714 OFFCURVE",
"403 676 OFFCURVE",
"396 665 CURVE",
"390 655 OFFCURVE",
"371 670 OFFCURVE",
"362 661 CURVE",
"352 651 OFFCURVE",
"344 623 OFFCURVE",
"343 605 CURVE",
"341 550 OFFCURVE",
"336 323 OFFCURVE",
"336 323 CURVE",
"336 323 OFFCURVE",
"403 372 OFFCURVE",
"418 399 CURVE",
"431 423 OFFCURVE",
"425 487 OFFCURVE",
"425 487 CURVE",
"425 487 OFFCURVE",
"507 439 OFFCURVE",
"524 416 CURVE",
"537 397 OFFCURVE",
"530 357 OFFCURVE",
"521 345 CURVE",
"513 333 OFFCURVE",
"496 336 OFFCURVE",
"476 333 CURVE",
"443 329 OFFCURVE",
"338 272 OFFCURVE",
"338 272 CURVE",
"338 272 OFFCURVE",
"336 56 OFFCURVE",
"337 2 CURVE",
"337 -22 OFFCURVE",
"346 -51 OFFCURVE",
"340 -59 CURVE",
"333 -67 OFFCURVE",
"309 -58 OFFCURVE",
"298 -45 CURVE",
"288 -33 OFFCURVE",
"279 11 OFFCURVE",
"283 21 CURVE",
"286 30 OFFCURVE",
"293 33 OFFCURVE",
"294 42 CURVE",
"297 82 OFFCURVE",
"300 258 OFFCURVE",
"300 258 CURVE",
"300 258 OFFCURVE",
"217 224 OFFCURVE",
"174 210 CURVE",
"129 196 OFFCURVE",
"30 173 OFFCURVE",
"30 173 CURVE",
"30 173 OFFCURVE",
"141 220 OFFCURVE",
"186 241 CURVE",
"225 260 OFFCURVE",
"300 305 OFFCURVE",
"300 305 CURVE",
"300 305 OFFCURVE",
"298 583 OFFCURVE",
"296 659 CURVE",
"296 698 OFFCURVE",
"248 738 OFFCURVE",
"237 760 CURVE",
"234 767 OFFCURVE",
"241 799 OFFCURVE",
"241 799 CURVE"
);
}
);
width = 561;
}
);
unicode = 3042;
},
{
glyphname = "i-hira";
lastChange = "2019-09-26 14:47:49 +0000";
layers = (
{
layerId = "1305C52C-0BD1-483E-A343-C05F3AFF2931";
paths = (
{
closed = 1;
nodes = (
"265 614 OFFCURVE",
"368 583 OFFCURVE",
"390 555 CURVE",
"403 538 OFFCURVE",
"404 510 OFFCURVE",
"387 491 CURVE",
"380 482 OFFCURVE",
"354 487 OFFCURVE",
"338 491 CURVE",
"328 493 OFFCURVE",
"324 497 OFFCURVE",
"311 498 CURVE",
"297 500 OFFCURVE",
"265 482 OFFCURVE",
"249 450 CURVE",
"231 416 OFFCURVE",
"221 335 OFFCURVE",
"234 286 CURVE",
"247 236 OFFCURVE",
"282 179 OFFCURVE",
"326 145 CURVE",
"406 82 OFFCURVE",
"528 84 OFFCURVE",
"532 66 CURVE",
"538 34 OFFCURVE",
"379 60 OFFCURVE",
"293 131 CURVE",
"242 174 OFFCURVE",
"200 247 OFFCURVE",
"186 297 CURVE",
"174 339 OFFCURVE",
"179 390 OFFCURVE",
"187 432 CURVE",
"196 478 OFFCURVE",
"267 577 OFFCURVE",
"267 577 CURVE",
"265 614 LINE"
);
},
{
closed = 1;
nodes = (
"30 787 OFFCURVE",
"95 789 OFFCURVE",
"138 769 CURVE",
"159 759 OFFCURVE",
"201 730 OFFCURVE",
"210 716 CURVE",
"217 706 OFFCURVE",
"210 688 OFFCURVE",
"204 681 CURVE",
"197 673 OFFCURVE",
"177 678 OFFCURVE",
"170 673 CURVE",
"162 668 OFFCURVE",
"155 654 OFFCURVE",
"154 645 CURVE",
"149 537 OFFCURVE",
"146 165 OFFCURVE",
"145 54 CURVE",
"144 32 OFFCURVE",
"175 8 OFFCURVE",
"174 -9 CURVE",
"173 -34 OFFCURVE",
"167 -52 OFFCURVE",
"148 -50 CURVE",
"122 -47 OFFCURVE",
"93 -19 OFFCURVE",
"95 14 CURVE",
"96 39 OFFCURVE",
"112 39 OFFCURVE",
"112 59 CURVE",
"114 159 OFFCURVE",
"115 539 OFFCURVE",
"116 645 CURVE",
"117 664 OFFCURVE",
"109 683 OFFCURVE",
"100 699 CURVE",
"86 723 OFFCURVE",
"30 787 OFFCURVE",
"30 787 CURVE"
);
}
);
width = 562;
}
);
unicode = 3044;
},
{
glyphname = "u-hira";
lastChange = "2019-09-26 14:52:23 +0000";
layers = (
{
layerId = "1305C52C-0BD1-483E-A343-C05F3AFF2931";
paths = (
{
closed = 1;
nodes = (
"179 798 OFFCURVE",
"208 786 OFFCURVE",
"224 776 CURVE",
"246 761 OFFCURVE",
"293 735 OFFCURVE",
"303 711 CURVE",
"308 700 OFFCURVE",
"304 677 OFFCURVE",
"299 670 CURVE",
"293 662 OFFCURVE",
"278 659 OFFCURVE",
"269 658 CURVE",
"260 658 OFFCURVE",
"250 664 OFFCURVE",
"244 664 CURVE",
"238 663 OFFCURVE",
"228 651 OFFCURVE",
"228 643 CURVE",
"228 591 OFFCURVE",
"223 359 OFFCURVE",
"223 359 CURVE",
"223 359 OFFCURVE",
"504 443 OFFCURVE",
"506 435 CURVE",
"508 420 OFFCURVE",
"223 325 OFFCURVE",
"223 325 CURVE",
"223 325 OFFCURVE",
"225 148 OFFCURVE",
"224 93 CURVE",
"224 75 OFFCURVE",
"251 43 OFFCURVE",
"251 25 CURVE",
"252 7 OFFCURVE",
"249 -5 OFFCURVE",
"247 -17 CURVE",
"245 -30 OFFCURVE",
"223 -39 OFFCURVE",
"210 -39 CURVE",
"198 -39 OFFCURVE",
"179 -1 OFFCURVE",
"179 18 CURVE",
"179 76 OFFCURVE",
"188 312 OFFCURVE",
"188 312 CURVE",
"188 312 OFFCURVE",
"159 302 OFFCURVE",
"149 291 CURVE",
"138 281 OFFCURVE",
"137 261 OFFCURVE",
"125 253 CURVE",
"114 246 OFFCURVE",
"84 243 OFFCURVE",
"71 251 CURVE",
"55 261 OFFCURVE",
"33 292 OFFCURVE",
"30 314 CURVE",
"27 337 OFFCURVE",
"38 376 OFFCURVE",
"51 382 CURVE",
"66 388 OFFCURVE",
"82 389 OFFCURVE",
"89 382 CURVE",
"97 375 OFFCURVE",
"94 361 OFFCURVE",
"102 354 CURVE",
"114 343 OFFCURVE",
"188 353 OFFCURVE",
"188 353 CURVE",
"188 353 OFFCURVE",
"189 573 OFFCURVE",
"188 635 CURVE",
"188 663 OFFCURVE",
"184 695 OFFCURVE",
"178 719 CURVE",
"173 741 OFFCURVE",
"154 768 OFFCURVE",
"152 781 CURVE",
"151 789 OFFCURVE",
"161 799 OFFCURVE",
"168 799 CURVE"
);
}
);
width = 536;
}
);
unicode = 3046;
},
{
glyphname = "e-hira";
lastChange = "2019-09-26 14:56:39 +0000";
layers = (
{
layerId = "1305C52C-0BD1-483E-A343-C05F3AFF2931";
paths = (
{
closed = 1;
nodes = (
"54 139 OFFCURVE",
"76 163 OFFCURVE",
"129 203 CURVE SMOOTH",
"174 237 OFFCURVE",
"250 258 OFFCURVE",
"250 258 CURVE",
"248 553 LINE",
"248 553 OFFCURVE",
"162 595 OFFCURVE",
"143 612 CURVE",
"133 620 OFFCURVE",
"128 640 OFFCURVE",
"131 652 CURVE",
"144 695 OFFCURVE",
"194 706 OFFCURVE",
"213 730 CURVE SMOOTH",
"227 748 OFFCURVE",
"178 787 OFFCURVE",
"187 795 CURVE",
"195 803 OFFCURVE",
"249 793 OFFCURVE",
"271 784 CURVE SMOOTH",
"294 775 OFFCURVE",
"318 756 OFFCURVE",
"328 740 CURVE SMOOTH",
"335 729 OFFCURVE",
"339 701 OFFCURVE",
"333 690 CURVE SMOOTH",
"327 679 OFFCURVE",
"303 669 OFFCURVE",
"298 657 CURVE",
"291 636 OFFCURVE",
"286 560 OFFCURVE",
"286 560 CURVE SMOOTH",
"286 560 OFFCURVE",
"449 468 OFFCURVE",
"469 384 CURVE SMOOTH",
"476 355 OFFCURVE",
"475 312 OFFCURVE",
"466 285 CURVE SMOOTH",
"457 259 OFFCURVE",
"436 241 OFFCURVE",
"412 230 CURVE SMOOTH",
"385 218 OFFCURVE",
"367 226 OFFCURVE",
"340 225 CURVE SMOOTH",
"309 224 OFFCURVE",
"281 219 OFFCURVE",
"281 219 CURVE SMOOTH",
"281 219 OFFCURVE",
"280 66 OFFCURVE",
"281 22 CURVE",
"282 6 OFFCURVE",
"301 1 OFFCURVE",
"302 -22 CURVE SMOOTH",
"303 -39 OFFCURVE",
"303 -48 OFFCURVE",
"289 -50 CURVE",
"274 -51 OFFCURVE",
"240 -17 OFFCURVE",
"235 -1 CURVE",
"226 36 OFFCURVE",
"250 52 OFFCURVE",
"250 66 CURVE SMOOTH",
"250 94 OFFCURVE",
"249 213 OFFCURVE",
"250 213 CURVE SMOOTH",
"250 213 OFFCURVE",
"179 193 OFFCURVE",
"145 176 CURVE SMOOTH",
"99 153 OFFCURVE",
"71 125 OFFCURVE",
"56 84 CURVE SMOOTH",
"47 59 OFFCURVE",
"50 14 OFFCURVE",
"41 14 CURVE",
"30 13 OFFCURVE",
"25 70 OFFCURVE",
"36 96 CURVE SMOOTH"
);
},
{
closed = 1;
nodes = (
"161 629 OFFCURVE",
"245 585 OFFCURVE",
"245 585 CURVE SMOOTH",
"245 585 OFFCURVE",
"248 682 OFFCURVE",
"229 687 CURVE SMOOTH",
"213 691 OFFCURVE",
"167 678 OFFCURVE",
"163 646 CURVE SMOOTH"
);
},
{
closed = 1;
nodes = (
"281 266 OFFCURVE",
"380 287 OFFCURVE",
"394 321 CURVE SMOOTH",
"406 350 OFFCURVE",
"409 386 OFFCURVE",
"397 416 CURVE SMOOTH",
"371 480 OFFCURVE",
"286 530 OFFCURVE",
"286 530 CURVE",
"282 266 LINE"
);
}
);
width = 504;
}
);
unicode = 3048;
},
{
glyphname = "o-hira";
lastChange = "2019-09-26 14:59:33 +0000";
layers = (
{
layerId = "1305C52C-0BD1-483E-A343-C05F3AFF2931";
paths = (
{
closed = 1;
nodes = (
"220 799 OFFCURVE",
"289 739 OFFCURVE",
"293 720 CURVE",
"296 708 OFFCURVE",
"298 689 OFFCURVE",
"293 678 CURVE",
"287 668 OFFCURVE",
"257 672 OFFCURVE",
"257 659 CURVE",
"256 642 OFFCURVE",
"256 577 OFFCURVE",
"256 577 CURVE",
"256 577 OFFCURVE",
"348 541 OFFCURVE",
"363 461 CURVE",
"373 407 OFFCURVE",
"376 321 OFFCURVE",
"383 267 CURVE",
"389 223 OFFCURVE",
"429 180 OFFCURVE",
"475 182 CURVE",
"585 187 OFFCURVE",
"623 306 OFFCURVE",
"643 304 CURVE",
"656 303 OFFCURVE",
"642 254 OFFCURVE",
"628 230 CURVE",
"603 186 OFFCURVE",
"538 127 OFFCURVE",
"460 127 CURVE",
"385 126 OFFCURVE",
"316 175 OFFCURVE",
"312 238 CURVE",
"307 300 OFFCURVE",
"314 416 OFFCURVE",
"312 468 CURVE",
"311 503 OFFCURVE",
"256 544 OFFCURVE",
"256 544 CURVE",
"256 544 OFFCURVE",
"253 157 OFFCURVE",
"259 59 CURVE",
"260 43 OFFCURVE",
"274 22 OFFCURVE",
"272 0 CURVE",
"271 -22 OFFCURVE",
"260 -35 OFFCURVE",
"248 -38 CURVE",
"237 -40 OFFCURVE",
"217 -33 OFFCURVE",
"209 -18 CURVE",
"201 -4 OFFCURVE",
"202 29 OFFCURVE",
"203 44 CURVE",
"204 52 OFFCURVE",
"218 68 OFFCURVE",
"218 85 CURVE",
"219 166 OFFCURVE",
"222 547 OFFCURVE",
"222 547 CURVE",
"222 547 OFFCURVE",
"187 553 OFFCURVE",
"147 514 CURVE",
"129 497 OFFCURVE",
"115 466 OFFCURVE",
"116 448 CURVE",
"117 434 OFFCURVE",
"129 425 OFFCURVE",
"123 407 CURVE",
"120 396 OFFCURVE",
"81 391 OFFCURVE",
"68 397 CURVE",
"52 404 OFFCURVE",
"31 430 OFFCURVE",
"30 454 CURVE",
"29 491 OFFCURVE",
"56 518 OFFCURVE",
"71 523 CURVE",
"86 527 OFFCURVE",
"92 521 OFFCURVE",
"101 526 CURVE",
"112 531 OFFCURVE",
"132 554 OFFCURVE",
"156 564 CURVE",
"187 578 OFFCURVE",
"223 577 OFFCURVE",
"223 577 CURVE",
"223 577 OFFCURVE",
"224 665 OFFCURVE",
"224 686 CURVE",
"223 699 OFFCURVE",
"206 712 OFFCURVE",
"202 725 CURVE",
"197 743 OFFCURVE",
"187 791 OFFCURVE",
"203 794 CURVE"
);
}
);
width = 678;
}
);
unicode = 304A;
},
{
glyphname = "ka-hira";
lastChange = "2019-09-26 15:32:24 +0000";
layers = (
{
layerId = "1305C52C-0BD1-483E-A343-C05F3AFF2931";
paths = (
{
closed = 1;
nodes = (
"430 797 OFFCURVE",
"455 792 OFFCURVE",
"469 784 CURVE",
"491 772 OFFCURVE",
"537 736 OFFCURVE",
"542 715 CURVE",
"545 698 OFFCURVE",
"542 680 OFFCURVE",
"532 671 CURVE",
"524 664 OFFCURVE",
"487 672 OFFCURVE",
"468 661 CURVE",
"437 642 OFFCURVE",
"343 564 OFFCURVE",
"343 564 CURVE",
"343 564 OFFCURVE",
"402 527 OFFCURVE",
"429 506 CURVE",
"456 485 OFFCURVE",
"493 447 OFFCURVE",
"496 437 CURVE",
"500 424 OFFCURVE",
"497 411 OFFCURVE",
"489 403 CURVE",
"481 395 OFFCURVE",
"459 400 OFFCURVE",
"448 402 CURVE",
"438 404 OFFCURVE",
"427 414 OFFCURVE",
"415 416 CURVE",
"398 419 OFFCURVE",
"362 423 OFFCURVE",
"338 416 CURVE",
"314 409 OFFCURVE",
"278 400 OFFCURVE",
"277 366 CURVE",
"275 300 OFFCURVE",
"391 289 OFFCURVE",
"435 259 CURVE",
"457 244 OFFCURVE",
"494 215 OFFCURVE",
"494 183 CURVE",
"494 100 OFFCURVE",
"451 69 OFFCURVE",
"412 37 CURVE",
"382 12 OFFCURVE",
"341 -6 OFFCURVE",
"306 -12 CURVE",
"271 -18 OFFCURVE",
"201 -8 OFFCURVE",
"201 4 CURVE",
"201 16 OFFCURVE",
"272 6 OFFCURVE",
"297 17 CURVE",
"342 36 OFFCURVE",
"373 60 OFFCURVE",
"405 103 CURVE",
"418 121 OFFCURVE",
"422 150 OFFCURVE",
"414 174 CURVE",
"397 222 OFFCURVE",
"279 265 OFFCURVE",
"248 318 CURVE",
"235 341 OFFCURVE",
"240 378 OFFCURVE",
"248 398 CURVE",
"253 412 OFFCURVE",
"282 437 OFFCURVE",
"304 451 CURVE",
"325 465 OFFCURVE",
"386 483 OFFCURVE",
"386 483 CURVE",
"313 541 LINE",
"313 541 OFFCURVE",
"233 489 OFFCURVE",
"187 464 CURVE",
"140 439 OFFCURVE",
"31 393 OFFCURVE",
"30 408 CURVE",
"28 424 OFFCURVE",
"178 480 OFFCURVE",
"269 560 CURVE",
"335 618 OFFCURVE",
"389 680 OFFCURVE",
"415 719 CURVE",
"427 737 OFFCURVE",
"413 776 OFFCURVE",
"421 787 CURVE"
);
},
{
closed = 1;
nodes = (
"227 225 OFFCURVE",
"250 206 OFFCURVE",
"266 206 CURVE",
"282 205 OFFCURVE",
"309 228 OFFCURVE",
"316 219 CURVE",
"322 214 OFFCURVE",
"307 198 OFFCURVE",
"300 183 CURVE",
"294 170 OFFCURVE",
"308 139 OFFCURVE",
"296 132 CURVE",
"285 125 OFFCURVE",
"264 116 OFFCURVE",
"236 146 CURVE",
"214 170 OFFCURVE",
"207 208 OFFCURVE",
"216 216 CURVE"
);
}
);
width = 573;
}
);
unicode = 304B;
},
{
glyphname = "ga-hira";
lastChange = "2019-11-28 17:28:06 +0000";
layers = (
{
layerId = "1305C52C-0BD1-483E-A343-C05F3AFF2931";
paths = (
{
closed = 1;
nodes = (
"430 794 OFFCURVE",
"484 768 OFFCURVE",
"506 752 CURVE",
"527 736 OFFCURVE",
"547 716 OFFCURVE",
"548 684 CURVE",
"548 651 OFFCURVE",
"481 658 OFFCURVE",
"455 641 CURVE",
"413 614 OFFCURVE",
"329 553 OFFCURVE",
"277 514 CURVE",
"151 421 OFFCURVE",
"30 402 OFFCURVE",
"30 402 CURVE",
"30 402 OFFCURVE",
"191 486 OFFCURVE",
"258 541 CURVE",
"376 638 OFFCURVE",
"424 718 OFFCURVE",
"423 736 CURVE",
"422 751 OFFCURVE",
"404 773 OFFCURVE",
"415 782 CURVE"
);
},
{
closed = 1;
nodes = (
"469 597 OFFCURVE",
"488 556 OFFCURVE",
"508 557 CURVE",
"528 558 OFFCURVE",
"560 592 OFFCURVE",
"584 592 CURVE",
"609 591 OFFCURVE",
"646 561 OFFCURVE",
"646 530 CURVE",
"647 511 OFFCURVE",
"644 480 OFFCURVE",
"598 478 CURVE",
"585 477 OFFCURVE",
"559 481 OFFCURVE",
"559 493 CURVE",
"559 504 OFFCURVE",
"595 514 OFFCURVE",
"596 540 CURVE",
"596 548 OFFCURVE",
"586 559 OFFCURVE",
"578 559 CURVE",
"534 557 OFFCURVE",
"525 503 OFFCURVE",
"503 502 CURVE",
"478 502 OFFCURVE",
"449 584 OFFCURVE",
"457 589 CURVE"
);
},
{
closed = 1;
nodes = (
"316 569 OFFCURVE",
"371 543 OFFCURVE",
"432 492 CURVE",
"459 469 OFFCURVE",
"505 438 OFFCURVE",
"502 405 CURVE",
"500 390 OFFCURVE",
"475 382 OFFCURVE",
"460 383 CURVE",
"445 383 OFFCURVE",
"428 403 OFFCURVE",
"411 406 CURVE",
"390 410 OFFCURVE",
"353 415 OFFCURVE",
"330 406 CURVE",
"307 398 OFFCURVE",
"274 374 OFFCURVE",
"273 355 CURVE",
"272 276 OFFCURVE",
"501 267 OFFCURVE",
"496 168 CURVE",
"490 55 OFFCURVE",
"374 -7 OFFCURVE",
"311 -23 CURVE",
"239 -41 OFFCURVE",
"191 0 OFFCURVE",
"191 0 CURVE",
"191 0 OFFCURVE",
"256 -10 OFFCURVE",
"286 1 CURVE",
"348 24 OFFCURVE",
"417 80 OFFCURVE",
"419 136 CURVE",
"422 227 OFFCURVE",
"239 256 OFFCURVE",
"240 352 CURVE",
"241 432 OFFCURVE",
"387 468 OFFCURVE",
"387 468 CURVE",
"387 468 OFFCURVE",
"390 477 OFFCURVE",
"358 503 CURVE",
"332 523 OFFCURVE",
"299 551 OFFCURVE",
"303 555 CURVE"
);
},
{
closed = 1;
nodes = (
"222 219 OFFCURVE",
"251 190 OFFCURVE",
"268 191 CURVE",
"286 192 OFFCURVE",
"312 223 OFFCURVE",
"318 218 CURVE",
"325 213 OFFCURVE",
"303 187 OFFCURVE",
"301 170 CURVE",
"298 153 OFFCURVE",
"307 124 OFFCURVE",
"295 118 CURVE",
"284 112 OFFCURVE",
"246 123 OFFCURVE",
"232 139 CURVE",
"218 155 OFFCURVE",
"205 205 OFFCURVE",
"213 211 CURVE"
);
}
);
width = 676;
}
);
unicode = 304C;
},
{
glyphname = "ki-hira";
lastChange = "2019-09-26 15:41:28 +0000";
layers = (
{
layerId = "1305C52C-0BD1-483E-A343-C05F3AFF2931";
paths = (
{
closed = 1;
nodes = (
"301 798 OFFCURVE",
"343 785 OFFCURVE",
"358 780 CURVE",
"370 776 OFFCURVE",
"388 776 OFFCURVE",
"397 768 CURVE",
"415 753 OFFCURVE",
"461 718 OFFCURVE",
"466 687 CURVE",
"468 666 OFFCURVE",
"463 642 OFFCURVE",
"448 638 CURVE",
"429 633 OFFCURVE",
"394 660 OFFCURVE",
"369 665 CURVE",
"345 670 OFFCURVE",
"305 671 OFFCURVE",
"285 662 CURVE",
"265 653 OFFCURVE",
"246 627 OFFCURVE",
"247 612 CURVE",
"249 586 OFFCURVE",
"274 570 OFFCURVE",
"297 568 CURVE",
"324 563 OFFCURVE",
"374 563 OFFCURVE",
"404 553 CURVE",
"431 542 OFFCURVE",
"460 521 OFFCURVE",
"469 495 CURVE",
"494 421 OFFCURVE",
"450 353 OFFCURVE",
"424 308 CURVE",
"406 277 OFFCURVE",
"353 225 OFFCURVE",
"353 225 CURVE",
"353 225 OFFCURVE",
"412 178 OFFCURVE",
"474 136 CURVE",
"501 118 OFFCURVE",
"547 77 OFFCURVE",
"655 61 CURVE",
"711 53 OFFCURVE",
"778 58 OFFCURVE",
"778 55 CURVE",
"779 41 OFFCURVE",
"631 5 OFFCURVE",
"581 2 CURVE",
"542 -1 OFFCURVE",
"505 7 OFFCURVE",
"474 27 CURVE",
"406 73 OFFCURVE",
"314 199 OFFCURVE",
"314 199 CURVE",
"314 199 OFFCURVE",
"221 141 OFFCURVE",
"172 129 CURVE",
"122 118 OFFCURVE",
"27 109 OFFCURVE",
"30 123 CURVE",
"34 137 OFFCURVE",
"115 111 OFFCURVE",
"262 234 CURVE",
"285 254 OFFCURVE",
"356 327 OFFCURVE",
"380 370 CURVE",
"393 396 OFFCURVE",
"398 427 OFFCURVE",
"389 451 CURVE",
"373 503 OFFCURVE",
"270 524 OFFCURVE",
"239 549 CURVE",
"204 576 OFFCURVE",
"213 619 OFFCURVE",
"219 645 CURVE",
"230 697 OFFCURVE",
"332 745 OFFCURVE",
"332 748 CURVE",
"333 758 OFFCURVE",
"293 788 OFFCURVE",
"297 794 CURVE"
);
},
{
closed = 1;
nodes = (
"178 441 OFFCURVE",
"200 436 OFFCURVE",
"212 430 CURVE",
"224 422 OFFCURVE",
"229 401 OFFCURVE",
"244 399 CURVE",
"265 395 OFFCURVE",
"336 455 OFFCURVE",
"346 443 CURVE",
"355 432 OFFCURVE",
"264 326 OFFCURVE",
"226 315 CURVE",
"205 310 OFFCURVE",
"189 338 OFFCURVE",
"178 357 CURVE",
"166 379 OFFCURVE",
"166 431 OFFCURVE",
"168 433 CURVE"
);
}
);
width = 808;
}
);
unicode = 304D;
},
{
glyphname = "gi-hira";
lastChange = "2019-11-28 17:28:47 +0000";
layers = (
{
layerId = "1305C52C-0BD1-483E-A343-C05F3AFF2931";
paths = (
{
closed = 1;
nodes = (
"187 425 OFFCURVE",
"213 374 OFFCURVE",
"241 375 CURVE",
"267 375 OFFCURVE",
"336 427 OFFCURVE",
"336 427 CURVE",
"336 427 OFFCURVE",
"315 389 OFFCURVE",
"285 359 CURVE",
"255 330 OFFCURVE",
"231 300 OFFCURVE",
"223 298 CURVE",
"186 290 OFFCURVE",
"153 402 OFFCURVE",
"168 412 CURVE"
);
},
{
closed = 1;
nodes = (
"297 235 OFFCURVE",
"430 128 OFFCURVE",
"500 95 CURVE",
"621 37 OFFCURVE",
"733 50 OFFCURVE",
"733 50 CURVE",
"733 50 OFFCURVE",
"689 30 OFFCURVE",
"668 24 CURVE",
"649 19 OFFCURVE",
"627 16 OFFCURVE",
"607 12 CURVE",
"583 8 OFFCURVE",
"546 1 OFFCURVE",
"520 3 CURVE",
"381 13 OFFCURVE",
"297 235 OFFCURVE",
"297 235 CURVE"
);
},
{
closed = 1;
nodes = (
"283 755 OFFCURVE",
"326 737 OFFCURVE",
"347 727 CURVE",
"366 718 OFFCURVE",
"361 732 OFFCURVE",
"404 700 CURVE",
"418 689 OFFCURVE",
"445 648 OFFCURVE",
"444 627 CURVE",
"443 614 OFFCURVE",
"430 606 OFFCURVE",
"417 606 CURVE",
"396 606 OFFCURVE",
"366 640 OFFCURVE",
"318 635 CURVE",
"287 633 OFFCURVE",
"239 605 OFFCURVE",
"240 577 CURVE",
"244 486 OFFCURVE",
"373 557 OFFCURVE",
"419 500 CURVE",
"458 451 OFFCURVE",
"450 366 OFFCURVE",
"407 300 CURVE",
"269 88 OFFCURVE",
"30 110 OFFCURVE",
"30 110 CURVE",
"30 110 OFFCURVE",
"174 159 OFFCURVE",
"236 202 CURVE",
"297 246 OFFCURVE",
"379 339 OFFCURVE",
"381 399 CURVE",
"385 512 OFFCURVE",
"204 470 OFFCURVE",
"209 578 CURVE",
"213 654 OFFCURVE",
"327 702 OFFCURVE",
"327 702 CURVE",
"283 755 LINE"
);
},
{
closed = 1;
nodes = (
"473 583 OFFCURVE",
"495 547 OFFCURVE",
"515 547 CURVE",
"537 547 OFFCURVE",
"569 581 OFFCURVE",
"594 581 CURVE",
"621 580 OFFCURVE",
"654 547 OFFCURVE",
"654 511 CURVE",
"655 488 OFFCURVE",
"632 466 OFFCURVE",
"609 465 CURVE",
"594 464 OFFCURVE",
"565 470 OFFCURVE",
"565 479 CURVE",
"565 491 OFFCURVE",
"608 510 OFFCURVE",
"608 521 CURVE",
"608 536 OFFCURVE",
"594 546 OFFCURVE",
"582 546 CURVE",
"553 546 OFFCURVE",
"523 489 OFFCURVE",
"508 490 CURVE",
"479 491 OFFCURVE",
"457 574 OFFCURVE",
"463 578 CURVE"
);
}
);
width = 763;
}
);
unicode = 304E;
},
{
glyphname = "ku-hira";
lastChange = "2019-09-26 15:41:07 +0000";
layers = (
{
layerId = "1305C52C-0BD1-483E-A343-C05F3AFF2931";
paths = (
{
closed = 1;
nodes = (
"395 799 OFFCURVE",
"481 754 OFFCURVE",
"509 732 CURVE",
"560 693 OFFCURVE",
"545 614 OFFCURVE",
"534 611 CURVE",
"507 607 OFFCURVE",
"442 655 OFFCURVE",
"398 654 CURVE",
"356 653 OFFCURVE",
"304 639 OFFCURVE",
"303 604 CURVE",
"302 579 OFFCURVE",
"372 564 OFFCURVE",
"425 564 CURVE",
"471 564 OFFCURVE",
"540 522 OFFCURVE",
"550 481 CURVE",
"557 455 OFFCURVE",
"568 403 OFFCURVE",
"507 342 CURVE",
"479 312 OFFCURVE",
"281 151 OFFCURVE",
"281 151 CURVE",
"281 151 OFFCURVE",
"578 158 OFFCURVE",
"642 159 CURVE",
"660 159 OFFCURVE",
"685 189 OFFCURVE",
"705 188 CURVE",
"732 187 OFFCURVE",
"782 151 OFFCURVE",
"801 132 CURVE",
"814 118 OFFCURVE",
"812 84 OFFCURVE",
"799 71 CURVE",
"788 57 OFFCURVE",
"744 56 OFFCURVE",
"721 63 CURVE",
"697 71 OFFCURVE",
"679 100 OFFCURVE",
"647 112 CURVE",
"621 124 OFFCURVE",
"368 117 OFFCURVE",
"274 110 CURVE",
"190 104 OFFCURVE",
"125 12 OFFCURVE",
"94 10 CURVE",
"66 8 OFFCURVE",
"34 43 OFFCURVE",
"30 64 CURVE",
"27 81 OFFCURVE",
"51 108 OFFCURVE",
"67 111 CURVE",
"86 116 OFFCURVE",
"111 100 OFFCURVE",
"130 111 CURVE",
"176 139 OFFCURVE",
"273 200 OFFCURVE",
"329 249 CURVE",
"383 296 OFFCURVE",
"448 368 OFFCURVE",
"467 407 CURVE",
"489 453 OFFCURVE",
"432 512 OFFCURVE",
"396 519 CURVE",
"371 525 OFFCURVE",
"351 523 OFFCURVE",
"329 531 CURVE",
"307 539 OFFCURVE",
"264 554 OFFCURVE",
"264 608 CURVE",
"263 689 OFFCURVE",
"397 717 OFFCURVE",
"404 725 CURVE",
"412 734 OFFCURVE",
"382 747 OFFCURVE",
"378 758 CURVE",
"373 766 OFFCURVE",
"368 784 OFFCURVE",
"379 789 CURVE"
);
},
{
closed = 1;
nodes = (
"174 448 OFFCURVE",
"194 449 OFFCURVE",
"202 445 CURVE",
"216 438 OFFCURVE",
"230 397 OFFCURVE",
"259 401 CURVE",
"288 405 OFFCURVE",
"376 474 OFFCURVE",
"383 469 CURVE",
"390 463 OFFCURVE",
"314 401 OFFCURVE",
"302 379 CURVE",
"291 358 OFFCURVE",
"302 322 OFFCURVE",
"297 307 CURVE",
"294 296 OFFCURVE",
"282 286 OFFCURVE",
"271 286 CURVE",
"234 285 OFFCURVE",
"176 347 OFFCURVE",
"175 362 CURVE",
"174 388 OFFCURVE",
"174 448 OFFCURVE",
"174 448 CURVE"
);
}
);
width = 840;
}
);
unicode = 304F;
},
{
glyphname = "gu-hira";
lastChange = "2019-11-28 17:29:28 +0000";
layers = (
{
layerId = "1305C52C-0BD1-483E-A343-C05F3AFF2931";
paths = (
{
closed = 1;
nodes = (
"513 510 OFFCURVE",
"533 474 OFFCURVE",
"554 474 CURVE",
"590 474 OFFCURVE",
"609 510 OFFCURVE",
"628 510 CURVE",
"653 509 OFFCURVE",
"691 475 OFFCURVE",
"693 436 CURVE",
"693 421 OFFCURVE",
"683 406 OFFCURVE",
"670 403 CURVE",
"646 396 OFFCURVE",
"605 399 OFFCURVE",
"605 409 CURVE",
"605 419 OFFCURVE",
"644 428 OFFCURVE",
"645 456 CURVE",
"645 466 OFFCURVE",
"631 475 OFFCURVE",
"620 476 CURVE",
"590 476 OFFCURVE",
"568 425 OFFCURVE",
"546 425 CURVE",
"511 425 OFFCURVE",
"498 499 OFFCURVE",
"505 504 CURVE"
);
},
{
closed = 1;
nodes = (
"328 673 OFFCURVE",
"410 649 OFFCURVE",
"447 619 CURVE",
"464 605 OFFCURVE",
"475 578 OFFCURVE",
"475 562 CURVE",
"475 543 OFFCURVE",
"471 519 OFFCURVE",
"455 519 CURVE",
"434 519 OFFCURVE",
"409 561 OFFCURVE",
"351 563 CURVE",
"319 564 OFFCURVE",
"258 547 OFFCURVE",
"261 513 CURVE",
"265 453 OFFCURVE",
"487 513 OFFCURVE",
"481 367 CURVE",
"479 286 OFFCURVE",
"235 115 OFFCURVE",
"235 115 CURVE",
"235 115 OFFCURVE",
"354 128 OFFCURVE",
"410 128 CURVE",
"464 129 OFFCURVE",
"519 117 OFFCURVE",
"554 119 CURVE",
"571 121 OFFCURVE",
"593 147 OFFCURVE",
"616 146 CURVE",
"646 144 OFFCURVE",
"706 101 OFFCURVE",
"705 76 CURVE",
"705 57 OFFCURVE",
"679 39 OFFCURVE",
"659 40 CURVE",
"636 41 OFFCURVE",
"600 75 OFFCURVE",
"568 82 CURVE",
"526 92 OFFCURVE",
"463 100 OFFCURVE",
"408 100 CURVE",
"272 99 OFFCURVE",
"217 78 OFFCURVE",
"167 55 CURVE",
"136 40 OFFCURVE",
"107 1 OFFCURVE",
"83 1 CURVE",
"63 1 OFFCURVE",
"31 28 OFFCURVE",
"30 43 CURVE",
"30 59 OFFCURVE",
"50 88 OFFCURVE",
"63 89 CURVE",
"79 90 OFFCURVE",
"93 76 OFFCURVE",
"106 80 CURVE",
"141 91 OFFCURVE",
"227 158 OFFCURVE",
"282 203 CURVE",
"337 247 OFFCURVE",
"413 314 OFFCURVE",
"413 362 CURVE",
"415 490 OFFCURVE",
"234 418 OFFCURVE",
"233 512 CURVE",
"231 593 OFFCURVE",
"360 615 OFFCURVE",
"360 615 CURVE",
"360 615 OFFCURVE",
"343 631 OFFCURVE",
"338 641 CURVE",
"332 650 OFFCURVE",
"328 673 OFFCURVE",
"328 673 CURVE"
);
},
{
closed = 1;
nodes = (
"174 394 OFFCURVE",
"200 321 OFFCURVE",
"225 333 CURVE",
"254 348 OFFCURVE",
"331 395 OFFCURVE",
"331 395 CURVE",
"331 395 OFFCURVE",
"287 348 OFFCURVE",
"268 327 CURVE",
"250 308 OFFCURVE",
"265 256 OFFCURVE",
"250 246 CURVE",
"234 235 OFFCURVE",
"186 261 OFFCURVE",
"170 282 CURVE",
"154 304 OFFCURVE",
"142 368 OFFCURVE",
"153 377 CURVE"
);
}
);
width = 735;
}
);
unicode = 3050;
},
{
glyphname = "ke-hira";
lastChange = "2019-09-26 15:43:41 +0000";
layers = (
{
layerId = "1305C52C-0BD1-483E-A343-C05F3AFF2931";
paths = (
{
closed = 1;
nodes = (
"392 499 OFFCURVE",
"558 475 OFFCURVE",
"599 450 CURVE",
"634 429 OFFCURVE",
"643 409 OFFCURVE",
"642 374 CURVE",
"641 334 OFFCURVE",
"616 313 OFFCURVE",
"584 300 CURVE",
"542 282 OFFCURVE",
"499 291 OFFCURVE",
"412 229 CURVE",
"370 200 OFFCURVE",
"333 152 OFFCURVE",
"316 109 CURVE",
"287 34 OFFCURVE",
"331 -56 OFFCURVE",
"321 -59 CURVE",
"308 -64 OFFCURVE",
"285 45 OFFCURVE",
"293 122 CURVE",
"299 187 OFFCURVE",
"330 227 OFFCURVE",
"389 284 CURVE",
"445 339 OFFCURVE",
"540 366 OFFCURVE",
"538 387 CURVE",
"534 442 OFFCURVE",
"422 450 OFFCURVE",
"369 513 CURVE",
"356 530 OFFCURVE",
"349 556 OFFCURVE",
"349 578 CURVE",
"348 618 OFFCURVE",
"351 706 OFFCURVE",
"352 736 CURVE",
"353 756 OFFCURVE",
"336 773 OFFCURVE",
"317 773 CURVE",
"286 773 OFFCURVE",
"252 727 OFFCURVE",
"248 704 CURVE",
"245 686 OFFCURVE",
"243 664 OFFCURVE",
"244 652 CURVE",
"245 642 OFFCURVE",
"252 636 OFFCURVE",
"251 621 CURVE",
"251 608 OFFCURVE",
"240 594 OFFCURVE",
"228 594 CURVE",
"212 594 OFFCURVE",
"169 623 OFFCURVE",
"163 643 CURVE",
"158 662 OFFCURVE",
"156 691 OFFCURVE",
"163 695 CURVE",
"172 700 OFFCURVE",
"180 682 OFFCURVE",
"188 683 CURVE",
"200 684 OFFCURVE",
"238 796 OFFCURVE",
"309 799 CURVE",
"357 801 OFFCURVE",
"380 757 OFFCURVE",
"381 735 CURVE",
"382 702 OFFCURVE",
"375 618 OFFCURVE",
"380 580 CURVE"
);
},
{
closed = 1;
nodes = (
"181 591 OFFCURVE",
"256 555 OFFCURVE",
"273 520 CURVE",
"279 507 OFFCURVE",
"275 484 OFFCURVE",
"269 475 CURVE",
"262 466 OFFCURVE",
"241 468 OFFCURVE",
"229 470 CURVE",
"213 473 OFFCURVE",
"199 492 OFFCURVE",
"172 492 CURVE",
"153 492 OFFCURVE",
"117 476 OFFCURVE",
"121 433 CURVE",
"125 375 OFFCURVE",
"192 407 OFFCURVE",
"219 372 CURVE",
"237 350 OFFCURVE",
"234 311 OFFCURVE",
"231 288 CURVE",
"222 217 OFFCURVE",
"99 121 OFFCURVE",
"82 142 CURVE",
"76 151 OFFCURVE",
"173 209 OFFCURVE",
"169 296 CURVE",
"165 382 OFFCURVE",
"93 376 OFFCURVE",
"87 442 CURVE",
"84 470 OFFCURVE",
"98 507 OFFCURVE",
"117 520 CURVE",
"135 533 OFFCURVE",
"166 537 OFFCURVE",
"174 548 CURVE",
"182 558 OFFCURVE",
"155 569 OFFCURVE",
"165 577 CURVE"
);
},
{
closed = 1;
nodes = (
"43 372 OFFCURVE",
"54 351 OFFCURVE",
"67 348 CURVE",
"89 342 OFFCURVE",
"109 370 OFFCURVE",
"113 364 CURVE",
"118 356 OFFCURVE",
"106 343 OFFCURVE",
"105 333 CURVE",
"103 318 OFFCURVE",
"107 297 OFFCURVE",
"92 287 CURVE",
"83 280 OFFCURVE",
"56 292 OFFCURVE",
"45 304 CURVE",
"35 317 OFFCURVE",
"25 357 OFFCURVE",
"32 363 CURVE"
);
}
);
width = 672;
}
);
unicode = 3051;
},
{
glyphname = "ge-hira";
lastChange = "2019-11-29 15:08:49 +0000";
layers = (
{
layerId = "1305C52C-0BD1-483E-A343-C05F3AFF2931";
paths = (
{
closed = 1;
nodes = (
"41 373 OFFCURVE",
"56 340 OFFCURVE",
"69 340 CURVE",
"82 340 OFFCURVE",
"108 361 OFFCURVE",
"108 361 CURVE",
"108 361 OFFCURVE",
"98 340 OFFCURVE",
"98 330 CURVE",
"97 316 OFFCURVE",
"99 293 OFFCURVE",
"90 286 CURVE",
"81 280 OFFCURVE",
"55 288 OFFCURVE",
"45 302 CURVE",
"35 316 OFFCURVE",
"25 365 OFFCURVE",
"33 369 CURVE"
);
},
{
closed = 1;
nodes = (
"158 577 OFFCURVE",
"217 568 OFFCURVE",
"245 544 CURVE",
"266 526 OFFCURVE",
"277 481 OFFCURVE",
"264 471 CURVE",
"245 457 OFFCURVE",
"196 489 OFFCURVE",
"171 489 CURVE",
"145 488 OFFCURVE",
"115 462 OFFCURVE",
"115 435 CURVE",
"116 366 OFFCURVE",
"237 408 OFFCURVE",
"235 322 CURVE",
"231 199 OFFCURVE",
"79 135 OFFCURVE",
"79 135 CURVE",
"79 135 OFFCURVE",
"166 233 OFFCURVE",
"165 283 CURVE",
"165 366 OFFCURVE",
"81 390 OFFCURVE",
"80 438 CURVE",
"77 537 OFFCURVE",
"183 545 OFFCURVE",
"183 545 CURVE",
"158 577 LINE"
);
},
{
closed = 1;
nodes = (
"169 703 OFFCURVE",
"179 676 OFFCURVE",
"188 682 CURVE",
"200 689 OFFCURVE",
"213 725 OFFCURVE",
"228 743 CURVE",
"254 775 OFFCURVE",
"287 797 OFFCURVE",
"315 796 CURVE",
"344 795 OFFCURVE",
"380 760 OFFCURVE",
"378 683 CURVE",
"373 505 OFFCURVE",
"406 518 OFFCURVE",
"504 483 CURVE",
"574 457 OFFCURVE",
"640 434 OFFCURVE",
"640 375 CURVE",
"640 305 OFFCURVE",
"553 284 OFFCURVE",
"464 260 CURVE",
"421 248 OFFCURVE",
"318 174 OFFCURVE",
"312 89 CURVE",
"309 40 OFFCURVE",
"321 -62 OFFCURVE",
"321 -62 CURVE",
"321 -62 OFFCURVE",
"283 44 OFFCURVE",
"285 97 CURVE",
"291 282 OFFCURVE",
"537 342 OFFCURVE",
"537 384 CURVE",
"537 463 OFFCURVE",
"333 402 OFFCURVE",
"349 668 CURVE",
"351 702 OFFCURVE",
"361 766 OFFCURVE",
"316 766 CURVE",
"274 766 OFFCURVE",
"240 709 OFFCURVE",
"241 678 CURVE",
"242 651 OFFCURVE",
"254 602 OFFCURVE",
"236 596 CURVE",
"182 579 OFFCURVE",
"144 687 OFFCURVE",
"160 697 CURVE"
);
},
{
closed = 1;
nodes = (
"436 648 OFFCURVE",
"461 608 OFFCURVE",
"483 608 CURVE",
"507 609 OFFCURVE",
"533 640 OFFCURVE",
"561 640 CURVE",
"587 640 OFFCURVE",
"619 603 OFFCURVE",
"621 578 CURVE",
"623 558 OFFCURVE",
"599 529 OFFCURVE",
"580 528 CURVE",
"562 528 OFFCURVE",
"535 537 OFFCURVE",
"534 546 CURVE",
"533 555 OFFCURVE",
"575 570 OFFCURVE",
"576 584 CURVE",
"576 594 OFFCURVE",
"565 610 OFFCURVE",
"550 610 CURVE",
"531 609 OFFCURVE",
"494 557 OFFCURVE",
"472 557 CURVE",
"451 557 OFFCURVE",
"419 635 OFFCURVE",
"427 642 CURVE"
);
}
);
width = 670;
}
);
unicode = 3052;
},
{
glyphname = "ko-hira";
lastChange = "2019-09-26 15:48:59 +0000";
layers = (
{
layerId = "1305C52C-0BD1-483E-A343-C05F3AFF2931";
paths = (
{
closed = 1;
nodes = (
"208 799 OFFCURVE",
"273 765 OFFCURVE",
"292 758 CURVE",
"300 755 OFFCURVE",
"320 753 OFFCURVE",
"331 746 CURVE",
"347 737 OFFCURVE",
"374 720 OFFCURVE",
"383 707 CURVE",
"390 697 OFFCURVE",
"390 674 OFFCURVE",
"379 661 CURVE",
"369 651 OFFCURVE",
"335 643 OFFCURVE",
"335 643 CURVE",
"335 643 OFFCURVE",
"302 641 OFFCURVE",
"285 635 CURVE",
"261 625 OFFCURVE",
"198 604 OFFCURVE",
"198 572 CURVE",
"198 547 OFFCURVE",
"233 551 OFFCURVE",
"251 555 CURVE",
"272 560 OFFCURVE",
"309 580 OFFCURVE",
"331 579 CURVE",
"366 578 OFFCURVE",
"407 551 OFFCURVE",
"412 528 CURVE",
"415 508 OFFCURVE",
"415 490 OFFCURVE",
"408 473 CURVE",
"385 425 OFFCURVE",
"293 406 OFFCURVE",
"248 369 CURVE",
"206 333 OFFCURVE",
"133 257 OFFCURVE",
"138 247 CURVE",
"143 240 OFFCURVE",
"207 303 OFFCURVE",
"247 301 CURVE",
"342 297 OFFCURVE",
"408 154 OFFCURVE",
"466 122 CURVE",
"503 101 OFFCURVE",
"559 108 OFFCURVE",
"598 115 CURVE",
"649 124 OFFCURVE",
"681 187 OFFCURVE",
"697 176 CURVE",
"712 164 OFFCURVE",
"596 19 OFFCURVE",
"484 22 CURVE",
"315 22 OFFCURVE",
"342 247 OFFCURVE",
"237 258 CURVE",
"202 262 OFFCURVE",
"166 232 OFFCURVE",
"145 203 CURVE",
"118 167 OFFCURVE",
"100 53 OFFCURVE",
"75 37 CURVE",
"55 25 OFFCURVE",
"28 79 OFFCURVE",
"30 97 CURVE",
"39 160 OFFCURVE",
"108 260 OFFCURVE",
"178 340 CURVE",
"255 426 OFFCURVE",
"331 467 OFFCURVE",
"332 498 CURVE",
"333 519 OFFCURVE",
"315 529 OFFCURVE",
"300 531 CURVE",
"276 533 OFFCURVE",
"216 527 OFFCURVE",
"194 534 CURVE",
"177 540 OFFCURVE",
"163 566 OFFCURVE",
"164 583 CURVE",
"167 620 OFFCURVE",
"271 690 OFFCURVE",
"272 704 CURVE",
"273 730 OFFCURVE",
"201 782 OFFCURVE",
"204 790 CURVE"
);
},
{
closed = 1;
nodes = (
"71 500 OFFCURVE",
"86 465 OFFCURVE",
"100 461 CURVE",
"111 458 OFFCURVE",
"132 459 OFFCURVE",
"145 464 CURVE",
"162 471 OFFCURVE",
"207 503 OFFCURVE",
"215 494 CURVE",
"225 483 OFFCURVE",
"166 448 OFFCURVE",
"157 424 CURVE",
"148 400 OFFCURVE",
"154 370 OFFCURVE",
"147 357 CURVE",
"142 346 OFFCURVE",
"118 345 OFFCURVE",
"108 351 CURVE",
"91 361 OFFCURVE",
"62 392 OFFCURVE",
"56 412 CURVE",
"51 429 OFFCURVE",
"44 445 OFFCURVE",
"51 454 CURVE",
"54 457 OFFCURVE",
"59 464 OFFCURVE",
"61 468 CURVE",
"63 474 OFFCURVE",
"60 496 OFFCURVE",
"65 498 CURVE"
);
}
);
width = 728;
}
);
unicode = 3053;
},
{
glyphname = "go-hira";
lastChange = "2019-11-29 15:13:06 +0000";
layers = (
{
layerId = "1305C52C-0BD1-483E-A343-C05F3AFF2931";
paths = (
{
closed = 1;
nodes = (
"180 714 OFFCURVE",
"287 677 OFFCURVE",
"316 660 CURVE",
"332 650 OFFCURVE",
"351 633 OFFCURVE",
"351 613 CURVE",
"350 568 OFFCURVE",
"181 576 OFFCURVE",
"183 509 CURVE",
"183 493 OFFCURVE",
"196 492 OFFCURVE",
"208 492 CURVE",
"230 494 OFFCURVE",
"275 520 OFFCURVE",
"304 518 CURVE",
"331 516 OFFCURVE",
"377 486 OFFCURVE",
"378 454 CURVE",
"380 399 OFFCURVE",
"276 363 OFFCURVE",
"230 330 CURVE",
"172 288 OFFCURVE",
"131 222 OFFCURVE",
"131 222 CURVE",
"131 222 OFFCURVE",
"190 258 OFFCURVE",
"222 259 CURVE",
"337 260 OFFCURVE",
"345 84 OFFCURVE",
"481 82 CURVE",
"594 82 OFFCURVE",
"637 145 OFFCURVE",
"637 145 CURVE",
"637 145 OFFCURVE",
"535 -2 OFFCURVE",
"430 1 CURVE",
"316 4 OFFCURVE",
"293 221 OFFCURVE",
"215 220 CURVE",
"103 219 OFFCURVE",
"98 50 OFFCURVE",
"64 18 CURVE",
"47 1 OFFCURVE",
"31 59 OFFCURVE",
"30 81 CURVE",
"26 143 OFFCURVE",
"168 319 OFFCURVE",
"257 393 CURVE",
"288 419 OFFCURVE",
"303 436 OFFCURVE",
"302 450 CURVE",
"300 490 OFFCURVE",
"251 472 OFFCURVE",
"223 472 CURVE",
"195 472 OFFCURVE",
"152 489 OFFCURVE",
"153 522 CURVE",
"154 566 OFFCURVE",
"244 609 OFFCURVE",
"245 636 CURVE",
"245 669 OFFCURVE",
"180 714 OFFCURVE",
"180 714 CURVE"
);
},
{
closed = 1;
nodes = (
"72 435 OFFCURVE",
"79 399 OFFCURVE",
"95 401 CURVE",
"117 402 OFFCURVE",
"192 440 OFFCURVE",
"192 440 CURVE",
"192 440 OFFCURVE",
"148 390 OFFCURVE",
"138 367 CURVE",
"130 348 OFFCURVE",
"140 308 OFFCURVE",
"128 303 CURVE",
"116 297 OFFCURVE",
"73 317 OFFCURVE",
"62 337 CURVE",
"50 358 OFFCURVE",
"40 425 OFFCURVE",
"59 431 CURVE"
);
},
{
closed = 1;
nodes = (
"366 335 OFFCURVE",
"384 304 OFFCURVE",
"401 303 CURVE",
"430 303 OFFCURVE",
"453 334 OFFCURVE",
"476 334 CURVE",
"500 333 OFFCURVE",
"532 302 OFFCURVE",
"531 278 CURVE",
"530 256 OFFCURVE",
"504 229 OFFCURVE",
"490 229 CURVE",
"473 228 OFFCURVE",
"451 234 OFFCURVE",
"451 245 CURVE",
"451 256 OFFCURVE",
"485 261 OFFCURVE",
"485 281 CURVE",
"486 294 OFFCURVE",
"481 304 OFFCURVE",
"467 304 CURVE",
"439 304 OFFCURVE",
"413 255 OFFCURVE",
"397 254 CURVE",
"373 254 OFFCURVE",
"350 329 OFFCURVE",
"358 332 CURVE"
);
}
);
width = 667;
}
);
unicode = 3054;
},
{
glyphname = "sa-hira";
lastChange = "2019-09-29 13:49:03 +0000";
layers = (
{
layerId = "1305C52C-0BD1-483E-A343-C05F3AFF2931";
paths = (
{
closed = 1;
nodes = (
"401 794 OFFCURVE",
"448 790 OFFCURVE",
"465 778 CURVE",
"488 764 OFFCURVE",
"516 717 OFFCURVE",
"518 696 CURVE",
"521 676 OFFCURVE",
"494 651 OFFCURVE",
"479 647 CURVE",
"464 643 OFFCURVE",
"444 675 OFFCURVE",
"423 672 CURVE",
"388 667 OFFCURVE",
"312 623 OFFCURVE",
"253 580 CURVE",
"203 544 OFFCURVE",
"41 463 OFFCURVE",
"31 477 CURVE",
"21 492 OFFCURVE",
"94 506 OFFCURVE",
"164 554 CURVE",
"207 584 OFFCURVE",
"255 630 OFFCURVE",
"296 661 CURVE",
"333 689 OFFCURVE",
"388 717 OFFCURVE",
"401 740 CURVE",
"410 759 OFFCURVE",
"387 777 OFFCURVE",
"394 786 CURVE"
);
},
{
closed = 1;
nodes = (
"276 560 OFFCURVE",
"236 485 OFFCURVE",
"242 481 CURVE",
"250 477 OFFCURVE",
"290 506 OFFCURVE",
"312 520 CURVE",
"324 528 OFFCURVE",
"353 559 OFFCURVE",
"370 563 CURVE",
"385 566 OFFCURVE",
"402 555 OFFCURVE",
"408 548 CURVE",
"414 542 OFFCURVE",
"407 521 OFFCURVE",
"404 515 CURVE",
"398 506 OFFCURVE",
"303 453 OFFCURVE",
"308 395 CURVE",
"312 348 OFFCURVE",
"428 348 OFFCURVE",
"454 290 CURVE",
"461 274 OFFCURVE",
"460 248 OFFCURVE",
"451 233 CURVE",
"412 166 OFFCURVE",
"352 213 OFFCURVE",
"246 159 CURVE",
"221 147 OFFCURVE",
"184 120 OFFCURVE",
"152 62 CURVE",
"139 37 OFFCURVE",
"147 -13 OFFCURVE",
"148 -23 CURVE",
"150 -41 OFFCURVE",
"157 -74 OFFCURVE",
"149 -76 CURVE",
"132 -82 OFFCURVE",
"114 21 OFFCURVE",
"122 76 CURVE",
"134 150 OFFCURVE",
"209 200 OFFCURVE",
"249 225 CURVE",
"286 247 OFFCURVE",
"359 261 OFFCURVE",
"361 286 CURVE",
"364 330 OFFCURVE",
"275 340 OFFCURVE",
"274 376 CURVE",
"273 433 OFFCURVE",
"336 506 OFFCURVE",
"336 506 CURVE",
"336 506 OFFCURVE",
"279 465 OFFCURVE",
"258 442 CURVE",
"239 422 OFFCURVE",
"240 379 OFFCURVE",
"215 373 CURVE",
"196 369 OFFCURVE",
"179 388 OFFCURVE",
"166 413 CURVE",
"159 428 OFFCURVE",
"155 457 OFFCURVE",
"161 464 CURVE",
"168 473 OFFCURVE",
"179 465 OFFCURVE",
"189 470 CURVE",
"202 476 OFFCURVE",
"216 495 OFFCURVE",
"227 510 CURVE",
"239 527 OFFCURVE",
"254 570 OFFCURVE",
"265 565 CURVE"
);
}
);
width = 548;
}
);
unicode = 3055;
},
{
glyphname = "za-hira";
lastChange = "2019-11-29 15:15:36 +0000";
layers = (
{
layerId = "1305C52C-0BD1-483E-A343-C05F3AFF2931";
paths = (
{
closed = 1;
nodes = (
"405 800 OFFCURVE",
"447 793 OFFCURVE",
"467 780 CURVE",
"489 764 OFFCURVE",
"524 717 OFFCURVE",
"524 696 CURVE",
"524 675 OFFCURVE",
"497 657 OFFCURVE",
"482 656 CURVE",
"467 655 OFFCURVE",
"442 683 OFFCURVE",
"426 678 CURVE",
"372 662 OFFCURVE",
"314 632 OFFCURVE",
"267 595 CURVE",
"173 523 OFFCURVE",
"30 481 OFFCURVE",
"30 481 CURVE",
"30 481 OFFCURVE",
"108 528 OFFCURVE",
"146 550 CURVE",
"197 580 OFFCURVE",
"265 640 OFFCURVE",
"307 676 CURVE",
"350 713 OFFCURVE",
"412 733 OFFCURVE",
"413 749 CURVE",
"413 764 OFFCURVE",
"386 784 OFFCURVE",
"397 793 CURVE"
);
},
{
closed = 1;
nodes = (
"428 482 OFFCURVE",
"462 440 OFFCURVE",
"479 441 CURVE",
"500 442 OFFCURVE",
"529 478 OFFCURVE",
"552 477 CURVE",
"576 477 OFFCURVE",
"608 444 OFFCURVE",
"606 412 CURVE",
"606 391 OFFCURVE",
"576 366 OFFCURVE",
"561 366 CURVE",
"548 367 OFFCURVE",
"526 371 OFFCURVE",
"527 380 CURVE",
"528 389 OFFCURVE",
"565 403 OFFCURVE",
"565 421 CURVE",
"564 432 OFFCURVE",
"554 447 OFFCURVE",
"541 447 CURVE",
"504 447 OFFCURVE",
"485 391 OFFCURVE",
"465 390 CURVE",
"445 390 OFFCURVE",
"411 463 OFFCURVE",
"422 476 CURVE"
);
},
{
closed = 1;
nodes = (
"307 640 OFFCURVE",
"310 613 OFFCURVE",
"303 600 CURVE",
"295 584 OFFCURVE",
"275 572 OFFCURVE",
"259 546 CURVE",
"233 504 OFFCURVE",
"226 477 OFFCURVE",
"226 477 CURVE",
"226 477 OFFCURVE",
"274 497 OFFCURVE",
"299 513 CURVE",
"325 528 OFFCURVE",
"360 568 OFFCURVE",
"380 570 CURVE",
"398 572 OFFCURVE",
"415 557 OFFCURVE",
"415 541 CURVE",
"415 516 OFFCURVE",
"314 468 OFFCURVE",
"311 403 CURVE",
"309 351 OFFCURVE",
"461 350 OFFCURVE",
"462 262 CURVE",
"462 220 OFFCURVE",
"384 199 OFFCURVE",
"341 196 CURVE",
"283 191 OFFCURVE",
"164 126 OFFCURVE",
"152 27 CURVE",
"147 -9 OFFCURVE",
"148 -71 OFFCURVE",
"148 -71 CURVE",
"148 -71 OFFCURVE",
"106 57 OFFCURVE",
"134 117 CURVE",
"185 226 OFFCURVE",
"366 260 OFFCURVE",
"366 291 CURVE",
"367 342 OFFCURVE",
"280 361 OFFCURVE",
"280 394 CURVE",
"280 430 OFFCURVE",
"343 516 OFFCURVE",
"343 516 CURVE",
"343 516 OFFCURVE",
"276 475 OFFCURVE",
"254 452 CURVE",
"236 432 OFFCURVE",
"233 380 OFFCURVE",
"215 379 CURVE",
"177 377 OFFCURVE",
"153 455 OFFCURVE",
"161 469 CURVE",
"165 476 OFFCURVE",
"180 463 OFFCURVE",
"186 469 CURVE",
"207 487 OFFCURVE",
"265 600 OFFCURVE",
"265 600 CURVE",
"307 640 LINE"
);
}
);
width = 636;
}
);
unicode = 3056;
},
{
glyphname = "si-hira";
lastChange = "2019-09-29 13:50:01 +0000";
layers = (
{
layerId = "1305C52C-0BD1-483E-A343-C05F3AFF2931";
paths = (
{
closed = 1;
nodes = (
"147 577 OFFCURVE",
"172 559 OFFCURVE",
"187 554 CURVE",
"202 550 OFFCURVE",
"225 550 OFFCURVE",
"238 543 CURVE",
"250 537 OFFCURVE",
"264 523 OFFCURVE",
"264 512 CURVE",
"264 495 OFFCURVE",
"227 492 OFFCURVE",
"211 481 CURVE",
"191 467 OFFCURVE",
"140 406 OFFCURVE",
"133 412 CURVE",
"125 419 OFFCURVE",
"176 492 OFFCURVE",
"175 504 CURVE",
"174 517 OFFCURVE",
"136 553 OFFCURVE",
"144 570 CURVE"
);
},
{
closed = 1;
nodes = (
"115 396 OFFCURVE",
"117 377 OFFCURVE",
"129 377 CURVE",
"146 376 OFFCURVE",
"203 404 OFFCURVE",
"221 403 CURVE",
"236 402 OFFCURVE",
"247 396 OFFCURVE",
"246 385 CURVE",
"245 366 OFFCURVE",
"193 321 OFFCURVE",
"194 293 CURVE",
"194 266 OFFCURVE",
"247 251 OFFCURVE",
"247 214 CURVE",
"247 197 OFFCURVE",
"235 182 OFFCURVE",
"211 181 CURVE",
"194 179 OFFCURVE",
"177 200 OFFCURVE",
"150 198 CURVE",
"52 192 OFFCURVE",
"49 70 OFFCURVE",
"36 69 CURVE",
"23 69 OFFCURVE",
"31 140 OFFCURVE",
"72 194 CURVE",
"107 239 OFFCURVE",
"169 237 OFFCURVE",
"177 244 CURVE",
"183 248 OFFCURVE",
"157 267 OFFCURVE",
"156 282 CURVE",
"155 300 OFFCURVE",
"189 345 OFFCURVE",
"178 354 CURVE",
"165 365 OFFCURVE",
"136 306 OFFCURVE",
"119 306 CURVE",
"102 305 OFFCURVE",
"78 344 OFFCURVE",
"78 354 CURVE",
"78 369 OFFCURVE",
"87 395 OFFCURVE",
"101 396 CURVE"
);
},
{
closed = 1;
nodes = (
"240 794 OFFCURVE",
"302 773 OFFCURVE",
"330 763 CURVE",
"355 754 OFFCURVE",
"385 733 OFFCURVE",
"394 719 CURVE",
"402 708 OFFCURVE",
"397 688 OFFCURVE",
"390 680 CURVE",
"383 671 OFFCURVE",
"365 674 OFFCURVE",
"355 666 CURVE",
"347 660 OFFCURVE",
"342 648 OFFCURVE",
"342 638 CURVE",
"339 532 OFFCURVE",
"332 149 OFFCURVE",
"333 36 CURVE",
"334 20 OFFCURVE",
"364 -3 OFFCURVE",
"364 -34 CURVE",
"364 -52 OFFCURVE",
"342 -61 OFFCURVE",
"328 -57 CURVE",
"284 -47 OFFCURVE",
"281 -7 OFFCURVE",
"282 14 CURVE",
"282 33 OFFCURVE",
"298 53 OFFCURVE",
"299 62 CURVE",
"299 97 OFFCURVE",
"302 531 OFFCURVE",
"300 635 CURVE",
"300 656 OFFCURVE",
"288 687 OFFCURVE",
"277 709 CURVE",
"265 734 OFFCURVE",
"223 768 OFFCURVE",
"230 779 CURVE"
);
},
{
closed = 1;
nodes = (
"503 571 OFFCURVE",
"536 546 OFFCURVE",
"548 526 CURVE",
"572 488 OFFCURVE",
"584 446 OFFCURVE",
"565 425 CURVE",
"547 407 OFFCURVE",
"524 452 OFFCURVE",
"499 444 CURVE",
"466 433 OFFCURVE",
"433 377 OFFCURVE",
"435 332 CURVE",
"440 223 OFFCURVE",
"565 166 OFFCURVE",
"618 155 CURVE",
"642 151 OFFCURVE",
"682 157 OFFCURVE",
"682 145 CURVE",
"682 135 OFFCURVE",
"590 130 OFFCURVE",
"564 139 CURVE",
"472 171 OFFCURVE",
"417 205 OFFCURVE",
"386 340 CURVE",
"365 435 OFFCURVE",
"479 530 OFFCURVE",
"485 545 CURVE",
"488 553 OFFCURVE",
"483 559 OFFCURVE",
"490 563 CURVE"
);
}
);
width = 712;
}
);
unicode = 3057;
},
{
glyphname = "zi-hira";
lastChange = "2019-12-06 16:09:07 +0000";
layers = (
{
layerId = "1305C52C-0BD1-483E-A343-C05F3AFF2931";
paths = (
{
closed = 1;
nodes = (
"230 799 OFFCURVE",
"302 791 OFFCURVE",
"332 780 CURVE",
"362 768 OFFCURVE",
"400 739 OFFCURVE",
"398 713 CURVE",
"397 696 OFFCURVE",
"341 692 OFFCURVE",
"341 674 CURVE",
"338 569 OFFCURVE",
"335 183 OFFCURVE",
"334 69 CURVE",
"334 45 OFFCURVE",
"361 39 OFFCURVE",
"362 -3 CURVE",
"363 -24 OFFCURVE",
"350 -36 OFFCURVE",
"336 -36 CURVE",
"311 -37 OFFCURVE",
"281 7 OFFCURVE",
"281 32 CURVE",
"281 44 OFFCURVE",
"304 62 OFFCURVE",
"304 81 CURVE",
"304 188 OFFCURVE",
"305 566 OFFCURVE",
"303 678 CURVE",
"302 702 OFFCURVE",
"285 724 OFFCURVE",
"272 744 CURVE",
"261 764 OFFCURVE",
"230 799 OFFCURVE",
"230 799 CURVE"
);
},
{
closed = 1;
nodes = (
"150 596 OFFCURVE",
"166 579 OFFCURVE",
"177 575 CURVE",
"191 569 OFFCURVE",
"211 568 OFFCURVE",
"226 560 CURVE",
"239 554 OFFCURVE",
"256 543 OFFCURVE",
"256 530 CURVE",
"257 517 OFFCURVE",
"226 500 OFFCURVE",
"214 491 CURVE",
"206 485 OFFCURVE",
"194 485 OFFCURVE",
"186 480 CURVE",
"174 473 OFFCURVE",
"141 441 OFFCURVE",
"141 441 CURVE",
"141 441 OFFCURVE",
"144 461 OFFCURVE",
"148 471 CURVE",
"152 484 OFFCURVE",
"172 506 OFFCURVE",
"171 521 CURVE",
"170 536 OFFCURVE",
"149 546 OFFCURVE",
"144 558 CURVE",
"141 569 OFFCURVE",
"139 591 OFFCURVE",
"144 594 CURVE"
);
},
{
closed = 1;
nodes = (
"109 409 OFFCURVE",
"118 386 OFFCURVE",
"130 386 CURVE",
"148 386 OFFCURVE",
"199 418 OFFCURVE",
"217 418 CURVE",
"229 418 OFFCURVE",
"249 411 OFFCURVE",
"246 400 CURVE",
"241 382 OFFCURVE",
"189 339 OFFCURVE",
"189 311 CURVE",
"190 284 OFFCURVE",
"247 269 OFFCURVE",
"247 234 CURVE",
"247 217 OFFCURVE",
"228 202 OFFCURVE",
"214 202 CURVE",
"201 202 OFFCURVE",
"184 224 OFFCURVE",
"168 224 CURVE",
"52 226 OFFCURVE",
"33 83 OFFCURVE",
"33 83 CURVE",
"33 83 OFFCURVE",
"14 135 OFFCURVE",
"80 212 CURVE",
"123 262 OFFCURVE",
"182 246 OFFCURVE",
"184 262 CURVE",
"185 277 OFFCURVE",
"164 292 OFFCURVE",
"164 307 CURVE",
"165 326 OFFCURVE",
"195 380 OFFCURVE",
"195 380 CURVE",
"195 380 OFFCURVE",
"176 383 OFFCURVE",
"164 371 CURVE",
"153 361 OFFCURVE",
"136 329 OFFCURVE",
"122 329 CURVE",
"108 330 OFFCURVE",
"90 359 OFFCURVE",
"87 372 CURVE",
"83 385 OFFCURVE",
"93 410 OFFCURVE",
"101 409 CURVE"
);
},
{
closed = 1;
nodes = (
"461 690 OFFCURVE",
"488 659 OFFCURVE",
"508 660 CURVE",
"530 661 OFFCURVE",
"561 692 OFFCURVE",
"587 691 CURVE",
"613 690 OFFCURVE",
"645 650 OFFCURVE",
"645 626 CURVE",
"644 592 OFFCURVE",
"618 578 OFFCURVE",
"597 577 CURVE",
"584 576 OFFCURVE",
"559 583 OFFCURVE",
"559 593 CURVE",
"559 606 OFFCURVE",
"603 620 OFFCURVE",
"603 635 CURVE",
"603 647 OFFCURVE",
"590 662 OFFCURVE",
"574 662 CURVE",
"556 662 OFFCURVE",
"523 602 OFFCURVE",
"502 602 CURVE",
"477 603 OFFCURVE",
"445 678 OFFCURVE",
"453 684 CURVE"
);
},
{
closed = 1;
nodes = (
"510 582 OFFCURVE",
"547 553 OFFCURVE",
"559 531 CURVE",
"572 509 OFFCURVE",
"585 454 OFFCURVE",
"574 446 CURVE",
"553 431 OFFCURVE",
"529 465 OFFCURVE",
"510 465 CURVE",
"477 464 OFFCURVE",
"437 414 OFFCURVE",
"436 354 CURVE",
"434 263 OFFCURVE",
"521 205 OFFCURVE",
"594 180 CURVE",
"645 164 OFFCURVE",
"691 168 OFFCURVE",
"691 168 CURVE",
"691 168 OFFCURVE",
"653 139 OFFCURVE",
"575 157 CURVE",
"500 174 OFFCURVE",
"400 256 OFFCURVE",
"390 360 CURVE",
"383 430 OFFCURVE",
"456 522 OFFCURVE",
"484 546 CURVE",
"494 555 OFFCURVE",
"493 574 OFFCURVE",
"501 578 CURVE"
);
}
);
width = 721;
}
);
unicode = 3058;
},
{
glyphname = "su-hira";
lastChange = "2019-10-01 17:00:43 +0000";
layers = (
{
layerId = "1305C52C-0BD1-483E-A343-C05F3AFF2931";
paths = (
{
closed = 1;
nodes = (
"219 795 OFFCURVE",
"266 794 OFFCURVE",
"287 783 CURVE",
"311 770 OFFCURVE",
"356 730 OFFCURVE",
"362 709 CURVE",
"367 694 OFFCURVE",
"353 676 OFFCURVE",
"342 672 CURVE",
"329 666 OFFCURVE",
"319 675 OFFCURVE",
"305 672 CURVE",
"288 669 OFFCURVE",
"263 650 OFFCURVE",
"248 646 CURVE",
"239 644 OFFCURVE",
"221 643 OFFCURVE",
"218 654 CURVE",
"214 668 OFFCURVE",
"256 715 OFFCURVE",
"257 738 CURVE",
"258 769 OFFCURVE",
"210 765 OFFCURVE",
"216 786 CURVE"
);
},
{
closed = 1;
nodes = (
"388 641 OFFCURVE",
"433 624 OFFCURVE",
"431 600 CURVE",
"428 564 OFFCURVE",
"295 538 OFFCURVE",
"297 484 CURVE",
"298 437 OFFCURVE",
"428 456 OFFCURVE",
"426 367 CURVE",
"424 290 OFFCURVE",
"254 225 OFFCURVE",
"254 225 CURVE",
"254 225 OFFCURVE",
"279 163 OFFCURVE",
"313 169 CURVE",
"339 173 OFFCURVE",
"404 209 OFFCURVE",
"463 247 CURVE",
"537 293 OFFCURVE",
"605 343 OFFCURVE",
"608 339 CURVE",
"616 327 OFFCURVE",
"564 271 OFFCURVE",
"496 222 CURVE",
"442 183 OFFCURVE",
"399 177 OFFCURVE",
"355 120 CURVE",
"343 104 OFFCURVE",
"348 74 OFFCURVE",
"313 68 CURVE",
"295 65 OFFCURVE",
"255 118 OFFCURVE",
"249 141 CURVE",
"245 153 OFFCURVE",
"234 216 OFFCURVE",
"234 216 CURVE",
"234 216 OFFCURVE",
"162 178 OFFCURVE",
"132 150 CURVE",
"102 123 OFFCURVE",
"64 96 OFFCURVE",
"58 49 CURVE",
"50 -14 OFFCURVE",
"66 -55 OFFCURVE",
"57 -59 CURVE",
"48 -64 OFFCURVE",
"30 -4 OFFCURVE",
"30 22 CURVE",
"27 90 OFFCURVE",
"63 138 OFFCURVE",
"101 182 CURVE",
"152 241 OFFCURVE",
"337 319 OFFCURVE",
"338 379 CURVE",
"338 422 OFFCURVE",
"263 446 OFFCURVE",
"260 479 CURVE",
"257 513 OFFCURVE",
"325 584 OFFCURVE",
"325 584 CURVE",
"325 584 OFFCURVE",
"287 568 OFFCURVE",
"225 530 CURVE",
"215 523 OFFCURVE",
"214 496 OFFCURVE",
"195 493 CURVE",
"181 491 OFFCURVE",
"149 515 OFFCURVE",
"138 530 CURVE",
"129 543 OFFCURVE",
"129 573 OFFCURVE",
"139 579 CURVE",
"149 585 OFFCURVE",
"150 558 OFFCURVE",
"198 567 CURVE",
"232 573 OFFCURVE",
"310 606 OFFCURVE",
"333 622 CURVE",
"340 626 OFFCURVE",
"341 637 OFFCURVE",
"347 641 CURVE",
"352 645 OFFCURVE",
"363 649 OFFCURVE",
"372 646 CURVE"
);
}
);
width = 639;
}
);
unicode = 3059;
},
{
glyphname = "zu-hira";
lastChange = "2019-12-06 16:09:45 +0000";
layers = (
{
layerId = "1305C52C-0BD1-483E-A343-C05F3AFF2931";
paths = (
{
closed = 1;
nodes = (
"235 248 OFFCURVE",
"292 173 OFFCURVE",
"318 174 CURVE",
"359 176 OFFCURVE",
"610 339 OFFCURVE",
"610 339 CURVE",
"610 339 OFFCURVE",
"600 296 OFFCURVE",
"482 220 CURVE",
"447 197 OFFCURVE",
"380 151 OFFCURVE",
"359 129 CURVE",
"345 115 OFFCURVE",
"341 77 OFFCURVE",
"325 76 CURVE",
"307 75 OFFCURVE",
"277 104 OFFCURVE",
"258 137 CURVE",
"247 156 OFFCURVE",
"235 248 OFFCURVE",
"235 248 CURVE"
);
},
{
closed = 1;
nodes = (
"232 799 OFFCURVE",
"290 777 OFFCURVE",
"318 756 CURVE",
"335 743 OFFCURVE",
"362 709 OFFCURVE",
"361 697 CURVE",
"360 677 OFFCURVE",
"322 686 OFFCURVE",
"307 682 CURVE",
"284 675 OFFCURVE",
"237 647 OFFCURVE",
"228 658 CURVE",
"221 666 OFFCURVE",
"268 712 OFFCURVE",
"267 736 CURVE",
"266 766 OFFCURVE",
"217 786 OFFCURVE",
"224 792 CURVE"
);
},
{
closed = 1;
nodes = (
"144 586 OFFCURVE",
"169 564 OFFCURVE",
"186 565 CURVE",
"247 570 OFFCURVE",
"346 642 OFFCURVE",
"388 641 CURVE",
"414 640 OFFCURVE",
"433 611 OFFCURVE",
"433 601 CURVE",
"432 591 OFFCURVE",
"391 588 OFFCURVE",
"378 578 CURVE",
"354 560 OFFCURVE",
"293 522 OFFCURVE",
"294 492 CURVE",
"295 437 OFFCURVE",
"432 452 OFFCURVE",
"427 376 CURVE",
"420 284 OFFCURVE",
"291 259 OFFCURVE",
"213 213 CURVE",
"139 169 OFFCURVE",
"60 99 OFFCURVE",
"54 23 CURVE",
"52 -8 OFFCURVE",
"71 -71 OFFCURVE",
"71 -71 CURVE",
"71 -71 OFFCURVE",
"31 -27 OFFCURVE",
"30 42 CURVE",
"29 96 OFFCURVE",
"97 182 OFFCURVE",
"158 226 CURVE",
"222 272 OFFCURVE",
"350 348 OFFCURVE",
"352 383 CURVE",
"353 429 OFFCURVE",
"264 446 OFFCURVE",
"266 494 CURVE",
"268 527 OFFCURVE",
"337 588 OFFCURVE",
"337 588 CURVE",
"337 588 OFFCURVE",
"269 567 OFFCURVE",
"229 537 CURVE",
"217 528 OFFCURVE",
"215 500 OFFCURVE",
"200 499 CURVE",
"185 499 OFFCURVE",
"156 517 OFFCURVE",
"146 531 CURVE",
"136 544 OFFCURVE",
"129 576 OFFCURVE",
"137 581 CURVE"
);
},
{
closed = 1;
nodes = (
"459 551 OFFCURVE",
"484 517 OFFCURVE",
"503 518 CURVE",
"545 520 OFFCURVE",
"557 545 OFFCURVE",
"581 545 CURVE",
"612 544 OFFCURVE",
"642 512 OFFCURVE",
"641 481 CURVE",
"640 462 OFFCURVE",
"614 438 OFFCURVE",
"598 438 CURVE",
"581 438 OFFCURVE",
"559 442 OFFCURVE",
"559 451 CURVE",
"558 459 OFFCURVE",
"595 469 OFFCURVE",
"595 492 CURVE",
"595 503 OFFCURVE",
"584 516 OFFCURVE",
"573 516 CURVE",
"534 515 OFFCURVE",
"515 464 OFFCURVE",
"496 464 CURVE",
"475 464 OFFCURVE",
"446 538 OFFCURVE",
"452 544 CURVE"
);
}
);
width = 671;
}
);
unicode = 305A;
},
{
glyphname = "se-hira";
lastChange = "2019-10-01 17:01:55 +0000";
layers = (
{
layerId = "1305C52C-0BD1-483E-A343-C05F3AFF2931";
paths = (
{
closed = 1;
nodes = (
"103 556 OFFCURVE",
"92 504 OFFCURVE",
"119 504 CURVE",
"141 505 OFFCURVE",
"201 542 OFFCURVE",
"225 547 CURVE",
"242 551 OFFCURVE",
"259 543 OFFCURVE",
"260 530 CURVE",
"262 509 OFFCURVE",
"186 460 OFFCURVE",
"190 411 CURVE",
"193 360 OFFCURVE",
"267 363 OFFCURVE",
"268 294 CURVE",
"269 272 OFFCURVE",
"241 250 OFFCURVE",
"226 248 CURVE",
"208 245 OFFCURVE",
"191 252 OFFCURVE",
"175 252 CURVE",
"65 252 OFFCURVE",
"52 124 OFFCURVE",
"38 122 CURVE",
"24 120 OFFCURVE",
"23 202 OFFCURVE",
"93 266 CURVE",
"138 306 OFFCURVE",
"182 284 OFFCURVE",
"196 320 CURVE",
"203 336 OFFCURVE",
"158 373 OFFCURVE",
"156 400 CURVE",
"153 426 OFFCURVE",
"183 480 OFFCURVE",
"183 480 CURVE",
"183 480 OFFCURVE",
"163 471 OFFCURVE",
"154 464 CURVE",
"143 455 OFFCURVE",
"128 421 OFFCURVE",
"115 421 CURVE",
"90 421 OFFCURVE",
"55 448 OFFCURVE",
"55 474 CURVE",
"56 496 OFFCURVE",
"75 546 OFFCURVE",
"90 551 CURVE"
);
},
{
closed = 1;
nodes = (
"296 482 OFFCURVE",
"346 438 OFFCURVE",
"360 414 CURVE",
"368 401 OFFCURVE",
"373 375 OFFCURVE",
"362 369 CURVE",
"336 353 OFFCURVE",
"253 390 OFFCURVE",
"255 400 CURVE",
"258 414 OFFCURVE",
"285 404 OFFCURVE",
"292 421 CURVE",
"297 434 OFFCURVE",
"276 470 OFFCURVE",
"287 477 CURVE"
);
},
{
closed = 1;
nodes = (
"157 706 OFFCURVE",
"170 678 OFFCURVE",
"178 684 CURVE",
"190 693 OFFCURVE",
"220 789 OFFCURVE",
"302 794 CURVE",
"335 796 OFFCURVE",
"369 750 OFFCURVE",
"368 737 CURVE",
"368 696 OFFCURVE",
"368 630 OFFCURVE",
"367 581 CURVE",
"367 514 OFFCURVE",
"475 482 OFFCURVE",
"541 463 CURVE",
"609 444 OFFCURVE",
"626 417 OFFCURVE",
"625 372 CURVE",
"624 333 OFFCURVE",
"599 294 OFFCURVE",
"538 285 CURVE",
"478 277 OFFCURVE",
"411 235 OFFCURVE",
"369 195 CURVE",
"311 141 OFFCURVE",
"299 93 OFFCURVE",
"298 38 CURVE",
"297 8 OFFCURVE",
"311 -52 OFFCURVE",
"304 -55 CURVE",
"298 -58 OFFCURVE",
"273 32 OFFCURVE",
"274 76 CURVE",
"276 152 OFFCURVE",
"300 212 OFFCURVE",
"360 270 CURVE",
"426 335 OFFCURVE",
"524 360 OFFCURVE",
"523 389 CURVE",
"521 425 OFFCURVE",
"425 444 OFFCURVE",
"382 485 CURVE",
"365 502 OFFCURVE",
"337 558 OFFCURVE",
"337 590 CURVE",
"337 632 OFFCURVE",
"341 708 OFFCURVE",
"341 739 CURVE",
"341 753 OFFCURVE",
"324 774 OFFCURVE",
"299 772 CURVE",
"271 770 OFFCURVE",
"236 724 OFFCURVE",
"235 674 CURVE",
"234 648 OFFCURVE",
"236 615 OFFCURVE",
"228 602 CURVE",
"222 592 OFFCURVE",
"206 596 OFFCURVE",
"193 601 CURVE",
"182 606 OFFCURVE",
"164 619 OFFCURVE",
"154 636 CURVE",
"146 652 OFFCURVE",
"142 687 OFFCURVE",
"151 698 CURVE"
);
}
);
width = 655;
}
);
unicode = 305B;
},
{
glyphname = "ze-hira";
lastChange = "2019-12-06 16:10:20 +0000";
layers = (
{
layerId = "1305C52C-0BD1-483E-A343-C05F3AFF2931";
paths = (
{
closed = 1;
nodes = (
"90 544 OFFCURVE",
"89 502 OFFCURVE",
"115 503 CURVE",
"138 503 OFFCURVE",
"203 552 OFFCURVE",
"227 552 CURVE",
"239 552 OFFCURVE",
"255 544 OFFCURVE",
"255 533 CURVE",
"256 516 OFFCURVE",
"174 468 OFFCURVE",
"176 420 CURVE",
"178 371 OFFCURVE",
"263 350 OFFCURVE",
"262 307 CURVE",
"262 283 OFFCURVE",
"229 260 OFFCURVE",
"212 259 CURVE",
"196 257 OFFCURVE",
"182 267 OFFCURVE",
"164 263 CURVE",
"16 234 OFFCURVE",
"39 109 OFFCURVE",
"39 109 CURVE",
"39 109 OFFCURVE",
"-2 178 OFFCURVE",
"87 269 CURVE",
"115 297 OFFCURVE",
"191 296 OFFCURVE",
"191 327 CURVE",
"190 352 OFFCURVE",
"156 382 OFFCURVE",
"155 410 CURVE",
"154 438 OFFCURVE",
"187 495 OFFCURVE",
"187 495 CURVE",
"187 495 OFFCURVE",
"150 483 OFFCURVE",
"130 456 CURVE",
"123 447 OFFCURVE",
"118 429 OFFCURVE",
"107 429 CURVE",
"93 428 OFFCURVE",
"54 462 OFFCURVE",
"54 482 CURVE",
"54 505 OFFCURVE",
"70 544 OFFCURVE",
"81 544 CURVE"
);
},
{
closed = 1;
nodes = (
"293 484 OFFCURVE",
"304 467 OFFCURVE",
"324 452 CURVE",
"343 437 OFFCURVE",
"368 430 OFFCURVE",
"368 398 CURVE",
"368 384 OFFCURVE",
"351 371 OFFCURVE",
"337 370 CURVE",
"319 369 OFFCURVE",
"259 389 OFFCURVE",
"258 402 CURVE",
"258 414 OFFCURVE",
"284 414 OFFCURVE",
"289 428 CURVE",
"297 452 OFFCURVE",
"272 473 OFFCURVE",
"285 480 CURVE"
);
},
{
closed = 1;
nodes = (
"154 706 OFFCURVE",
"161 688 OFFCURVE",
"170 688 CURVE",
"182 689 OFFCURVE",
"194 734 OFFCURVE",
"211 752 CURVE",
"230 773 OFFCURVE",
"270 799 OFFCURVE",
"298 799 CURVE",
"327 800 OFFCURVE",
"362 792 OFFCURVE",
"360 691 CURVE",
"358 538 OFFCURVE",
"369 557 OFFCURVE",
"392 532 CURVE",
"438 481 OFFCURVE",
"634 486 OFFCURVE",
"629 382 CURVE",
"626 298 OFFCURVE",
"528 301 OFFCURVE",
"441 264 CURVE",
"376 235 OFFCURVE",
"296 171 OFFCURVE",
"292 63 CURVE",
"291 24 OFFCURVE",
"308 -52 OFFCURVE",
"308 -52 CURVE",
"308 -52 OFFCURVE",
"268 49 OFFCURVE",
"270 102 CURVE",
"274 282 OFFCURVE",
"527 368 OFFCURVE",
"527 395 CURVE",
"527 425 OFFCURVE",
"489 436 OFFCURVE",
"448 453 CURVE",
"393 477 OFFCURVE",
"329 513 OFFCURVE",
"333 624 CURVE",
"335 698 OFFCURVE",
"342 780 OFFCURVE",
"308 780 CURVE",
"288 780 OFFCURVE",
"225 759 OFFCURVE",
"226 678 CURVE",
"226 654 OFFCURVE",
"239 615 OFFCURVE",
"220 608 CURVE",
"197 598 OFFCURVE",
"166 627 OFFCURVE",
"154 642 CURVE",
"143 656 OFFCURVE",
"141 699 OFFCURVE",
"147 703 CURVE"
);
},
{
closed = 1;
nodes = (
"448 658 OFFCURVE",
"473 622 OFFCURVE",
"493 622 CURVE",
"523 623 OFFCURVE",
"550 652 OFFCURVE",
"574 653 CURVE",
"601 653 OFFCURVE",
"630 611 OFFCURVE",
"629 588 CURVE",
"629 569 OFFCURVE",
"611 541 OFFCURVE",
"579 541 CURVE",
"562 540 OFFCURVE",
"541 545 OFFCURVE",
"542 554 CURVE",
"543 563 OFFCURVE",
"586 582 OFFCURVE",
"586 594 CURVE",
"585 606 OFFCURVE",
"574 622 OFFCURVE",
"559 622 CURVE",
"529 623 OFFCURVE",
"503 567 OFFCURVE",
"484 568 CURVE",
"463 569 OFFCURVE",
"431 645 OFFCURVE",
"439 651 CURVE"
);
}
);
width = 659;
}
);
unicode = 305C;
},
{
glyphname = "so-hira";
lastChange = "2019-10-05 16:20:38 +0000";
layers = (
{
layerId = "1305C52C-0BD1-483E-A343-C05F3AFF2931";
paths = (
{
closed = 1;
nodes = (
"330 799 OFFCURVE",
"358 797 OFFCURVE",
"374 792 CURVE",
"392 786 OFFCURVE",
"425 770 OFFCURVE",
"427 756 CURVE",
"434 713 OFFCURVE",
"399 704 OFFCURVE",
"391 695 CURVE",
"367 665 OFFCURVE",
"271 599 OFFCURVE",
"271 575 CURVE",
"271 553 OFFCURVE",
"336 580 OFFCURVE",
"371 526 CURVE",
"392 495 OFFCURVE",
"411 447 OFFCURVE",
"412 405 CURVE",
"413 357 OFFCURVE",
"396 295 OFFCURVE",
"396 247 CURVE",
"395 146 OFFCURVE",
"455 20 OFFCURVE",
"560 18 CURVE",
"652 17 OFFCURVE",
"713 79 OFFCURVE",
"719 69 CURVE",
"724 60 OFFCURVE",
"622 -40 OFFCURVE",
"581 -44 CURVE",
"408 -61 OFFCURVE",
"341 57 OFFCURVE",
"332 193 CURVE",
"327 263 OFFCURVE",
"359 346 OFFCURVE",
"360 402 CURVE",
"361 471 OFFCURVE",
"341 529 OFFCURVE",
"271 530 CURVE",
"214 531 OFFCURVE",
"225 445 OFFCURVE",
"172 454 CURVE",
"141 460 OFFCURVE",
"165 506 OFFCURVE",
"180 529 CURVE",
"192 546 OFFCURVE",
"218 549 OFFCURVE",
"270 615 CURVE",
"296 647 OFFCURVE",
"334 695 OFFCURVE",
"336 722 CURVE",
"338 749 OFFCURVE",
"309 761 OFFCURVE",
"323 787 CURVE"
);
},
{
closed = 1;
nodes = (
"102 458 OFFCURVE",
"91 407 OFFCURVE",
"121 408 CURVE",
"143 409 OFFCURVE",
"202 450 OFFCURVE",
"225 451 CURVE",
"246 452 OFFCURVE",
"261 441 OFFCURVE",
"261 426 CURVE",
"261 418 OFFCURVE",
"179 366 OFFCURVE",
"182 322 CURVE",
"184 294 OFFCURVE",
"267 279 OFFCURVE",
"267 220 CURVE",
"267 197 OFFCURVE",
"230 178 OFFCURVE",
"213 178 CURVE",
"141 178 OFFCURVE",
"119 176 OFFCURVE",
"77 117 CURVE",
"35 58 OFFCURVE",
"50 30 OFFCURVE",
"37 28 CURVE",
"24 26 OFFCURVE",
"26 94 OFFCURVE",
"85 173 CURVE",
"109 206 OFFCURVE",
"187 221 OFFCURVE",
"189 239 CURVE",
"192 280 OFFCURVE",
"153 286 OFFCURVE",
"151 310 CURVE",
"150 333 OFFCURVE",
"183 378 OFFCURVE",
"176 382 CURVE",
"156 394 OFFCURVE",
"129 334 OFFCURVE",
"107 334 CURVE",
"86 334 OFFCURVE",
"56 367 OFFCURVE",
"56 388 CURVE",
"56 411 OFFCURVE",
"74 458 OFFCURVE",
"88 458 CURVE"
);
}
);
width = 749;
}
);
unicode = 305D;
},
{
glyphname = "zo-hira";
lastChange = "2019-12-07 17:45:36 +0000";
layers = (
{
layerId = "1305C52C-0BD1-483E-A343-C05F3AFF2931";
paths = (
{
closed = 1;
nodes = (
"81 445 LINE",
"91 444 OFFCURVE",
"92 400 OFFCURVE",
"117 402 CURVE",
"140 404 OFFCURVE",
"203 447 OFFCURVE",
"225 447 CURVE",
"239 447 OFFCURVE",
"249 442 OFFCURVE",
"249 430 CURVE",
"250 410 OFFCURVE",
"172 381 OFFCURVE",
"173 318 CURVE",
"174 280 OFFCURVE",
"265 275 OFFCURVE",
"264 216 CURVE",
"264 187 OFFCURVE",
"222 178 OFFCURVE",
"201 177 CURVE",
"53 173 OFFCURVE",
"30 36 OFFCURVE",
"30 36 CURVE",
"30 36 OFFCURVE",
"27 125 OFFCURVE",
"88 178 CURVE",
"119 205 OFFCURVE",
"188 222 OFFCURVE",
"188 241 CURVE",
"188 268 OFFCURVE",
"148 285 OFFCURVE",
"147 309 CURVE",
"146 334 OFFCURVE",
"180 390 OFFCURVE",
"180 390 CURVE",
"180 390 OFFCURVE",
"148 377 OFFCURVE",
"133 362 CURVE",
"124 354 OFFCURVE",
"119 333 OFFCURVE",
"109 333 CURVE",
"87 333 OFFCURVE",
"48 361 OFFCURVE",
"47 381 CURVE",
"47 400 OFFCURVE",
"69 447 OFFCURVE",
"81 445 CURVE"
);
},
{
closed = 1;
nodes = (
"321 792 LINE",
"335 797 OFFCURVE",
"375 781 OFFCURVE",
"393 771 CURVE",
"410 762 OFFCURVE",
"431 751 OFFCURVE",
"429 732 CURVE",
"425 705 OFFCURVE",
"386 707 OFFCURVE",
"324 638 CURVE",
"302 612 OFFCURVE",
"263 557 OFFCURVE",
"263 557 CURVE",
"263 557 OFFCURVE",
"332 565 OFFCURVE",
"366 527 CURVE",
"391 498 OFFCURVE",
"419 456 OFFCURVE",
"403 337 CURVE",
"367 70 OFFCURVE",
"507 24 OFFCURVE",
"529 20 CURVE",
"632 2 OFFCURVE",
"721 68 OFFCURVE",
"721 68 CURVE",
"721 68 OFFCURVE",
"624 -48 OFFCURVE",
"536 -46 CURVE",
"419 -43 OFFCURVE",
"326 64 OFFCURVE",
"330 171 CURVE",
"332 249 OFFCURVE",
"357 348 OFFCURVE",
"359 405 CURVE",
"362 496 OFFCURVE",
"314 522 OFFCURVE",
"284 527 CURVE",
"223 536 OFFCURVE",
"198 460 OFFCURVE",
"176 459 CURVE",
"168 459 OFFCURVE",
"161 472 OFFCURVE",
"161 480 CURVE",
"159 521 OFFCURVE",
"211 547 OFFCURVE",
"211 547 CURVE",
"211 547 OFFCURVE",
"257 596 OFFCURVE",
"278 623 CURVE",
"300 651 OFFCURVE",
"340 695 OFFCURVE",
"341 716 CURVE",
"341 742 OFFCURVE",
"325 740 OFFCURVE",
"322 753 CURVE",
"319 765 OFFCURVE",
"310 788 OFFCURVE",
"321 792 CURVE"
);
},
{
closed = 1;
nodes = (
"383 622 LINE",
"391 626 OFFCURVE",
"411 593 OFFCURVE",
"433 593 CURVE",
"454 592 OFFCURVE",
"488 624 OFFCURVE",
"512 624 CURVE",
"538 623 OFFCURVE",
"576 585 OFFCURVE",
"577 554 CURVE",
"577 532 OFFCURVE",
"539 510 OFFCURVE",
"523 509 CURVE",
"508 509 OFFCURVE",
"485 518 OFFCURVE",
"485 528 CURVE",
"485 541 OFFCURVE",
"525 553 OFFCURVE",
"525 567 CURVE",
"525 577 OFFCURVE",
"517 591 OFFCURVE",
"502 590 CURVE",
"466 590 OFFCURVE",
"445 536 OFFCURVE",
"424 536 CURVE",
"396 536 OFFCURVE",
"374 618 OFFCURVE",
"383 622 CURVE"
);
}
);
width = 751;
}
);
unicode = 305E;
},
{
glyphname = "ta-hira";
lastChange = "2019-10-05 16:22:02 +0000";
layers = (
{
layerId = "1305C52C-0BD1-483E-A343-C05F3AFF2931";
paths = (
{
closed = 1;
nodes = (
"261 799 OFFCURVE",
"368 734 OFFCURVE",
"392 712 CURVE",
"406 700 OFFCURVE",
"409 679 OFFCURVE",
"405 668 CURVE",
"398 648 OFFCURVE",
"372 657 OFFCURVE",
"365 645 CURVE",
"354 628 OFFCURVE",
"346 574 OFFCURVE",
"345 546 CURVE",
"343 491 OFFCURVE",
"339 301 OFFCURVE",
"339 301 CURVE",
"339 301 OFFCURVE",
"415 355 OFFCURVE",
"446 383 CURVE",
"494 425 OFFCURVE",
"504 451 OFFCURVE",
"514 478 CURVE",
"525 506 OFFCURVE",
"496 532 OFFCURVE",
"506 543 CURVE",
"518 557 OFFCURVE",
"569 537 OFFCURVE",
"591 523 CURVE",
"610 510 OFFCURVE",
"628 479 OFFCURVE",
"627 461 CURVE",
"623 411 OFFCURVE",
"583 423 OFFCURVE",
"562 414 CURVE",
"532 400 OFFCURVE",
"501 374 OFFCURVE",
"470 346 CURVE",
"416 298 OFFCURVE",
"340 266 OFFCURVE",
"340 266 CURVE",
"340 266 OFFCURVE",
"341 55 OFFCURVE",
"340 5 CURVE",
"340 -2 OFFCURVE",
"351 -12 OFFCURVE",
"350 -26 CURVE",
"350 -30 OFFCURVE",
"352 -68 OFFCURVE",
"342 -69 CURVE",
"331 -71 OFFCURVE",
"302 -52 OFFCURVE",
"293 -39 CURVE",
"284 -27 OFFCURVE",
"286 -2 OFFCURVE",
"287 10 CURVE",
"288 20 OFFCURVE",
"302 27 OFFCURVE",
"302 36 CURVE",
"303 78 OFFCURVE",
"308 255 OFFCURVE",
"308 255 CURVE",
"308 255 OFFCURVE",
"268 237 OFFCURVE",
"249 230 CURVE",
"229 223 OFFCURVE",
"184 204 OFFCURVE",
"184 213 CURVE",
"183 220 OFFCURVE",
"216 233 OFFCURVE",
"248 250 CURVE",
"277 265 OFFCURVE",
"308 286 OFFCURVE",
"308 286 CURVE",
"308 340 LINE",
"308 340 OFFCURVE",
"293 337 OFFCURVE",
"290 334 CURVE",
"285 329 OFFCURVE",
"279 328 OFFCURVE",
"266 327 CURVE",
"234 323 OFFCURVE",
"198 330 OFFCURVE",
"193 316 CURVE",
"182 289 OFFCURVE",
"182 270 OFFCURVE",
"140 210 CURVE",
"116 176 OFFCURVE",
"63 110 OFFCURVE",
"59 111 CURVE",
"54 113 OFFCURVE",
"103 186 OFFCURVE",
"119 217 CURVE",
"133 244 OFFCURVE",
"158 310 OFFCURVE",
"158 310 CURVE",
"158 310 OFFCURVE",
"113 292 OFFCURVE",
"97 284 CURVE",
"78 276 OFFCURVE",
"58 253 OFFCURVE",
"46 251 CURVE",
"36 249 OFFCURVE",
"29 267 OFFCURVE",
"30 277 CURVE",
"31 309 OFFCURVE",
"48 313 OFFCURVE",
"54 324 CURVE",
"68 352 OFFCURVE",
"109 441 OFFCURVE",
"116 441 CURVE",
"123 440 OFFCURVE",
"113 396 OFFCURVE",
"110 377 CURVE",
"107 362 OFFCURVE",
"95 334 OFFCURVE",
"95 334 CURVE",
"166 377 LINE",
"166 377 OFFCURVE",
"166 426 OFFCURVE",
"161 455 CURVE",
"157 483 OFFCURVE",
"118 520 OFFCURVE",
"113 538 CURVE",
"109 556 OFFCURVE",
"115 580 OFFCURVE",
"131 580 CURVE",
"150 580 OFFCURVE",
"210 552 OFFCURVE",
"228 535 CURVE",
"241 523 OFFCURVE",
"236 495 OFFCURVE",
"233 484 CURVE",
"232 479 OFFCURVE",
"216 474 OFFCURVE",
"216 468 CURVE",
"215 454 OFFCURVE",
"216 397 OFFCURVE",
"216 397 CURVE",
"216 397 OFFCURVE",
"241 409 OFFCURVE",
"260 406 CURVE",
"277 404 OFFCURVE",
"308 367 OFFCURVE",
"308 367 CURVE",
"308 367 OFFCURVE",
"307 573 OFFCURVE",
"304 642 CURVE",
"303 681 OFFCURVE",
"290 684 OFFCURVE",
"275 708 CURVE",
"263 725 OFFCURVE",
"262 749 OFFCURVE",
"243 759 CURVE",
"235 763 OFFCURVE",
"235 782 OFFCURVE",
"243 787 CURVE"
);
}
);
width = 657;
}
);
unicode = 305F;
},
{
glyphname = "da-hira";
lastChange = "2019-12-07 17:46:45 +0000";
layers = (
{
layerId = "1305C52C-0BD1-483E-A343-C05F3AFF2931";
paths = (
{
closed = 1;
nodes = (
"119 442 LINE",
"119 442 OFFCURVE",
"108 398 OFFCURVE",
"103 380 CURVE",
"99 363 OFFCURVE",
"91 330 OFFCURVE",
"91 330 CURVE",
"91 330 OFFCURVE",
"127 345 OFFCURVE",
"147 358 CURVE",
"172 372 OFFCURVE",
"212 415 OFFCURVE",
"239 416 CURVE",
"266 416 OFFCURVE",
"309 391 OFFCURVE",
"309 365 CURVE",
"309 350 OFFCURVE",
"279 335 OFFCURVE",
"268 334 CURVE",
"256 334 OFFCURVE",
"238 340 OFFCURVE",
"227 340 CURVE",
"201 339 OFFCURVE",
"106 299 OFFCURVE",
"81 282 CURVE",
"72 275 OFFCURVE",
"62 262 OFFCURVE",
"54 262 CURVE",
"45 261 OFFCURVE",
"30 272 OFFCURVE",
"30 282 CURVE",
"29 310 OFFCURVE",
"51 313 OFFCURVE",
"59 329 CURVE",
"69 347 OFFCURVE",
"119 442 OFFCURVE",
"119 442 CURVE"
);
},
{
closed = 1;
nodes = (
"123 572 LINE",
"145 587 OFFCURVE",
"183 563 OFFCURVE",
"202 554 CURVE",
"218 546 OFFCURVE",
"238 529 OFFCURVE",
"238 514 CURVE",
"238 501 OFFCURVE",
"221 490 OFFCURVE",
"219 475 CURVE",
"214 440 OFFCURVE",
"201 343 OFFCURVE",
"179 290 CURVE",
"154 233 OFFCURVE",
"70 131 OFFCURVE",
"70 131 CURVE",
"70 131 OFFCURVE",
"146 262 OFFCURVE",
"160 318 CURVE",
"172 363 OFFCURVE",
"172 424 OFFCURVE",
"170 460 CURVE",
"169 484 OFFCURVE",
"130 516 OFFCURVE",
"122 534 CURVE",
"117 544 OFFCURVE",
"114 566 OFFCURVE",
"123 572 CURVE"
);
},
{
closed = 1;
nodes = (
"251 796 LINE",
"256 799 OFFCURVE",
"270 784 OFFCURVE",
"280 779 CURVE",
"299 770 OFFCURVE",
"342 751 OFFCURVE",
"363 736 CURVE",
"380 724 OFFCURVE",
"405 700 OFFCURVE",
"404 686 CURVE",
"404 673 OFFCURVE",
"379 665 OFFCURVE",
"370 652 CURVE",
"353 630 OFFCURVE",
"344 591 OFFCURVE",
"343 547 CURVE",
"342 441 OFFCURVE",
"341 113 OFFCURVE",
"343 18 CURVE",
"344 5 OFFCURVE",
"354 -7 OFFCURVE",
"355 -21 CURVE",
"356 -35 OFFCURVE",
"356 -66 OFFCURVE",
"344 -65 CURVE",
"333 -65 OFFCURVE",
"295 -32 OFFCURVE",
"294 -2 CURVE",
"293 15 OFFCURVE",
"307 39 OFFCURVE",
"308 57 CURVE",
"311 159 OFFCURVE",
"314 509 OFFCURVE",
"313 615 CURVE",
"312 707 OFFCURVE",
"263 732 OFFCURVE",
"251 761 CURVE",
"247 770 OFFCURVE",
"246 794 OFFCURVE",
"251 796 CURVE"
);
},
{
closed = 1;
nodes = (
"509 557 LINE",
"521 563 OFFCURVE",
"572 537 OFFCURVE",
"598 517 CURVE",
"617 502 OFFCURVE",
"632 479 OFFCURVE",
"630 461 CURVE",
"628 434 OFFCURVE",
"581 431 OFFCURVE",
"556 417 CURVE",
"505 387 OFFCURVE",
"464 345 OFFCURVE",
"412 315 CURVE",
"277 236 OFFCURVE",
"197 229 OFFCURVE",
"197 229 CURVE",
"197 229 OFFCURVE",
"323 293 OFFCURVE",
"381 338 CURVE",
"438 381 OFFCURVE",
"521 458 OFFCURVE",
"522 503 CURVE",
"523 522 OFFCURVE",
"499 550 OFFCURVE",
"509 557 CURVE"
);
},
{
closed = 1;
nodes = (
"444 675 LINE",
"453 681 OFFCURVE",
"473 646 OFFCURVE",
"491 647 CURVE",
"512 648 OFFCURVE",
"549 680 OFFCURVE",
"574 680 CURVE",
"601 680 OFFCURVE",
"632 633 OFFCURVE",
"631 608 CURVE",
"631 589 OFFCURVE",
"606 566 OFFCURVE",
"591 566 CURVE",
"574 566 OFFCURVE",
"546 572 OFFCURVE",
"546 581 CURVE",
"547 592 OFFCURVE",
"585 611 OFFCURVE",
"585 624 CURVE",
"585 635 OFFCURVE",
"573 647 OFFCURVE",
"560 647 CURVE",
"534 646 OFFCURVE",
"497 594 OFFCURVE",
"485 594 CURVE",
"457 594 OFFCURVE",
"436 671 OFFCURVE",
"444 675 CURVE"
);
}
);
width = 661;
}
);
unicode = 3060;
},
{
glyphname = "ti-hira";
lastChange = "2019-10-05 16:23:46 +0000";
layers = (
{
layerId = "1305C52C-0BD1-483E-A343-C05F3AFF2931";
paths = (
{
closed = 1;
nodes = (
"30 45 OFFCURVE",
"98 85 OFFCURVE",
"125 114 CURVE SMOOTH",
"202 194 OFFCURVE",
"204 281 OFFCURVE",
"204 281 CURVE SMOOTH",
"204 281 OFFCURVE",
"169 267 OFFCURVE",
"154 259 CURVE",
"143 252 OFFCURVE",
"137 237 OFFCURVE",
"125 232 CURVE SMOOTH",
"110 226 OFFCURVE",
"80 218 OFFCURVE",
"72 229 CURVE",
"41 268 OFFCURVE",
"99 348 OFFCURVE",
"119 387 CURVE SMOOTH",
"136 418 OFFCURVE",
"185 481 OFFCURVE",
"185 481 CURVE SMOOTH",
"185 481 OFFCURVE",
"175 539 OFFCURVE",
"190 545 CURVE",
"226 556 OFFCURVE",
"232 529 OFFCURVE",
"256 520 CURVE",
"276 511 OFFCURVE",
"308 489 OFFCURVE",
"307 473 CURVE",
"304 449 OFFCURVE",
"272 439 OFFCURVE",
"270 419 CURVE SMOOTH",
"268 399 OFFCURVE",
"266 360 OFFCURVE",
"266 360 CURVE",
"335 397 LINE",
"335 397 OFFCURVE",
"335 488 OFFCURVE",
"342 533 CURVE SMOOTH",
"350 576 OFFCURVE",
"364 621 OFFCURVE",
"371 654 CURVE SMOOTH",
"378 689 OFFCURVE",
"346 718 OFFCURVE",
"356 733 CURVE SMOOTH",
"377 766 OFFCURVE",
"473 678 OFFCURVE",
"492 651 CURVE SMOOTH",
"503 636 OFFCURVE",
"501 605 OFFCURVE",
"493 596 CURVE SMOOTH",
"485 587 OFFCURVE",
"437 602 OFFCURVE",
"421 592 CURVE",
"403 579 OFFCURVE",
"389 546 OFFCURVE",
"382 519 CURVE SMOOTH",
"375 490 OFFCURVE",
"376 420 OFFCURVE",
"376 420 CURVE SMOOTH",
"376 420 OFFCURVE",
"436 453 OFFCURVE",
"447 472 CURVE SMOOTH",
"457 489 OFFCURVE",
"418 524 OFFCURVE",
"441 539 CURVE",
"455 549 OFFCURVE",
"528 493 OFFCURVE",
"548 474 CURVE SMOOTH",
"561 462 OFFCURVE",
"563 425 OFFCURVE",
"554 405 CURVE SMOOTH",
"545 386 OFFCURVE",
"516 383 OFFCURVE",
"506 388 CURVE SMOOTH",
"492 395 OFFCURVE",
"482 410 OFFCURVE",
"465 403 CURVE",
"446 396 OFFCURVE",
"385 368 OFFCURVE",
"385 368 CURVE SMOOTH",
"385 368 OFFCURVE",
"371 269 OFFCURVE",
"461 174 CURVE SMOOTH",
"494 140 OFFCURVE",
"588 82 OFFCURVE",
"634 72 CURVE SMOOTH",
"665 65 OFFCURVE",
"722 66 OFFCURVE",
"722 66 CURVE SMOOTH",
"722 66 OFFCURVE",
"686 34 OFFCURVE",
"668 28 CURVE SMOOTH",
"645 21 OFFCURVE",
"609 18 OFFCURVE",
"576 24 CURVE SMOOTH",
"524 34 OFFCURVE",
"453 102 OFFCURVE",
"412 153 CURVE SMOOTH",
"352 228 OFFCURVE",
"342 344 OFFCURVE",
"342 344 CURVE",
"255 306 LINE",
"255 306 OFFCURVE",
"249 217 OFFCURVE",
"204 144 CURVE SMOOTH",
"175 97 OFFCURVE",
"124 46 OFFCURVE",
"76 38 CURVE SMOOTH",
"61 36 OFFCURVE",
"30 45 OFFCURVE",
"30 45 CURVE SMOOTH"
);
},
{
closed = 1;
nodes = (
"137 295 OFFCURVE",
"218 339 OFFCURVE",
"218 339 CURVE SMOOTH",
"218 339 OFFCURVE",
"221 403 OFFCURVE",
"218 431 CURVE SMOOTH",
"217 444 OFFCURVE",
"214 463 OFFCURVE",
"202 464 CURVE",
"188 466 OFFCURVE",
"107 319 OFFCURVE",
"122 306 CURVE"
);
}
);
width = 752;
}
);
unicode = 3061;
},
{
glyphname = "tu-hira";
lastChange = "2019-10-08 15:59:25 +0000";
layers = (
{
layerId = "1305C52C-0BD1-483E-A343-C05F3AFF2931";
paths = (
{
closed = 1;
nodes = (
"30 335 OFFCURVE",
"59 374 OFFCURVE",
"83 403 CURVE SMOOTH",
"127 455 OFFCURVE",
"242 565 OFFCURVE",
"289 612 CURVE SMOOTH",
"316 638 OFFCURVE",
"346 689 OFFCURVE",
"345 715 CURVE SMOOTH",
"344 739 OFFCURVE",
"318 776 OFFCURVE",
"330 786 CURVE",
"341 793 OFFCURVE",
"398 758 OFFCURVE",
"413 736 CURVE SMOOTH",
"428 714 OFFCURVE",
"428 668 OFFCURVE",
"416 647 CURVE SMOOTH",
"387 594 OFFCURVE",
"301 558 OFFCURVE",
"294 535 CURVE SMOOTH",
"291 525 OFFCURVE",
"328 518 OFFCURVE",
"330 489 CURVE SMOOTH",
"332 459 OFFCURVE",
"309 465 OFFCURVE",
"309 442 CURVE SMOOTH",
"309 422 OFFCURVE",
"309 380 OFFCURVE",
"308 380 CURVE SMOOTH",
"308 380 OFFCURVE",
"362 402 OFFCURVE",
"423 396 CURVE SMOOTH",
"516 386 OFFCURVE",
"549 323 OFFCURVE",
"549 299 CURVE SMOOTH",
"550 239 OFFCURVE",
"478 209 OFFCURVE",
"441 209 CURVE SMOOTH",
"394 208 OFFCURVE",
"355 219 OFFCURVE",
"356 229 CURVE SMOOTH",
"357 244 OFFCURVE",
"453 237 OFFCURVE",
"454 293 CURVE SMOOTH",
"454 340 OFFCURVE",
"413 359 OFFCURVE",
"367 357 CURVE SMOOTH",
"346 356 OFFCURVE",
"309 343 OFFCURVE",
"309 343 CURVE SMOOTH",
"309 343 OFFCURVE",
"312 115 OFFCURVE",
"313 51 CURVE SMOOTH",
"313 23 OFFCURVE",
"335 -6 OFFCURVE",
"335 -31 CURVE SMOOTH",
"335 -51 OFFCURVE",
"312 -76 OFFCURVE",
"298 -77 CURVE",
"269 -77 OFFCURVE",
"252 -29 OFFCURVE",
"252 -6 CURVE SMOOTH",
"252 8 OFFCURVE",
"265 27 OFFCURVE",
"265 42 CURVE",
"267 98 OFFCURVE",
"268 329 OFFCURVE",
"268 329 CURVE SMOOTH",
"268 329 OFFCURVE",
"232 305 OFFCURVE",
"218 291 CURVE",
"195 266 OFFCURVE",
"154 198 OFFCURVE",
"101 198 CURVE SMOOTH",
"56 199 OFFCURVE",
"29 225 OFFCURVE",
"30 301 CURVE SMOOTH"
);
},
{
closed = 1;
nodes = (
"69 313 OFFCURVE",
"81 264 OFFCURVE",
"114 262 CURVE SMOOTH",
"138 260 OFFCURVE",
"169 305 OFFCURVE",
"192 326 CURVE SMOOTH",
"218 349 OFFCURVE",
"268 372 OFFCURVE",
"269 372 CURVE SMOOTH",
"269 372 OFFCURVE",
"268 497 OFFCURVE",
"253 503 CURVE",
"233 512 OFFCURVE",
"128 414 OFFCURVE",
"94 356 CURVE SMOOTH"
);
}
);
width = 579;
}
);
unicode = 3064;
},
{
glyphname = "te-hira";
lastChange = "2019-10-08 16:00:38 +0000";
layers = (
{
layerId = "1305C52C-0BD1-483E-A343-C05F3AFF2931";
paths = (
{
closed = 1;
nodes = (
"183 707 OFFCURVE",
"193 683 OFFCURVE",
"202 690 CURVE",
"219 703 OFFCURVE",
"226 738 OFFCURVE",
"251 762 CURVE",
"270 780 OFFCURVE",
"301 799 OFFCURVE",
"325 798 CURVE",
"369 798 OFFCURVE",
"393 750 OFFCURVE",
"393 737 CURVE",
"393 699 OFFCURVE",
"390 629 OFFCURVE",
"392 588 CURVE",
"392 564 OFFCURVE",
"422 521 OFFCURVE",
"470 500 CURVE",
"510 483 OFFCURVE",
"555 476 OFFCURVE",
"599 456 CURVE",
"626 443 OFFCURVE",
"659 412 OFFCURVE",
"657 371 CURVE",
"655 321 OFFCURVE",
"613 306 OFFCURVE",
"578 296 CURVE",
"525 279 OFFCURVE",
"463 252 OFFCURVE",
"405 209 CURVE",
"275 114 OFFCURVE",
"346 -52 OFFCURVE",
"336 -57 CURVE",
"325 -62 OFFCURVE",
"254 76 OFFCURVE",
"346 225 CURVE",
"409 326 OFFCURVE",
"548 364 OFFCURVE",
"546 388 CURVE",
"544 427 OFFCURVE",
"444 457 OFFCURVE",
"408 485 CURVE",
"380 508 OFFCURVE",
"360 550 OFFCURVE",
"360 588 CURVE",
"360 634 OFFCURVE",
"364 707 OFFCURVE",
"365 738 CURVE",
"365 750 OFFCURVE",
"349 769 OFFCURVE",
"320 768 CURVE",
"283 767 OFFCURVE",
"258 707 OFFCURVE",
"257 678 CURVE",
"257 659 OFFCURVE",
"264 643 OFFCURVE",
"263 628 CURVE",
"263 611 OFFCURVE",
"248 594 OFFCURVE",
"236 594 CURVE",
"221 593 OFFCURVE",
"175 636 OFFCURVE",
"173 647 CURVE",
"171 665 OFFCURVE",
"169 697 OFFCURVE",
"175 701 CURVE"
);
},
{
closed = 1;
nodes = (
"145 605 OFFCURVE",
"238 572 OFFCURVE",
"240 525 CURVE",
"241 510 OFFCURVE",
"219 502 OFFCURVE",
"219 487 CURVE",
"219 470 OFFCURVE",
"222 425 OFFCURVE",
"222 425 CURVE",
"222 425 OFFCURVE",
"282 436 OFFCURVE",
"309 397 CURVE",
"332 364 OFFCURVE",
"288 344 OFFCURVE",
"269 345 CURVE",
"248 346 OFFCURVE",
"218 345 OFFCURVE",
"206 335 CURVE",
"188 321 OFFCURVE",
"179 276 OFFCURVE",
"143 224 CURVE",
"119 190 OFFCURVE",
"62 125 OFFCURVE",
"55 129 CURVE",
"47 134 OFFCURVE",
"96 195 OFFCURVE",
"113 228 CURVE",
"129 258 OFFCURVE",
"161 318 OFFCURVE",
"157 324 CURVE",
"153 330 OFFCURVE",
"113 313 OFFCURVE",
"94 303 CURVE",
"77 293 OFFCURVE",
"58 265 OFFCURVE",
"48 265 CURVE",
"37 265 OFFCURVE",
"30 285 OFFCURVE",
"30 296 CURVE",
"30 327 OFFCURVE",
"50 329 OFFCURVE",
"59 349 CURVE",
"73 380 OFFCURVE",
"114 468 OFFCURVE",
"122 465 CURVE",
"138 459 OFFCURVE",
"90 348 OFFCURVE",
"98 343 CURVE",
"103 340 OFFCURVE",
"116 355 OFFCURVE",
"131 367 CURVE",
"148 378 OFFCURVE",
"168 398 OFFCURVE",
"168 398 CURVE",
"168 398 OFFCURVE",
"166 450 OFFCURVE",
"165 477 CURVE",
"164 494 OFFCURVE",
"130 522 OFFCURVE",
"120 542 CURVE",
"113 558 OFFCURVE",
"111 588 OFFCURVE",
"123 594 CURVE"
);
}
);
width = 687;
}
);
unicode = 3066;
},
{
glyphname = "to-hira";
lastChange = "2019-10-08 16:02:08 +0000";
layers = (
{
layerId = "1305C52C-0BD1-483E-A343-C05F3AFF2931";
paths = (
{
closed = 1;
nodes = (
"374 800 OFFCURVE",
"465 758 OFFCURVE",
"463 732 CURVE",
"462 714 OFFCURVE",
"406 672 OFFCURVE",
"358 627 CURVE",
"326 596 OFFCURVE",
"300 580 OFFCURVE",
"301 566 CURVE",
"301 554 OFFCURVE",
"354 577 OFFCURVE",
"389 534 CURVE",
"427 486 OFFCURVE",
"445 453 OFFCURVE",
"444 369 CURVE",
"443 327 OFFCURVE",
"431 260 OFFCURVE",
"433 215 CURVE",
"437 155 OFFCURVE",
"479 73 OFFCURVE",
"519 38 CURVE",
"607 -38 OFFCURVE",
"748 76 OFFCURVE",
"755 71 CURVE",
"772 57 OFFCURVE",
"649 -45 OFFCURVE",
"613 -51 CURVE",
"469 -74 OFFCURVE",
"377 30 OFFCURVE",
"360 136 CURVE",
"347 219 OFFCURVE",
"391 365 OFFCURVE",
"390 407 CURVE",
"390 454 OFFCURVE",
"365 524 OFFCURVE",
"305 521 CURVE",
"241 519 OFFCURVE",
"273 451 OFFCURVE",
"209 449 CURVE",
"184 448 OFFCURVE",
"187 480 OFFCURVE",
"201 508 CURVE",
"212 528 OFFCURVE",
"249 549 OFFCURVE",
"269 573 CURVE",
"297 608 OFFCURVE",
"373 692 OFFCURVE",
"372 715 CURVE",
"371 727 OFFCURVE",
"357 731 OFFCURVE",
"353 743 CURVE",
"350 754 OFFCURVE",
"345 776 OFFCURVE",
"357 785 CURVE"
);
},
{
closed = 1;
nodes = (
"140 451 OFFCURVE",
"239 392 OFFCURVE",
"241 378 CURVE",
"244 338 OFFCURVE",
"220 339 OFFCURVE",
"220 314 CURVE",
"220 296 OFFCURVE",
"219 255 OFFCURVE",
"219 255 CURVE",
"219 255 OFFCURVE",
"263 277 OFFCURVE",
"297 251 CURVE",
"312 239 OFFCURVE",
"315 210 OFFCURVE",
"308 200 CURVE",
"289 171 OFFCURVE",
"233 195 OFFCURVE",
"212 183 CURVE",
"184 167 OFFCURVE",
"179 122 OFFCURVE",
"141 69 CURVE",
"103 15 OFFCURVE",
"63 -33 OFFCURVE",
"57 -31 CURVE",
"51 -28 OFFCURVE",
"95 36 OFFCURVE",
"114 69 CURVE",
"131 100 OFFCURVE",
"165 161 OFFCURVE",
"157 166 CURVE",
"152 169 OFFCURVE",
"124 160 OFFCURVE",
"102 146 CURVE",
"79 131 OFFCURVE",
"63 109 OFFCURVE",
"52 108 CURVE",
"40 108 OFFCURVE",
"29 125 OFFCURVE",
"30 136 CURVE",
"34 168 OFFCURVE",
"54 175 OFFCURVE",
"62 192 CURVE",
"76 219 OFFCURVE",
"108 302 OFFCURVE",
"115 302 CURVE",
"125 302 OFFCURVE",
"120 258 OFFCURVE",
"114 240 CURVE",
"108 223 OFFCURVE",
"90 192 OFFCURVE",
"97 188 CURVE",
"109 182 OFFCURVE",
"167 236 OFFCURVE",
"167 236 CURVE",
"167 236 OFFCURVE",
"165 288 OFFCURVE",
"163 315 CURVE",
"162 339 OFFCURVE",
"135 358 OFFCURVE",
"123 375 CURVE",
"113 389 OFFCURVE",
"109 418 OFFCURVE",
"120 430 CURVE"
);
}
);
width = 787;
}
);
unicode = 3068;
},
{
glyphname = "na-hira";
lastChange = "2019-10-21 13:59:07 +0000";
layers = (
{
layerId = "1305C52C-0BD1-483E-A343-C05F3AFF2931";
paths = (
{
closed = 1;
nodes = (
"269 674 OFFCURVE",
"335 652 OFFCURVE",
"354 636 CURVE",
"371 623 OFFCURVE",
"413 588 OFFCURVE",
"409 568 CURVE",
"403 533 OFFCURVE",
"349 552 OFFCURVE",
"330 541 CURVE",
"280 514 OFFCURVE",
"255 485 OFFCURVE",
"217 451 CURVE",
"180 417 OFFCURVE",
"108 347 OFFCURVE",
"115 341 CURVE",
"123 335 OFFCURVE",
"205 410 OFFCURVE",
"270 430 CURVE",
"345 453 OFFCURVE",
"416 458 OFFCURVE",
"455 442 CURVE",
"518 417 OFFCURVE",
"565 363 OFFCURVE",
"563 283 CURVE",
"562 236 OFFCURVE",
"530 161 OFFCURVE",
"484 112 CURVE",
"461 88 OFFCURVE",
"376 22 OFFCURVE",
"246 26 CURVE",
"216 26 OFFCURVE",
"149 70 OFFCURVE",
"154 76 CURVE",
"161 85 OFFCURVE",
"271 85 OFFCURVE",
"306 92 CURVE",
"368 105 OFFCURVE",
"511 195 OFFCURVE",
"508 310 CURVE",
"507 370 OFFCURVE",
"476 420 OFFCURVE",
"383 418 CURVE",
"302 417 OFFCURVE",
"250 377 OFFCURVE",
"203 344 CURVE",
"159 314 OFFCURVE",
"103 248 OFFCURVE",
"100 214 CURVE",
"98 194 OFFCURVE",
"91 162 OFFCURVE",
"60 162 CURVE",
"43 162 OFFCURVE",
"27 192 OFFCURVE",
"31 238 CURVE",
"34 282 OFFCURVE",
"91 370 OFFCURVE",
"117 401 CURVE",
"195 498 OFFCURVE",
"294 585 OFFCURVE",
"286 610 CURVE",
"280 630 OFFCURVE",
"254 659 OFFCURVE",
"261 666 CURVE"
);
},
{
closed = 1;
nodes = (
"239 289 OFFCURVE",
"257 257 OFFCURVE",
"269 257 CURVE",
"291 257 OFFCURVE",
"337 322 OFFCURVE",
"353 318 CURVE",
"366 314 OFFCURVE",
"354 277 OFFCURVE",
"343 267 CURVE",
"330 254 OFFCURVE",
"320 233 OFFCURVE",
"314 216 CURVE",
"308 198 OFFCURVE",
"304 179 OFFCURVE",
"289 178 CURVE",
"273 176 OFFCURVE",
"237 229 OFFCURVE",
"227 247 CURVE",
"222 256 OFFCURVE",
"222 280 OFFCURVE",
"229 284 CURVE"
);
}
);
width = 593;
}
);
unicode = 306A;
},
{
glyphname = "ni-hira";
lastChange = "2019-10-21 13:59:47 +0000";
layers = (
{
layerId = "1305C52C-0BD1-483E-A343-C05F3AFF2931";
paths = (
{
closed = 1;
nodes = (
"88 351 OFFCURVE",
"114 345 OFFCURVE",
"122 344 CURVE",
"128 343 OFFCURVE",
"130 334 OFFCURVE",
"135 334 CURVE",
"144 333 OFFCURVE",
"173 372 OFFCURVE",
"180 366 CURVE",
"185 361 OFFCURVE",
"156 286 OFFCURVE",
"128 285 CURVE",
"122 285 OFFCURVE",
"76 326 OFFCURVE",
"83 342 CURVE"
);
},
{
closed = 1;
nodes = (
"242 797 OFFCURVE",
"287 792 OFFCURVE",
"306 785 CURVE",
"334 776 OFFCURVE",
"391 745 OFFCURVE",
"401 723 CURVE",
"407 708 OFFCURVE",
"404 692 OFFCURVE",
"398 683 CURVE",
"391 675 OFFCURVE",
"372 679 OFFCURVE",
"364 673 CURVE",
"356 667 OFFCURVE",
"347 655 OFFCURVE",
"347 645 CURVE",
"347 544 OFFCURVE",
"346 82 OFFCURVE",
"347 63 CURVE",
"348 30 OFFCURVE",
"374 1 OFFCURVE",
"373 -18 CURVE",
"372 -36 OFFCURVE",
"363 -48 OFFCURVE",
"351 -49 CURVE",
"335 -50 OFFCURVE",
"293 -16 OFFCURVE",
"293 10 CURVE",
"292 38 OFFCURVE",
"308 53 OFFCURVE",
"308 71 CURVE",
"308 174 OFFCURVE",
"313 533 OFFCURVE",
"311 645 CURVE",
"311 673 OFFCURVE",
"299 703 OFFCURVE",
"284 725 CURVE",
"270 744 OFFCURVE",
"237 776 OFFCURVE",
"239 786 CURVE"
);
},
{
closed = 1;
nodes = (
"537 578 OFFCURVE",
"587 505 OFFCURVE",
"588 463 CURVE",
"589 450 OFFCURVE",
"585 430 OFFCURVE",
"572 430 CURVE",
"557 429 OFFCURVE",
"534 454 OFFCURVE",
"514 452 CURVE",
"489 451 OFFCURVE",
"439 399 OFFCURVE",
"442 348 CURVE",
"448 245 OFFCURVE",
"544 191 OFFCURVE",
"595 174 CURVE",
"653 155 OFFCURVE",
"702 165 OFFCURVE",
"702 154 CURVE",
"703 136 OFFCURVE",
"573 136 OFFCURVE",
"478 198 CURVE",
"429 231 OFFCURVE",
"397 298 OFFCURVE",
"400 357 CURVE",
"404 438 OFFCURVE",
"453 516 OFFCURVE",
"493 542 CURVE",
"504 549 OFFCURVE",
"499 562 OFFCURVE",
"506 565 CURVE"
);
},
{
closed = 1;
nodes = (
"49 437 OFFCURVE",
"57 435 OFFCURVE",
"68 440 CURVE",
"95 451 OFFCURVE",
"119 526 OFFCURVE",
"187 525 CURVE",
"232 525 OFFCURVE",
"279 485 OFFCURVE",
"280 440 CURVE",
"280 392 OFFCURVE",
"246 304 OFFCURVE",
"205 257 CURVE",
"132 174 OFFCURVE",
"31 160 OFFCURVE",
"30 168 CURVE",
"28 174 OFFCURVE",
"121 219 OFFCURVE",
"170 276 CURVE",
"233 349 OFFCURVE",
"239 399 OFFCURVE",
"240 434 CURVE",
"240 456 OFFCURVE",
"228 489 OFFCURVE",
"196 488 CURVE",
"168 487 OFFCURVE",
"152 457 OFFCURVE",
"150 437 CURVE",
"148 417 OFFCURVE",
"148 393 OFFCURVE",
"140 382 CURVE",
"132 370 OFFCURVE",
"117 369 OFFCURVE",
"104 370 CURVE",
"86 372 OFFCURVE",
"56 388 OFFCURVE",
"49 401 CURVE",
"45 409 OFFCURVE",
"41 427 OFFCURVE",
"44 431 CURVE"
);
}
);
width = 732;
}
);
unicode = 306B;
},
{
glyphname = "nu-hira";
lastChange = "2019-10-21 14:06:02 +0000";
layers = (
{
layerId = "1305C52C-0BD1-483E-A343-C05F3AFF2931";
paths = (
{
closed = 1;
nodes = (
"70 364 OFFCURVE",
"96 362 OFFCURVE",
"106 360 CURVE",
"113 359 OFFCURVE",
"120 348 OFFCURVE",
"129 350 CURVE",
"139 351 OFFCURVE",
"166 386 OFFCURVE",
"173 378 CURVE",
"176 374 OFFCURVE",
"138 298 OFFCURVE",
"120 298 CURVE",
"111 297 OFFCURVE",
"65 335 OFFCURVE",
"68 353 CURVE"
);
},
{
closed = 1;
nodes = (
"275 799 OFFCURVE",
"284 789 OFFCURVE",
"293 783 CURVE",
"306 776 OFFCURVE",
"332 773 OFFCURVE",
"358 758 CURVE",
"395 736 OFFCURVE",
"411 710 OFFCURVE",
"410 686 CURVE",
"409 672 OFFCURVE",
"393 663 OFFCURVE",
"381 661 CURVE",
"364 658 OFFCURVE",
"338 670 OFFCURVE",
"337 644 CURVE",
"334 586 OFFCURVE",
"336 300 OFFCURVE",
"336 300 CURVE",
"336 300 OFFCURVE",
"480 345 OFFCURVE",
"532 360 CURVE",
"562 368 OFFCURVE",
"650 392 OFFCURVE",
"651 387 CURVE",
"653 379 OFFCURVE",
"570 349 OFFCURVE",
"539 337 CURVE",
"486 316 OFFCURVE",
"335 267 OFFCURVE",
"335 267 CURVE",
"335 267 OFFCURVE",
"335 141 OFFCURVE",
"335 95 CURVE",
"335 65 OFFCURVE",
"358 29 OFFCURVE",
"357 6 CURVE",
"356 -13 OFFCURVE",
"350 -43 OFFCURVE",
"328 -43 CURVE",
"316 -43 OFFCURVE",
"284 -5 OFFCURVE",
"283 15 CURVE",
"283 23 OFFCURVE",
"292 66 OFFCURVE",
"292 85 CURVE",
"293 123 OFFCURVE",
"294 253 OFFCURVE",
"294 253 CURVE",
"294 253 OFFCURVE",
"175 213 OFFCURVE",
"141 200 CURVE",
"130 196 OFFCURVE",
"121 168 OFFCURVE",
"100 163 CURVE",
"86 160 OFFCURVE",
"48 194 OFFCURVE",
"48 210 CURVE",
"48 221 OFFCURVE",
"41 242 OFFCURVE",
"51 243 CURVE",
"68 244 OFFCURVE",
"103 238 OFFCURVE",
"122 248 CURVE",
"144 259 OFFCURVE",
"163 287 OFFCURVE",
"181 310 CURVE",
"197 331 OFFCURVE",
"226 374 OFFCURVE",
"228 433 CURVE",
"229 466 OFFCURVE",
"216 496 OFFCURVE",
"193 497 CURVE",
"173 498 OFFCURVE",
"147 480 OFFCURVE",
"138 458 CURVE",
"132 441 OFFCURVE",
"141 419 OFFCURVE",
"130 395 CURVE",
"126 388 OFFCURVE",
"85 381 OFFCURVE",
"69 390 CURVE",
"43 404 OFFCURVE",
"27 434 OFFCURVE",
"31 443 CURVE",
"34 450 OFFCURVE",
"51 446 OFFCURVE",
"57 450 CURVE",
"82 467 OFFCURVE",
"118 541 OFFCURVE",
"182 541 CURVE",
"221 541 OFFCURVE",
"270 510 OFFCURVE",
"268 434 CURVE",
"267 382 OFFCURVE",
"235 333 OFFCURVE",
"227 322 CURVE",
"213 302 OFFCURVE",
"165 256 OFFCURVE",
"180 262 CURVE",
"197 268 OFFCURVE",
"295 290 OFFCURVE",
"295 290 CURVE",
"295 290 OFFCURVE",
"297 552 OFFCURVE",
"296 626 CURVE",
"295 661 OFFCURVE",
"291 696 OFFCURVE",
"284 718 CURVE",
"279 737 OFFCURVE",
"270 744 OFFCURVE",
"270 754 CURVE",
"270 766 OFFCURVE",
"262 788 OFFCURVE",
"268 793 CURVE"
);
}
);
width = 681;
}
);
unicode = 306C;
},
{
glyphname = "ne-hira";
lastChange = "2019-10-21 14:06:44 +0000";
layers = (
{
layerId = "1305C52C-0BD1-483E-A343-C05F3AFF2931";
paths = (
{
closed = 1;
nodes = (
"42 798 OFFCURVE",
"110 762 OFFCURVE",
"131 748 CURVE",
"148 738 OFFCURVE",
"162 714 OFFCURVE",
"162 699 CURVE",
"162 676 OFFCURVE",
"118 673 OFFCURVE",
"117 657 CURVE",
"115 628 OFFCURVE",
"115 535 OFFCURVE",
"115 535 CURVE",
"115 535 OFFCURVE",
"205 628 OFFCURVE",
"262 638 CURVE",
"335 652 OFFCURVE",
"386 623 OFFCURVE",
"407 587 CURVE",
"444 525 OFFCURVE",
"437 444 OFFCURVE",
"413 385 CURVE",
"390 326 OFFCURVE",
"320 272 OFFCURVE",
"267 235 CURVE",
"222 205 OFFCURVE",
"168 176 OFFCURVE",
"144 127 CURVE",
"76 -12 OFFCURVE",
"126 -65 OFFCURVE",
"117 -70 CURVE",
"108 -73 OFFCURVE",
"61 19 OFFCURVE",
"91 111 CURVE",
"118 192 OFFCURVE",
"175 246 OFFCURVE",
"209 273 CURVE",
"297 339 OFFCURVE",
"377 409 OFFCURVE",
"377 494 CURVE",
"378 567 OFFCURVE",
"328 590 OFFCURVE",
"276 589 CURVE",
"210 588 OFFCURVE",
"127 522 OFFCURVE",
"126 476 CURVE",
"126 436 OFFCURVE",
"125 386 OFFCURVE",
"125 366 CURVE",
"124 336 OFFCURVE",
"70 377 OFFCURVE",
"69 402 CURVE",
"68 421 OFFCURVE",
"70 427 OFFCURVE",
"70 439 CURVE",
"70 457 OFFCURVE",
"86 472 OFFCURVE",
"87 491 CURVE",
"88 528 OFFCURVE",
"88 620 OFFCURVE",
"87 668 CURVE",
"87 708 OFFCURVE",
"19 759 OFFCURVE",
"32 781 CURVE"
);
},
{
closed = 1;
nodes = (
"214 517 OFFCURVE",
"230 480 OFFCURVE",
"247 481 CURVE",
"270 482 OFFCURVE",
"304 528 OFFCURVE",
"312 523 CURVE",
"321 516 OFFCURVE",
"296 478 OFFCURVE",
"286 459 CURVE",
"277 443 OFFCURVE",
"285 388 OFFCURVE",
"260 379 CURVE",
"247 375 OFFCURVE",
"225 407 OFFCURVE",
"215 426 CURVE",
"205 447 OFFCURVE",
"191 498 OFFCURVE",
"199 505 CURVE"
);
}
);
width = 463;
}
);
unicode = 306D;
},
{
glyphname = "no-hira";
lastChange = "2019-10-21 14:07:38 +0000";
layers = (
{
layerId = "1305C52C-0BD1-483E-A343-C05F3AFF2931";
paths = (
{
closed = 1;
nodes = (
"131 428 OFFCURVE",
"148 394 OFFCURVE",
"168 395 CURVE",
"192 396 OFFCURVE",
"265 450 OFFCURVE",
"273 442 CURVE",
"283 434 OFFCURVE",
"249 408 OFFCURVE",
"243 388 CURVE",
"238 369 OFFCURVE",
"247 336 OFFCURVE",
"238 322 CURVE",
"229 307 OFFCURVE",
"198 302 OFFCURVE",
"182 309 CURVE",
"87 349 OFFCURVE",
"105 414 OFFCURVE",
"115 419 CURVE"
);
},
{
closed = 1;
nodes = (
"121 589 OFFCURVE",
"246 675 OFFCURVE",
"313 674 CURVE",
"399 672 OFFCURVE",
"453 615 OFFCURVE",
"454 530 CURVE",
"455 385 OFFCURVE",
"264 270 OFFCURVE",
"264 263 CURVE",
"265 255 OFFCURVE",
"352 217 OFFCURVE",
"392 191 CURVE",
"443 158 OFFCURVE",
"489 108 OFFCURVE",
"588 99 CURVE",
"707 87 OFFCURVE",
"807 138 OFFCURVE",
"812 126 CURVE",
"816 114 OFFCURVE",
"656 25 OFFCURVE",
"565 27 CURVE",
"470 29 OFFCURVE",
"421 78 OFFCURVE",
"370 125 CURVE",
"322 169 OFFCURVE",
"260 228 OFFCURVE",
"206 229 CURVE",
"142 230 OFFCURVE",
"103 145 OFFCURVE",
"79 143 CURVE",
"40 140 OFFCURVE",
"29 209 OFFCURVE",
"30 223 CURVE",
"31 236 OFFCURVE",
"67 227 OFFCURVE",
"85 228 CURVE",
"108 229 OFFCURVE",
"136 255 OFFCURVE",
"165 260 CURVE",
"189 265 OFFCURVE",
"241 269 OFFCURVE",
"241 269 CURVE",
"241 269 OFFCURVE",
"389 365 OFFCURVE",
"393 492 CURVE",
"395 548 OFFCURVE",
"361 628 OFFCURVE",
"306 628 CURVE",
"253 629 OFFCURVE",
"219 602 OFFCURVE",
"219 566 CURVE",
"220 549 OFFCURVE",
"235 532 OFFCURVE",
"235 517 CURVE",
"235 500 OFFCURVE",
"213 485 OFFCURVE",
"199 484 CURVE",
"180 482 OFFCURVE",
"121 509 OFFCURVE",
"121 542 CURVE"
);
}
);
width = 842;
}
);
unicode = 306E;
},
{
glyphname = "ha-hira";
lastChange = "2019-09-27 14:58:05 +0000";
layers = (
{
layerId = "1305C52C-0BD1-483E-A343-C05F3AFF2931";
paths = (
{
closed = 1;
nodes = (
"28 -20 OFFCURVE",
"153 6 OFFCURVE",
"213 42 CURVE SMOOTH",
"310 100 OFFCURVE",
"318 160 OFFCURVE",
"318 160 CURVE SMOOTH",
"318 160 OFFCURVE",
"282 154 OFFCURVE",
"258 176 CURVE SMOOTH",
"173 254 OFFCURVE",
"264 345 OFFCURVE",
"279 359 CURVE SMOOTH",
"306 384 OFFCURVE",
"350 409 OFFCURVE",
"375 406 CURVE SMOOTH",
"424 400 OFFCURVE",
"434 370 OFFCURVE",
"434 370 CURVE SMOOTH",
"434 370 OFFCURVE",
"448 370 OFFCURVE",
"449 378 CURVE SMOOTH",
"451 396 OFFCURVE",
"402 430 OFFCURVE",
"387 460 CURVE SMOOTH",
"364 507 OFFCURVE",
"360 563 OFFCURVE",
"360 563 CURVE SMOOTH",
"360 563 OFFCURVE",
"289 512 OFFCURVE",
"253 496 CURVE SMOOTH",
"212 478 OFFCURVE",
"119 440 OFFCURVE",
"118 457 CURVE SMOOTH",
"117 472 OFFCURVE",
"228 516 OFFCURVE",
"315 590 CURVE SMOOTH",
"359 627 OFFCURVE",
"422 676 OFFCURVE",
"441 711 CURVE SMOOTH",
"448 724 OFFCURVE",
"440 777 OFFCURVE",
"443 791 CURVE SMOOTH",
"444 796 OFFCURVE",
"456 796 OFFCURVE",
"460 792 CURVE SMOOTH",
"463 789 OFFCURVE",
"465 773 OFFCURVE",
"468 769 CURVE SMOOTH",
"482 750 OFFCURVE",
"540 708 OFFCURVE",
"552 684 CURVE SMOOTH",
"558 672 OFFCURVE",
"553 647 OFFCURVE",
"545 639 CURVE SMOOTH",
"527 621 OFFCURVE",
"494 646 OFFCURVE",
"474 640 CURVE SMOOTH",
"447 632 OFFCURVE",
"391 585 OFFCURVE",
"391 585 CURVE SMOOTH",
"391 585 OFFCURVE",
"382 535 OFFCURVE",
"408 498 CURVE SMOOTH",
"415 488 OFFCURVE",
"440 458 OFFCURVE",
"472 447 CURVE SMOOTH",
"490 441 OFFCURVE",
"524 452 OFFCURVE",
"536 445 CURVE SMOOTH",
"547 439 OFFCURVE",
"553 415 OFFCURVE",
"547 405 CURVE SMOOTH",
"539 391 OFFCURVE",
"494 386 OFFCURVE",
"479 363 CURVE SMOOTH",
"457 330 OFFCURVE",
"418 189 OFFCURVE",
"369 117 CURVE SMOOTH",
"343 79 OFFCURVE",
"264 27 OFFCURVE",
"225 6 CURVE SMOOTH",
"153 -33 OFFCURVE",
"32 -32 OFFCURVE",
"30 -26 CURVE SMOOTH"
);
},
{
closed = 1;
nodes = (
"276 273 OFFCURVE",
"272 237 OFFCURVE",
"290 226 CURVE SMOOTH",
"301 219 OFFCURVE",
"319 223 OFFCURVE",
"330 229 CURVE SMOOTH",
"361 246 OFFCURVE",
"364 266 OFFCURVE",
"371 288 CURVE SMOOTH",
"377 306 OFFCURVE",
"386 349 OFFCURVE",
"365 360 CURVE SMOOTH",
"355 365 OFFCURVE",
"338 361 OFFCURVE",
"326 353 CURVE SMOOTH",
"311 343 OFFCURVE",
"291 320 OFFCURVE",
"283 295 CURVE SMOOTH"
);
}
);
width = 585;
}
);
unicode = 306F;
},
{
glyphname = "hi-hira";
lastChange = "2019-10-21 14:10:45 +0000";
layers = (
{
layerId = "1305C52C-0BD1-483E-A343-C05F3AFF2931";
paths = (
{
closed = 1;
nodes = (
"29 39 OFFCURVE",
"63 44 OFFCURVE",
"74 53 CURVE SMOOTH",
"153 120 OFFCURVE",
"166 132 OFFCURVE",
"214 239 CURVE SMOOTH",
"261 347 OFFCURVE",
"263 435 OFFCURVE",
"263 435 CURVE SMOOTH",
"263 435 OFFCURVE",
"243 417 OFFCURVE",
"226 418 CURVE",
"212 418 OFFCURVE",
"196 458 OFFCURVE",
"197 479 CURVE",
"197 512 OFFCURVE",
"252 571 OFFCURVE",
"281 574 CURVE SMOOTH",
"323 578 OFFCURVE",
"328 504 OFFCURVE",
"328 504 CURVE SMOOTH",
"328 504 OFFCURVE",
"385 547 OFFCURVE",
"407 573 CURVE SMOOTH",
"434 603 OFFCURVE",
"471 651 OFFCURVE",
"473 673 CURVE",
"477 701 OFFCURVE",
"460 781 OFFCURVE",
"477 787 CURVE SMOOTH",
"493 793 OFFCURVE",
"532 761 OFFCURVE",
"551 740 CURVE SMOOTH",
"571 719 OFFCURVE",
"605 665 OFFCURVE",
"595 654 CURVE",
"584 643 OFFCURVE",
"554 656 OFFCURVE",
"538 651 CURVE SMOOTH",
"512 642 OFFCURVE",
"472 594 OFFCURVE",
"430 555 CURVE SMOOTH",
"374 503 OFFCURVE",
"328 468 OFFCURVE",
"328 468 CURVE SMOOTH",
"328 468 OFFCURVE",
"314 326 OFFCURVE",
"255 209 CURVE SMOOTH",
"205 112 OFFCURVE",
"105 27 OFFCURVE",
"75 23 CURVE SMOOTH",
"58 21 OFFCURVE",
"30 29 OFFCURVE",
"30 34 CURVE"
);
},
{
closed = 1;
nodes = (
"223 484 OFFCURVE",
"224 463 OFFCURVE",
"230 458 CURVE",
"241 448 OFFCURVE",
"267 469 OFFCURVE",
"267 469 CURVE SMOOTH",
"267 469 OFFCURVE",
"273 529 OFFCURVE",
"262 535 CURVE SMOOTH",
"255 539 OFFCURVE",
"233 509 OFFCURVE",
"228 496 CURVE SMOOTH"
);
},
{
closed = 1;
nodes = (
"365 452 OFFCURVE",
"400 405 OFFCURVE",
"414 405 CURVE",
"431 404 OFFCURVE",
"459 487 OFFCURVE",
"485 487 CURVE SMOOTH",
"517 487 OFFCURVE",
"569 430 OFFCURVE",
"570 387 CURVE SMOOTH",
"570 343 OFFCURVE",
"576 279 OFFCURVE",
"583 235 CURVE SMOOTH",
"596 158 OFFCURVE",
"668 66 OFFCURVE",
"724 60 CURVE SMOOTH",
"755 57 OFFCURVE",
"826 84 OFFCURVE",
"830 78 CURVE",
"834 70 OFFCURVE",
"750 21 OFFCURVE",
"711 21 CURVE SMOOTH",
"579 22 OFFCURVE",
"514 150 OFFCURVE",
"512 214 CURVE SMOOTH",
"510 282 OFFCURVE",
"510 358 OFFCURVE",
"510 397 CURVE SMOOTH",
"510 417 OFFCURVE",
"495 438 OFFCURVE",
"480 438 CURVE SMOOTH",
"443 438 OFFCURVE",
"446 315 OFFCURVE",
"405 311 CURVE SMOOTH",
"384 309 OFFCURVE",
"359 338 OFFCURVE",
"357 357 CURVE SMOOTH",
"354 385 OFFCURVE",
"355 395 OFFCURVE",
"353 409 CURVE",
"352 420 OFFCURVE",
"344 437 OFFCURVE",
"352 443 CURVE"
);
}
);
width = 860;
}
);
unicode = 3072;
},
{
glyphname = "hu-hira";
lastChange = "2019-10-21 14:11:39 +0000";
layers = (
{
layerId = "1305C52C-0BD1-483E-A343-C05F3AFF2931";
paths = (
{
closed = 1;
nodes = (
"27 186 OFFCURVE",
"91 213 OFFCURVE",
"130 251 CURVE SMOOTH",
"203 322 OFFCURVE",
"213 376 OFFCURVE",
"213 376 CURVE SMOOTH",
"213 376 OFFCURVE",
"142 365 OFFCURVE",
"138 401 CURVE SMOOTH",
"134 441 OFFCURVE",
"157 480 OFFCURVE",
"176 510 CURVE SMOOTH",
"194 538 OFFCURVE",
"226 579 OFFCURVE",
"250 581 CURVE SMOOTH",
"271 583 OFFCURVE",
"297 545 OFFCURVE",
"298 523 CURVE SMOOTH",
"299 499 OFFCURVE",
"292 447 OFFCURVE",
"292 447 CURVE",
"331 476 LINE",
"331 476 OFFCURVE",
"333 558 OFFCURVE",
"333 600 CURVE SMOOTH",
"333 639 OFFCURVE",
"325 679 OFFCURVE",
"318 710 CURVE SMOOTH",
"313 733 OFFCURVE",
"284 780 OFFCURVE",
"293 788 CURVE SMOOTH",
"305 798 OFFCURVE",
"384 756 OFFCURVE",
"409 737 CURVE SMOOTH",
"424 726 OFFCURVE",
"445 702 OFFCURVE",
"445 681 CURVE SMOOTH",
"445 653 OFFCURVE",
"392 659 OFFCURVE",
"380 646 CURVE SMOOTH",
"364 628 OFFCURVE",
"366 497 OFFCURVE",
"366 497 CURVE SMOOTH",
"366 497 OFFCURVE",
"398 525 OFFCURVE",
"412 539 CURVE SMOOTH",
"425 552 OFFCURVE",
"448 580 OFFCURVE",
"448 594 CURVE SMOOTH",
"448 614 OFFCURVE",
"426 625 OFFCURVE",
"434 633 CURVE SMOOTH",
"440 639 OFFCURVE",
"492 629 OFFCURVE",
"509 616 CURVE SMOOTH",
"524 604 OFFCURVE",
"532 584 OFFCURVE",
"531 570 CURVE SMOOTH",
"530 554 OFFCURVE",
"498 550 OFFCURVE",
"486 542 CURVE SMOOTH",
"474 534 OFFCURVE",
"450 512 OFFCURVE",
"426 495 CURVE SMOOTH",
"396 474 OFFCURVE",
"365 456 OFFCURVE",
"365 456 CURVE",
"367 235 LINE",
"367 235 OFFCURVE",
"462 263 OFFCURVE",
"508 278 CURVE SMOOTH",
"567 297 OFFCURVE",
"705 353 OFFCURVE",
"708 340 CURVE SMOOTH",
"710 331 OFFCURVE",
"620 297 OFFCURVE",
"525 259 CURVE SMOOTH",
"445 227 OFFCURVE",
"368 191 OFFCURVE",
"368 191 CURVE SMOOTH",
"368 191 OFFCURVE",
"371 83 OFFCURVE",
"371 52 CURVE SMOOTH",
"371 37 OFFCURVE",
"393 20 OFFCURVE",
"394 2 CURVE SMOOTH",
"395 -15 OFFCURVE",
"384 -46 OFFCURVE",
"366 -46 CURVE SMOOTH",
"352 -46 OFFCURVE",
"319 -9 OFFCURVE",
"318 10 CURVE SMOOTH",
"317 26 OFFCURVE",
"327 40 OFFCURVE",
"327 57 CURVE SMOOTH",
"327 84 OFFCURVE",
"332 177 OFFCURVE",
"332 177 CURVE SMOOTH",
"332 177 OFFCURVE",
"323 171 OFFCURVE",
"316 168 CURVE SMOOTH",
"309 165 OFFCURVE",
"306 135 OFFCURVE",
"290 136 CURVE SMOOTH",
"266 137 OFFCURVE",
"231 167 OFFCURVE",
"228 197 CURVE SMOOTH",
"226 220 OFFCURVE",
"243 261 OFFCURVE",
"255 261 CURVE SMOOTH",
"269 261 OFFCURVE",
"272 226 OFFCURVE",
"284 220 CURVE SMOOTH",
"297 214 OFFCURVE",
"330 225 OFFCURVE",
"330 225 CURVE",
"334 439 LINE",
"334 439 OFFCURVE",
"299 418 OFFCURVE",
"281 397 CURVE SMOOTH",
"263 376 OFFCURVE",
"240 320 OFFCURVE",
"193 265 CURVE SMOOTH",
"118 177 OFFCURVE",
"35 166 OFFCURVE",
"30 178 CURVE SMOOTH"
);
},
{
closed = 1;
nodes = (
"163 390 OFFCURVE",
"223 406 OFFCURVE",
"235 420 CURVE SMOOTH",
"247 434 OFFCURVE",
"250 462 OFFCURVE",
"250 486 CURVE SMOOTH",
"250 504 OFFCURVE",
"254 536 OFFCURVE",
"234 537 CURVE SMOOTH",
"215 538 OFFCURVE",
"160 452 OFFCURVE",
"162 413 CURVE SMOOTH"
);
}
);
width = 738;
}
);
unicode = 3075;
},
{
glyphname = "he-hira";
lastChange = "2019-10-21 14:12:18 +0000";
layers = (
{
layerId = "1305C52C-0BD1-483E-A343-C05F3AFF2931";
paths = (
{
closed = 1;
nodes = (
"30 330 OFFCURVE",
"64 325 OFFCURVE",
"83 338 CURVE SMOOTH",
"107 355 OFFCURVE",
"136 370 OFFCURVE",
"158 390 CURVE SMOOTH",
"193 422 OFFCURVE",
"235 471 OFFCURVE",
"235 471 CURVE SMOOTH",
"235 471 OFFCURVE",
"152 475 OFFCURVE",
"153 528 CURVE SMOOTH",
"154 601 OFFCURVE",
"249 642 OFFCURVE",
"285 639 CURVE SMOOTH",
"342 634 OFFCURVE",
"336 572 OFFCURVE",
"336 572 CURVE SMOOTH",
"336 572 OFFCURVE",
"365 599 OFFCURVE",
"389 637 CURVE SMOOTH",
"403 659 OFFCURVE",
"420 687 OFFCURVE",
"426 705 CURVE SMOOTH",
"436 736 OFFCURVE",
"421 739 OFFCURVE",
"418 753 CURVE SMOOTH",
"415 766 OFFCURVE",
"412 784 OFFCURVE",
"419 789 CURVE SMOOTH",
"431 797 OFFCURVE",
"471 777 OFFCURVE",
"490 765 CURVE SMOOTH",
"509 753 OFFCURVE",
"533 733 OFFCURVE",
"533 717 CURVE SMOOTH",
"533 691 OFFCURVE",
"482 695 OFFCURVE",
"466 679 CURVE SMOOTH",
"442 655 OFFCURVE",
"396 593 OFFCURVE",
"353 547 CURVE SMOOTH",
"302 492 OFFCURVE",
"257 433 OFFCURVE",
"257 433 CURVE SMOOTH",
"257 433 OFFCURVE",
"386 431 OFFCURVE",
"435 409 CURVE SMOOTH",
"468 394 OFFCURVE",
"515 347 OFFCURVE",
"515 314 CURVE SMOOTH",
"515 277 OFFCURVE",
"475 235 OFFCURVE",
"439 215 CURVE SMOOTH",
"391 188 OFFCURVE",
"285 143 OFFCURVE",
"284 103 CURVE SMOOTH",
"282 29 OFFCURVE",
"390 -23 OFFCURVE",
"386 -28 CURVE SMOOTH",
"379 -36 OFFCURVE",
"246 26 OFFCURVE",
"250 105 CURVE SMOOTH",
"256 220 OFFCURVE",
"432 251 OFFCURVE",
"433 313 CURVE SMOOTH",
"434 362 OFFCURVE",
"363 399 OFFCURVE",
"312 400 CURVE SMOOTH",
"232 402 OFFCURVE",
"126 301 OFFCURVE",
"124 280 CURVE SMOOTH",
"123 271 OFFCURVE",
"128 260 OFFCURVE",
"127 251 CURVE SMOOTH",
"125 236 OFFCURVE",
"99 208 OFFCURVE",
"84 209 CURVE SMOOTH",
"65 210 OFFCURVE",
"30 268 OFFCURVE",
"30 287 CURVE SMOOTH"
);
},
{
closed = 1;
nodes = (
"187 505 OFFCURVE",
"221 511 OFFCURVE",
"232 511 CURVE SMOOTH",
"274 511 OFFCURVE",
"277 562 OFFCURVE",
"277 572 CURVE SMOOTH",
"277 590 OFFCURVE",
"277 603 OFFCURVE",
"261 603 CURVE SMOOTH",
"237 603 OFFCURVE",
"197 581 OFFCURVE",
"192 544 CURVE SMOOTH"
);
}
);
width = 563;
}
);
unicode = 3078;
},
{
glyphname = "ho-hira";
lastChange = "2019-10-21 14:32:53 +0000";
layers = (
{
layerId = "1305C52C-0BD1-483E-A343-C05F3AFF2931";
paths = (
{
closed = 1;
nodes = (
"30 85 OFFCURVE",
"95 134 OFFCURVE",
"131 170 CURVE SMOOTH",
"170 209 OFFCURVE",
"210 280 OFFCURVE",
"210 280 CURVE SMOOTH",
"210 280 OFFCURVE",
"175 275 OFFCURVE",
"151 285 CURVE SMOOTH",
"125 296 OFFCURVE",
"133 341 OFFCURVE",
"141 363 CURVE SMOOTH",
"156 404 OFFCURVE",
"234 465 OFFCURVE",
"261 465 CURVE SMOOTH",
"283 465 OFFCURVE",
"296 436 OFFCURVE",
"297 420 CURVE SMOOTH",
"298 398 OFFCURVE",
"287 345 OFFCURVE",
"287 345 CURVE SMOOTH",
"287 345 OFFCURVE",
"321 359 OFFCURVE",
"335 368 CURVE SMOOTH",
"349 377 OFFCURVE",
"377 399 OFFCURVE",
"377 399 CURVE SMOOTH",
"377 399 OFFCURVE",
"379 441 OFFCURVE",
"378 461 CURVE SMOOTH",
"377 487 OFFCURVE",
"352 536 OFFCURVE",
"297 535 CURVE SMOOTH",
"248 534 OFFCURVE",
"230 470 OFFCURVE",
"193 464 CURVE SMOOTH",
"174 461 OFFCURVE",
"180 505 OFFCURVE",
"186 521 CURVE SMOOTH",
"195 544 OFFCURVE",
"227 553 OFFCURVE",
"245 572 CURVE SMOOTH",
"274 602 OFFCURVE",
"338 673 OFFCURVE",
"357 700 CURVE SMOOTH",
"364 710 OFFCURVE",
"361 727 OFFCURVE",
"358 735 CURVE SMOOTH",
"355 743 OFFCURVE",
"344 741 OFFCURVE",
"342 748 CURVE SMOOTH",
"339 757 OFFCURVE",
"330 781 OFFCURVE",
"341 788 CURVE SMOOTH",
"359 799 OFFCURVE",
"420 776 OFFCURVE",
"438 763 CURVE SMOOTH",
"449 755 OFFCURVE",
"448 727 OFFCURVE",
"439 717 CURVE SMOOTH",
"426 702 OFFCURVE",
"386 671 OFFCURVE",
"351 640 CURVE SMOOTH",
"318 610 OFFCURVE",
"289 579 OFFCURVE",
"289 579 CURVE SMOOTH",
"289 579 OFFCURVE",
"347 579 OFFCURVE",
"388 538 CURVE SMOOTH",
"412 514 OFFCURVE",
"422 433 OFFCURVE",
"422 433 CURVE SMOOTH",
"422 433 OFFCURVE",
"466 458 OFFCURVE",
"464 474 CURVE SMOOTH",
"462 487 OFFCURVE",
"438 508 OFFCURVE",
"445 514 CURVE SMOOTH",
"455 522 OFFCURVE",
"498 511 OFFCURVE",
"514 499 CURVE SMOOTH",
"530 487 OFFCURVE",
"546 454 OFFCURVE",
"533 436 CURVE SMOOTH",
"528 429 OFFCURVE",
"511 428 OFFCURVE",
"497 419 CURVE SMOOTH",
"467 400 OFFCURVE",
"425 373 OFFCURVE",
"425 373 CURVE SMOOTH",
"425 373 OFFCURVE",
"414 275 OFFCURVE",
"417 212 CURVE SMOOTH",
"419 172 OFFCURVE",
"470 68 OFFCURVE",
"577 51 CURVE SMOOTH",
"651 39 OFFCURVE",
"739 116 OFFCURVE",
"747 106 CURVE SMOOTH",
"756 95 OFFCURVE",
"640 -19 OFFCURVE",
"517 -6 CURVE SMOOTH",
"449 1 OFFCURVE",
"349 100 OFFCURVE",
"349 198 CURVE SMOOTH",
"349 248 OFFCURVE",
"368 348 OFFCURVE",
"368 348 CURVE SMOOTH",
"368 348 OFFCURVE",
"339 331 OFFCURVE",
"324 324 CURVE SMOOTH",
"309 317 OFFCURVE",
"277 303 OFFCURVE",
"277 303 CURVE SMOOTH",
"277 303 OFFCURVE",
"230 221 OFFCURVE",
"184 175 CURVE SMOOTH",
"109 100 OFFCURVE",
"30 85 OFFCURVE",
"30 85 CURVE SMOOTH"
);
},
{
closed = 1;
nodes = (
"201 304 OFFCURVE",
"226 317 OFFCURVE",
"236 345 CURVE SMOOTH",
"245 369 OFFCURVE",
"250 419 OFFCURVE",
"233 419 CURVE SMOOTH",
"223 419 OFFCURVE",
"197 400 OFFCURVE",
"181 377 CURVE SMOOTH",
"160 346 OFFCURVE",
"151 309 OFFCURVE",
"179 306 CURVE SMOOTH"
);
}
);
width = 777;
}
);
unicode = 307B;
},
{
glyphname = "ma-hira";
lastChange = "2019-10-27 17:08:23 +0000";
layers = (
{
layerId = "1305C52C-0BD1-483E-A343-C05F3AFF2931";
paths = (
{
closed = 1;
nodes = (
"32 269 OFFCURVE",
"25 296 OFFCURVE",
"37 300 CURVE",
"55 305 OFFCURVE",
"82 301 OFFCURVE",
"98 309 CURVE SMOOTH",
"127 324 OFFCURVE",
"179 355 OFFCURVE",
"210 387 CURVE SMOOTH",
"273 450 OFFCURVE",
"291 498 OFFCURVE",
"282 507 CURVE",
"275 513 OFFCURVE",
"246 494 OFFCURVE",
"237 483 CURVE",
"232 476 OFFCURVE",
"236 453 OFFCURVE",
"226 446 CURVE",
"217 438 OFFCURVE",
"166 448 OFFCURVE",
"134 471 CURVE",
"119 481 OFFCURVE",
"98 508 OFFCURVE",
"102 516 CURVE",
"105 525 OFFCURVE",
"144 526 OFFCURVE",
"155 522 CURVE",
"161 519 OFFCURVE",
"167 515 OFFCURVE",
"173 513 CURVE",
"196 509 OFFCURVE",
"260 528 OFFCURVE",
"273 537 CURVE SMOOTH",
"298 555 OFFCURVE",
"298 569 OFFCURVE",
"336 573 CURVE",
"355 574 OFFCURVE",
"379 568 OFFCURVE",
"379 568 CURVE SMOOTH",
"379 568 OFFCURVE",
"379 629 OFFCURVE",
"379 658 CURVE",
"378 683 OFFCURVE",
"353 706 OFFCURVE",
"345 725 CURVE SMOOTH",
"337 744 OFFCURVE",
"333 782 OFFCURVE",
"341 787 CURVE SMOOTH",
"352 794 OFFCURVE",
"366 778 OFFCURVE",
"376 776 CURVE SMOOTH",
"385 774 OFFCURVE",
"395 776 OFFCURVE",
"402 770 CURVE",
"418 758 OFFCURVE",
"462 717 OFFCURVE",
"474 699 CURVE",
"480 689 OFFCURVE",
"485 669 OFFCURVE",
"474 663 CURVE SMOOTH",
"462 656 OFFCURVE",
"434 649 OFFCURVE",
"433 634 CURVE SMOOTH",
"432 604 OFFCURVE",
"430 540 OFFCURVE",
"429 501 CURVE SMOOTH",
"428 465 OFFCURVE",
"425 392 OFFCURVE",
"425 392 CURVE SMOOTH",
"425 392 OFFCURVE",
"489 409 OFFCURVE",
"519 418 CURVE SMOOTH",
"546 426 OFFCURVE",
"629 459 OFFCURVE",
"631 455 CURVE",
"634 448 OFFCURVE",
"580 411 OFFCURVE",
"523 392 CURVE SMOOTH",
"491 382 OFFCURVE",
"423 359 OFFCURVE",
"423 359 CURVE SMOOTH",
"423 359 OFFCURVE",
"399 202 OFFCURVE",
"363 118 CURVE SMOOTH",
"297 -39 OFFCURVE",
"176 -54 OFFCURVE",
"175 -44 CURVE SMOOTH",
"172 -19 OFFCURVE",
"253 -24 OFFCURVE",
"324 130 CURVE SMOOTH",
"345 174 OFFCURVE",
"370 347 OFFCURVE",
"370 347 CURVE SMOOTH",
"370 347 OFFCURVE",
"294 322 OFFCURVE",
"258 307 CURVE SMOOTH",
"220 292 OFFCURVE",
"165 272 OFFCURVE",
"148 253 CURVE",
"139 244 OFFCURVE",
"139 217 OFFCURVE",
"126 214 CURVE SMOOTH",
"107 210 OFFCURVE",
"95 211 OFFCURVE",
"75 213 CURVE SMOOTH",
"57 215 OFFCURVE",
"35 235 OFFCURVE",
"33 251 CURVE"
);
},
{
closed = 1;
nodes = (
"195 332 OFFCURVE",
"262 346 OFFCURVE",
"291 354 CURVE SMOOTH",
"318 361 OFFCURVE",
"374 382 OFFCURVE",
"374 382 CURVE SMOOTH",
"374 382 OFFCURVE",
"376 419 OFFCURVE",
"377 439 CURVE SMOOTH",
"378 462 OFFCURVE",
"379 516 OFFCURVE",
"379 516 CURVE SMOOTH",
"379 516 OFFCURVE",
"372 515 OFFCURVE",
"358 505 CURVE",
"342 492 OFFCURVE",
"314 454 OFFCURVE",
"285 421 CURVE SMOOTH",
"266 400 OFFCURVE",
"195 332 OFFCURVE",
"195 332 CURVE SMOOTH"
);
}
);
width = 661;
}
);
unicode = 307E;
},
{
glyphname = "mi-hira";
lastChange = "2019-10-30 12:45:37 +0000";
layers = (
{
layerId = "1305C52C-0BD1-483E-A343-C05F3AFF2931";
paths = (
{
closed = 1;
nodes = (
"334 798 OFFCURVE",
"373 796 OFFCURVE",
"389 788 CURVE",
"413 777 OFFCURVE",
"460 737 OFFCURVE",
"466 715 CURVE",
"470 700 OFFCURVE",
"461 684 OFFCURVE",
"452 676 CURVE",
"443 668 OFFCURVE",
"421 670 OFFCURVE",
"413 662 CURVE",
"404 655 OFFCURVE",
"402 643 OFFCURVE",
"401 633 CURVE",
"400 606 OFFCURVE",
"400 507 OFFCURVE",
"400 507 CURVE",
"400 507 OFFCURVE",
"455 530 OFFCURVE",
"458 525 CURVE",
"463 515 OFFCURVE",
"408 483 OFFCURVE",
"408 483 CURVE",
"408 483 OFFCURVE",
"413 470 OFFCURVE",
"421 457 CURVE",
"425 449 OFFCURVE",
"435 444 OFFCURVE",
"442 442 CURVE",
"450 440 OFFCURVE",
"460 437 OFFCURVE",
"466 433 CURVE",
"478 427 OFFCURVE",
"506 413 OFFCURVE",
"506 387 CURVE",
"505 362 OFFCURVE",
"487 343 OFFCURVE",
"471 342 CURVE",
"455 341 OFFCURVE",
"449 335 OFFCURVE",
"430 335 CURVE",
"407 334 OFFCURVE",
"373 296 OFFCURVE",
"368 233 CURVE",
"361 149 OFFCURVE",
"451 71 OFFCURVE",
"510 51 CURVE",
"557 36 OFFCURVE",
"641 27 OFFCURVE",
"639 19 CURVE",
"638 10 OFFCURVE",
"509 12 OFFCURVE",
"457 35 CURVE",
"376 72 OFFCURVE",
"306 169 OFFCURVE",
"308 243 CURVE",
"310 370 OFFCURVE",
"396 398 OFFCURVE",
"394 430 CURVE",
"394 437 OFFCURVE",
"389 444 OFFCURVE",
"386 451 CURVE",
"383 457 OFFCURVE",
"377 470 OFFCURVE",
"377 470 CURVE",
"377 470 OFFCURVE",
"298 434 OFFCURVE",
"261 415 CURVE",
"184 375 OFFCURVE",
"146 340 OFFCURVE",
"123 308 CURVE",
"101 276 OFFCURVE",
"46 331 OFFCURVE",
"37 351 CURVE",
"33 359 OFFCURVE",
"25 378 OFFCURVE",
"35 383 CURVE",
"48 389 OFFCURVE",
"90 381 OFFCURVE",
"115 388 CURVE",
"149 399 OFFCURVE",
"200 423 OFFCURVE",
"242 441 CURVE",
"285 460 OFFCURVE",
"370 495 OFFCURVE",
"370 495 CURVE",
"370 495 OFFCURVE",
"368 577 OFFCURVE",
"368 615 CURVE",
"367 649 OFFCURVE",
"368 688 OFFCURVE",
"368 716 CURVE",
"368 742 OFFCURVE",
"321 774 OFFCURVE",
"327 786 CURVE"
);
},
{
closed = 1;
nodes = (
"102 576 OFFCURVE",
"124 575 OFFCURVE",
"137 575 CURVE",
"149 574 OFFCURVE",
"170 568 OFFCURVE",
"183 570 CURVE",
"207 572 OFFCURVE",
"245 588 OFFCURVE",
"264 602 CURVE",
"278 613 OFFCURVE",
"276 642 OFFCURVE",
"306 643 CURVE",
"329 643 OFFCURVE",
"359 613 OFFCURVE",
"359 598 CURVE",
"359 573 OFFCURVE",
"327 568 OFFCURVE",
"316 555 CURVE",
"299 537 OFFCURVE",
"290 518 OFFCURVE",
"253 485 CURVE",
"215 451 OFFCURVE",
"164 426 OFFCURVE",
"160 430 CURVE",
"156 435 OFFCURVE",
"193 461 OFFCURVE",
"222 491 CURVE",
"262 531 OFFCURVE",
"264 554 OFFCURVE",
"262 559 CURVE",
"259 563 OFFCURVE",
"237 547 OFFCURVE",
"216 526 CURVE",
"199 508 OFFCURVE",
"195 488 OFFCURVE",
"181 485 CURVE",
"167 482 OFFCURVE",
"90 557 OFFCURVE",
"97 567 CURVE"
);
}
);
width = 669;
}
);
unicode = 307F;
},
{
glyphname = "mu-hira";
lastChange = "2019-10-30 13:36:30 +0000";
layers = (
{
layerId = "1305C52C-0BD1-483E-A343-C05F3AFF2931";
paths = (
{
closed = 1;
nodes = (
"51 531 OFFCURVE",
"78 498 OFFCURVE",
"99 498 CURVE",
"133 498 OFFCURVE",
"173 537 OFFCURVE",
"195 538 CURVE",
"215 538 OFFCURVE",
"234 517 OFFCURVE",
"234 500 CURVE",
"234 475 OFFCURVE",
"209 474 OFFCURVE",
"200 463 CURVE",
"187 449 OFFCURVE",
"171 429 OFFCURVE",
"154 416 CURVE",
"136 402 OFFCURVE",
"99 378 OFFCURVE",
"99 378 CURVE",
"99 378 OFFCURVE",
"122 412 OFFCURVE",
"134 427 CURVE",
"150 445 OFFCURVE",
"176 479 OFFCURVE",
"167 488 CURVE",
"162 493 OFFCURVE",
"133 473 OFFCURVE",
"122 462 CURVE",
"111 451 OFFCURVE",
"107 424 OFFCURVE",
"97 423 CURVE",
"88 422 OFFCURVE",
"54 464 OFFCURVE",
"45 481 CURVE",
"38 492 OFFCURVE",
"32 520 OFFCURVE",
"40 525 CURVE"
);
},
{
closed = 1;
nodes = (
"310 798 OFFCURVE",
"335 775 OFFCURVE",
"348 770 CURVE",
"356 767 OFFCURVE",
"373 768 OFFCURVE",
"381 762 CURVE",
"394 753 OFFCURVE",
"428 722 OFFCURVE",
"428 691 CURVE",
"429 672 OFFCURVE",
"389 671 OFFCURVE",
"390 651 CURVE",
"390 609 OFFCURVE",
"385 443 OFFCURVE",
"385 443 CURVE",
"385 443 OFFCURVE",
"439 460 OFFCURVE",
"470 467 CURVE",
"503 474 OFFCURVE",
"585 493 OFFCURVE",
"585 493 CURVE",
"585 493 OFFCURVE",
"512 460 OFFCURVE",
"476 448 CURVE",
"443 436 OFFCURVE",
"384 411 OFFCURVE",
"384 411 CURVE",
"384 411 OFFCURVE",
"383 269 OFFCURVE",
"382 199 CURVE",
"380 120 OFFCURVE",
"382 -62 OFFCURVE",
"368 -63 CURVE",
"356 -64 OFFCURVE",
"345 121 OFFCURVE",
"341 197 CURVE",
"338 261 OFFCURVE",
"334 393 OFFCURVE",
"334 393 CURVE",
"334 393 OFFCURVE",
"251 362 OFFCURVE",
"219 349 CURVE",
"193 338 OFFCURVE",
"156 323 OFFCURVE",
"137 308 CURVE",
"120 295 OFFCURVE",
"111 259 OFFCURVE",
"97 257 CURVE",
"73 253 OFFCURVE",
"31 301 OFFCURVE",
"30 319 CURVE",
"29 337 OFFCURVE",
"44 361 OFFCURVE",
"53 363 CURVE",
"64 365 OFFCURVE",
"72 342 OFFCURVE",
"81 345 CURVE",
"110 351 OFFCURVE",
"159 369 OFFCURVE",
"200 383 CURVE",
"242 398 OFFCURVE",
"334 430 OFFCURVE",
"334 430 CURVE",
"334 430 OFFCURVE",
"329 614 OFFCURVE",
"329 662 CURVE",
"329 677 OFFCURVE",
"321 703 OFFCURVE",
"315 717 CURVE",
"311 728 OFFCURVE",
"302 737 OFFCURVE",
"300 748 CURVE",
"297 761 OFFCURVE",
"292 791 OFFCURVE",
"301 794 CURVE"
);
},
{
closed = 1;
nodes = (
"140 726 OFFCURVE",
"156 709 OFFCURVE",
"165 706 CURVE",
"172 703 OFFCURVE",
"184 701 OFFCURVE",
"189 697 CURVE",
"203 686 OFFCURVE",
"236 655 OFFCURVE",
"244 641 CURVE",
"251 630 OFFCURVE",
"251 601 OFFCURVE",
"225 599 CURVE",
"218 599 OFFCURVE",
"209 607 OFFCURVE",
"202 606 CURVE",
"186 601 OFFCURVE",
"136 564 OFFCURVE",
"127 571 CURVE",
"120 577 OFFCURVE",
"170 624 OFFCURVE",
"163 646 CURVE",
"156 666 OFFCURVE",
"142 684 OFFCURVE",
"137 697 CURVE",
"134 704 OFFCURVE",
"129 719 OFFCURVE",
"133 722 CURVE"
);
}
);
width = 615;
}
);
unicode = 3080;
},
{
glyphname = "me-hira";
lastChange = "2019-11-02 17:48:13 +0000";
layers = (
{
layerId = "1305C52C-0BD1-483E-A343-C05F3AFF2931";
paths = (
{
closed = 1;
nodes = (
"41 410 OFFCURVE",
"88 401 OFFCURVE",
"110 408 CURVE",
"191 434 OFFCURVE",
"517 570 OFFCURVE",
"523 558 CURVE",
"528 547 OFFCURVE",
"216 424 OFFCURVE",
"139 389 CURVE",
"111 376 OFFCURVE",
"111 349 OFFCURVE",
"96 343 CURVE",
"83 338 OFFCURVE",
"66 349 OFFCURVE",
"56 360 CURVE",
"45 370 OFFCURVE",
"24 395 OFFCURVE",
"32 403 CURVE"
);
},
{
closed = 1;
nodes = (
"338 796 OFFCURVE",
"349 762 OFFCURVE",
"349 750 CURVE",
"350 667 OFFCURVE",
"337 643 OFFCURVE",
"329 577 CURVE",
"322 515 OFFCURVE",
"322 486 OFFCURVE",
"327 445 CURVE",
"336 371 OFFCURVE",
"410 354 OFFCURVE",
"507 330 CURVE",
"537 323 OFFCURVE",
"571 282 OFFCURVE",
"568 251 CURVE",
"566 216 OFFCURVE",
"521 181 OFFCURVE",
"467 173 CURVE",
"400 163 OFFCURVE",
"279 89 OFFCURVE",
"262 24 CURVE",
"256 1 OFFCURVE",
"270 -82 OFFCURVE",
"264 -84 CURVE",
"254 -89 OFFCURVE",
"229 8 OFFCURVE",
"243 58 CURVE",
"255 101 OFFCURVE",
"300 149 OFFCURVE",
"338 175 CURVE",
"380 204 OFFCURVE",
"470 243 OFFCURVE",
"471 264 CURVE",
"474 299 OFFCURVE",
"371 317 OFFCURVE",
"334 346 CURVE",
"301 371 OFFCURVE",
"287 411 OFFCURVE",
"286 460 CURVE",
"285 516 OFFCURVE",
"312 627 OFFCURVE",
"319 682 CURVE",
"323 719 OFFCURVE",
"314 783 OFFCURVE",
"327 790 CURVE"
);
},
{
closed = 1;
nodes = (
"92 558 OFFCURVE",
"123 536 OFFCURVE",
"142 539 CURVE",
"165 543 OFFCURVE",
"212 566 OFFCURVE",
"227 578 CURVE",
"238 586 OFFCURVE",
"231 606 OFFCURVE",
"237 614 CURVE",
"244 621 OFFCURVE",
"261 623 OFFCURVE",
"271 622 CURVE",
"283 621 OFFCURVE",
"308 607 OFFCURVE",
"308 607 CURVE",
"299 550 LINE",
"299 550 OFFCURVE",
"286 554 OFFCURVE",
"280 550 CURVE",
"267 539 OFFCURVE",
"240 510 OFFCURVE",
"219 486 CURVE",
"199 463 OFFCURVE",
"137 424 OFFCURVE",
"136 425 CURVE",
"133 428 OFFCURVE",
"181 476 OFFCURVE",
"195 494 CURVE",
"206 510 OFFCURVE",
"227 538 OFFCURVE",
"221 545 CURVE",
"215 553 OFFCURVE",
"192 534 OFFCURVE",
"180 524 CURVE",
"167 514 OFFCURVE",
"159 486 OFFCURVE",
"144 480 CURVE",
"118 471 OFFCURVE",
"80 547 OFFCURVE",
"86 552 CURVE"
);
}
);
width = 598;
}
);
unicode = 3081;
},
{
glyphname = "mo-hira";
lastChange = "2019-11-07 14:51:14 +0000";
layers = (
{
layerId = "1305C52C-0BD1-483E-A343-C05F3AFF2931";
paths = (
{
closed = 1;
nodes = (
"33 285 OFFCURVE",
"85 274 OFFCURVE",
"101 283 CURVE SMOOTH",
"110 288 OFFCURVE",
"124 301 OFFCURVE",
"129 301 CURVE SMOOTH",
"134 301 OFFCURVE",
"132 286 OFFCURVE",
"138 287 CURVE SMOOTH",
"160 291 OFFCURVE",
"215 297 OFFCURVE",
"252 306 CURVE SMOOTH",
"300 318 OFFCURVE",
"423 355 OFFCURVE",
"423 355 CURVE SMOOTH",
"423 355 OFFCURVE",
"294 298 OFFCURVE",
"246 278 CURVE SMOOTH",
"212 264 OFFCURVE",
"163 245 OFFCURVE",
"136 232 CURVE SMOOTH",
"119 224 OFFCURVE",
"107 202 OFFCURVE",
"89 199 CURVE SMOOTH",
"71 196 OFFCURVE",
"29 234 OFFCURVE",
"30 247 CURVE SMOOTH"
);
},
{
closed = 1;
nodes = (
"89 452 OFFCURVE",
"102 474 OFFCURVE",
"109 475 CURVE SMOOTH",
"116 476 OFFCURVE",
"118 446 OFFCURVE",
"129 445 CURVE SMOOTH",
"144 444 OFFCURVE",
"185 455 OFFCURVE",
"207 464 CURVE SMOOTH",
"247 480 OFFCURVE",
"262 503 OFFCURVE",
"282 503 CURVE SMOOTH",
"303 503 OFFCURVE",
"321 466 OFFCURVE",
"320 457 CURVE SMOOTH",
"319 445 OFFCURVE",
"298 446 OFFCURVE",
"287 436 CURVE SMOOTH",
"272 422 OFFCURVE",
"249 400 OFFCURVE",
"229 382 CURVE SMOOTH",
"208 363 OFFCURVE",
"166 322 OFFCURVE",
"166 322 CURVE SMOOTH",
"166 322 OFFCURVE",
"190 364 OFFCURVE",
"201 383 CURVE SMOOTH",
"213 404 OFFCURVE",
"234 429 OFFCURVE",
"225 442 CURVE SMOOTH",
"219 451 OFFCURVE",
"192 424 OFFCURVE",
"180 411 CURVE SMOOTH",
"168 398 OFFCURVE",
"161 381 OFFCURVE",
"148 379 CURVE SMOOTH",
"136 377 OFFCURVE",
"117 394 OFFCURVE",
"106 404 CURVE SMOOTH",
"96 413 OFFCURVE",
"87 429 OFFCURVE",
"88 441 CURVE SMOOTH"
);
},
{
closed = 1;
nodes = (
"166 619 OFFCURVE",
"240 661 OFFCURVE",
"288 661 CURVE SMOOTH",
"325 661 OFFCURVE",
"359 625 OFFCURVE",
"359 625 CURVE SMOOTH",
"359 625 OFFCURVE",
"379 645 OFFCURVE",
"390 657 CURVE SMOOTH",
"405 673 OFFCURVE",
"421 704 OFFCURVE",
"422 720 CURVE SMOOTH",
"423 736 OFFCURVE",
"413 747 OFFCURVE",
"413 759 CURVE SMOOTH",
"413 771 OFFCURVE",
"411 789 OFFCURVE",
"420 792 CURVE SMOOTH",
"426 794 OFFCURVE",
"458 771 OFFCURVE",
"472 757 CURVE SMOOTH",
"484 745 OFFCURVE",
"496 727 OFFCURVE",
"493 710 CURVE SMOOTH",
"489 688 OFFCURVE",
"465 694 OFFCURVE",
"431 652 CURVE SMOOTH",
"417 635 OFFCURVE",
"380 602 OFFCURVE",
"380 602 CURVE SMOOTH",
"380 602 OFFCURVE",
"409 565 OFFCURVE",
"400 475 CURVE SMOOTH",
"394 413 OFFCURVE",
"370 309 OFFCURVE",
"371 228 CURVE SMOOTH",
"372 114 OFFCURVE",
"438 47 OFFCURVE",
"512 40 CURVE SMOOTH",
"572 34 OFFCURVE",
"705 113 OFFCURVE",
"714 105 CURVE SMOOTH",
"723 97 OFFCURVE",
"616 -10 OFFCURVE",
"495 -26 CURVE SMOOTH",
"402 -38 OFFCURVE",
"309 65 OFFCURVE",
"300 144 CURVE SMOOTH",
"291 224 OFFCURVE",
"318 357 OFFCURVE",
"333 428 CURVE SMOOTH",
"359 550 OFFCURVE",
"350 577 OFFCURVE",
"350 577 CURVE SMOOTH",
"350 577 OFFCURVE",
"302 550 OFFCURVE",
"271 542 CURVE SMOOTH",
"233 532 OFFCURVE",
"156 524 OFFCURVE",
"160 562 CURVE SMOOTH"
);
},
{
closed = 1;
nodes = (
"199 558 OFFCURVE",
"240 562 OFFCURVE",
"267 569 CURVE SMOOTH",
"304 579 OFFCURVE",
"339 604 OFFCURVE",
"339 604 CURVE SMOOTH",
"339 604 OFFCURVE",
"326 636 OFFCURVE",
"261 628 CURVE SMOOTH",
"219 623 OFFCURVE",
"194 581 OFFCURVE",
"196 572 CURVE SMOOTH"
);
}
);
width = 745;
}
);
unicode = 3082;
},
{
glyphname = "ya-hira";
lastChange = "2019-11-07 15:28:55 +0000";
layers = (
{
layerId = "1305C52C-0BD1-483E-A343-C05F3AFF2931";
paths = (
{
closed = 1;
nodes = (
"64 523 OFFCURVE",
"106 496 OFFCURVE",
"129 498 CURVE",
"170 502 OFFCURVE",
"213 537 OFFCURVE",
"239 538 CURVE",
"259 539 OFFCURVE",
"285 513 OFFCURVE",
"285 502 CURVE",
"284 482 OFFCURVE",
"247 483 OFFCURVE",
"235 471 CURVE",
"213 449 OFFCURVE",
"155 399 OFFCURVE",
"155 368 CURVE",
"156 338 OFFCURVE",
"186 348 OFFCURVE",
"196 357 CURVE",
"213 371 OFFCURVE",
"225 392 OFFCURVE",
"247 391 CURVE",
"268 390 OFFCURVE",
"286 363 OFFCURVE",
"285 350 CURVE",
"284 333 OFFCURVE",
"261 329 OFFCURVE",
"254 318 CURVE",
"241 296 OFFCURVE",
"212 232 OFFCURVE",
"182 196 CURVE",
"123 128 OFFCURVE",
"30 115 OFFCURVE",
"30 115 CURVE",
"30 115 OFFCURVE",
"132 171 OFFCURVE",
"160 208 CURVE",
"207 271 OFFCURVE",
"205 331 OFFCURVE",
"205 331 CURVE",
"205 331 OFFCURVE",
"170 321 OFFCURVE",
"153 322 CURVE",
"137 322 OFFCURVE",
"111 335 OFFCURVE",
"111 355 CURVE",
"112 401 OFFCURVE",
"166 463 OFFCURVE",
"166 463 CURVE",
"166 463 OFFCURVE",
"155 467 OFFCURVE",
"145 460 CURVE",
"133 452 OFFCURVE",
"122 432 OFFCURVE",
"112 432 CURVE",
"75 429 OFFCURVE",
"42 498 OFFCURVE",
"54 512 CURVE"
);
},
{
closed = 1;
nodes = (
"534 513 OFFCURVE",
"585 485 OFFCURVE",
"604 468 CURVE",
"621 454 OFFCURVE",
"637 427 OFFCURVE",
"636 410 CURVE",
"634 376 OFFCURVE",
"590 386 OFFCURVE",
"571 373 CURVE",
"540 351 OFFCURVE",
"501 319 OFFCURVE",
"448 283 CURVE",
"382 239 OFFCURVE",
"267 196 OFFCURVE",
"267 196 CURVE",
"267 196 OFFCURVE",
"377 270 OFFCURVE",
"424 309 CURVE",
"468 347 OFFCURVE",
"531 428 OFFCURVE",
"529 446 CURVE",
"526 464 OFFCURVE",
"503 494 OFFCURVE",
"520 505 CURVE"
);
},
{
closed = 1;
nodes = (
"264 793 OFFCURVE",
"311 768 OFFCURVE",
"339 752 CURVE",
"370 735 OFFCURVE",
"420 712 OFFCURVE",
"418 677 CURVE",
"417 660 OFFCURVE",
"388 654 OFFCURVE",
"374 642 CURVE",
"351 621 OFFCURVE",
"345 435 OFFCURVE",
"344 332 CURVE",
"344 226 OFFCURVE",
"348 73 OFFCURVE",
"351 13 CURVE",
"351 -1 OFFCURVE",
"357 -16 OFFCURVE",
"357 -30 CURVE",
"357 -45 OFFCURVE",
"357 -75 OFFCURVE",
"349 -77 CURVE",
"338 -79 OFFCURVE",
"297 -29 OFFCURVE",
"295 -11 CURVE",
"294 -1 OFFCURVE",
"304 13 OFFCURVE",
"305 24 CURVE",
"308 79 OFFCURVE",
"316 225 OFFCURVE",
"317 326 CURVE",
"318 436 OFFCURVE",
"319 579 OFFCURVE",
"317 649 CURVE",
"316 679 OFFCURVE",
"263 738 OFFCURVE",
"253 759 CURVE",
"249 767 OFFCURVE",
"245 779 OFFCURVE",
"253 785 CURVE"
);
}
);
width = 666;
}
);
unicode = 3084;
},
{
glyphname = "yu-hira";
lastChange = "2019-11-08 16:01:02 +0000";
layers = (
{
layerId = "1305C52C-0BD1-483E-A343-C05F3AFF2931";
paths = (
{
closed = 1;
nodes = (
"318 579 OFFCURVE",
"250 505 OFFCURVE",
"249 457 CURVE",
"248 428 OFFCURVE",
"261 400 OFFCURVE",
"287 402 CURVE",
"310 403 OFFCURVE",
"370 437 OFFCURVE",
"370 451 CURVE",
"370 461 OFFCURVE",
"360 468 OFFCURVE",
"361 476 CURVE",
"361 489 OFFCURVE",
"383 499 OFFCURVE",
"398 499 CURVE",
"419 498 OFFCURVE",
"489 470 OFFCURVE",
"489 447 CURVE",
"489 432 OFFCURVE",
"457 414 OFFCURVE",
"456 391 CURVE",
"454 337 OFFCURVE",
"393 205 OFFCURVE",
"313 124 CURVE",
"208 17 OFFCURVE",
"66 30 OFFCURVE",
"66 38 CURVE",
"66 51 OFFCURVE",
"166 38 OFFCURVE",
"257 120 CURVE",
"356 211 OFFCURVE",
"384 403 OFFCURVE",
"384 403 CURVE",
"384 403 OFFCURVE",
"311 361 OFFCURVE",
"282 362 CURVE",
"253 363 OFFCURVE",
"216 391 OFFCURVE",
"216 421 CURVE",
"216 477 OFFCURVE",
"273 566 OFFCURVE",
"273 566 CURVE",
"318 579 LINE"
);
},
{
closed = 1;
nodes = (
"233 770 OFFCURVE",
"295 756 OFFCURVE",
"320 742 CURVE",
"343 730 OFFCURVE",
"366 702 OFFCURVE",
"365 666 CURVE",
"365 652 OFFCURVE",
"350 638 OFFCURVE",
"329 639 CURVE",
"314 639 OFFCURVE",
"296 667 OFFCURVE",
"279 674 CURVE",
"265 680 OFFCURVE",
"236 678 OFFCURVE",
"235 684 CURVE",
"233 690 OFFCURVE",
"273 699 OFFCURVE",
"273 713 CURVE",
"272 728 OFFCURVE",
"220 756 OFFCURVE",
"227 763 CURVE"
);
},
{
closed = 1;
nodes = (
"42 610 OFFCURVE",
"83 575 OFFCURVE",
"106 572 CURVE",
"150 565 OFFCURVE",
"222 583 OFFCURVE",
"332 614 CURVE",
"409 636 OFFCURVE",
"575 680 OFFCURVE",
"580 665 CURVE",
"585 648 OFFCURVE",
"446 614 OFFCURVE",
"388 596 CURVE",
"323 576 OFFCURVE",
"240 554 OFFCURVE",
"198 536 CURVE",
"176 527 OFFCURVE",
"157 498 OFFCURVE",
"135 495 CURVE",
"113 491 OFFCURVE",
"85 507 OFFCURVE",
"66 522 CURVE",
"46 537 OFFCURVE",
"23 595 OFFCURVE",
"32 602 CURVE"
);
}
);
width = 610;
}
);
unicode = 3086;
},
{
glyphname = "yo-hira";
lastChange = "2019-11-08 16:01:54 +0000";
layers = (
{
layerId = "1305C52C-0BD1-483E-A343-C05F3AFF2931";
paths = (
{
closed = 1;
nodes = (
"160 649 OFFCURVE",
"199 623 OFFCURVE",
"222 626 CURVE",
"244 629 OFFCURVE",
"288 651 OFFCURVE",
"327 674 CURVE",
"370 699 OFFCURVE",
"383 723 OFFCURVE",
"418 722 CURVE",
"438 721 OFFCURVE",
"454 706 OFFCURVE",
"453 692 CURVE",
"451 668 OFFCURVE",
"400 668 OFFCURVE",
"344 595 CURVE",
"314 554 OFFCURVE",
"294 505 OFFCURVE",
"301 494 CURVE",
"307 484 OFFCURVE",
"343 497 OFFCURVE",
"352 521 CURVE",
"362 551 OFFCURVE",
"377 576 OFFCURVE",
"411 574 CURVE",
"433 573 OFFCURVE",
"461 553 OFFCURVE",
"461 529 CURVE",
"460 511 OFFCURVE",
"444 502 OFFCURVE",
"436 489 CURVE",
"419 461 OFFCURVE",
"379 397 OFFCURVE",
"350 359 CURVE",
"323 323 OFFCURVE",
"260 265 OFFCURVE",
"260 265 CURVE",
"260 265 OFFCURVE",
"322 233 OFFCURVE",
"353 215 CURVE",
"413 180 OFFCURVE",
"508 86 OFFCURVE",
"615 89 CURVE",
"679 91 OFFCURVE",
"804 136 OFFCURVE",
"810 124 CURVE",
"817 111 OFFCURVE",
"663 25 OFFCURVE",
"579 22 CURVE",
"477 22 OFFCURVE",
"420 82 OFFCURVE",
"366 123 CURVE",
"315 161 OFFCURVE",
"281 225 OFFCURVE",
"206 224 CURVE",
"130 223 OFFCURVE",
"120 147 OFFCURVE",
"71 144 CURVE",
"45 142 OFFCURVE",
"30 195 OFFCURVE",
"30 212 CURVE",
"29 223 OFFCURVE",
"35 231 OFFCURVE",
"42 232 CURVE",
"55 233 OFFCURVE",
"68 219 OFFCURVE",
"79 222 CURVE",
"90 224 OFFCURVE",
"141 255 OFFCURVE",
"175 262 CURVE",
"213 269 OFFCURVE",
"260 301 OFFCURVE",
"289 337 CURVE",
"366 438 OFFCURVE",
"361 482 OFFCURVE",
"361 482 CURVE",
"361 482 OFFCURVE",
"319 455 OFFCURVE",
"302 456 CURVE",
"282 456 OFFCURVE",
"262 478 OFFCURVE",
"260 498 CURVE",
"258 525 OFFCURVE",
"326 626 OFFCURVE",
"326 626 CURVE",
"326 626 OFFCURVE",
"287 595 OFFCURVE",
"272 579 CURVE",
"257 563 OFFCURVE",
"253 529 OFFCURVE",
"237 527 CURVE",
"220 526 OFFCURVE",
"190 551 OFFCURVE",
"175 569 CURVE",
"161 588 OFFCURVE",
"141 629 OFFCURVE",
"149 638 CURVE"
);
}
);
width = 840;
}
);
unicode = 3088;
},
{
glyphname = "ra-hira";
lastChange = "2019-09-27 15:00:12 +0000";
layers = (
{
layerId = "1305C52C-0BD1-483E-A343-C05F3AFF2931";
paths = (
{
closed = 1;
nodes = (
"103 479 OFFCURVE",
"269 546 OFFCURVE",
"269 546 CURVE SMOOTH",
"269 546 OFFCURVE",
"328 653 OFFCURVE",
"346 677 CURVE",
"355 688 OFFCURVE",
"348 712 OFFCURVE",
"348 712 CURVE SMOOTH",
"348 712 OFFCURVE",
"229 653 OFFCURVE",
"200 624 CURVE",
"183 609 OFFCURVE",
"156 599 OFFCURVE",
"133 611 CURVE",
"110 621 OFFCURVE",
"70 672 OFFCURVE",
"65 695 CURVE",
"58 713 OFFCURVE",
"54 732 OFFCURVE",
"68 736 CURVE",
"78 741 OFFCURVE",
"133 692 OFFCURVE",
"170 695 CURVE SMOOTH",
"209 698 OFFCURVE",
"314 737 OFFCURVE",
"345 754 CURVE SMOOTH",
"356 760 OFFCURVE",
"356 780 OFFCURVE",
"366 788 CURVE",
"377 795 OFFCURVE",
"403 799 OFFCURVE",
"415 795 CURVE",
"431 791 OFFCURVE",
"466 765 OFFCURVE",
"473 751 CURVE",
"477 741 OFFCURVE",
"465 718 OFFCURVE",
"457 707 CURVE",
"444 692 OFFCURVE",
"412 689 OFFCURVE",
"393 668 CURVE SMOOTH",
"369 643 OFFCURVE",
"314 552 OFFCURVE",
"314 552 CURVE SMOOTH",
"314 552 OFFCURVE",
"378 554 OFFCURVE",
"425 498 CURVE SMOOTH",
"487 423 OFFCURVE",
"471 378 OFFCURVE",
"467 321 CURVE SMOOTH",
"463 256 OFFCURVE",
"379 159 OFFCURVE",
"332 109 CURVE SMOOTH",
"291 65 OFFCURVE",
"210 17 OFFCURVE",
"185 12 CURVE",
"167 7 OFFCURVE",
"85 9 OFFCURVE",
"84 20 CURVE SMOOTH",
"83 28 OFFCURVE",
"132 30 OFFCURVE",
"153 40 CURVE SMOOTH",
"271 97 OFFCURVE",
"295 138 OFFCURVE",
"348 240 CURVE SMOOTH",
"378 297 OFFCURVE",
"392 343 OFFCURVE",
"380 430 CURVE SMOOTH",
"369 511 OFFCURVE",
"290 510 OFFCURVE",
"290 510 CURVE SMOOTH",
"290 510 OFFCURVE",
"214 415 OFFCURVE",
"175 373 CURVE SMOOTH",
"138 334 OFFCURVE",
"86 274 OFFCURVE",
"43 290 CURVE",
"21 300 OFFCURVE",
"32 353 OFFCURVE",
"42 375 CURVE"
);
},
{
closed = 1;
nodes = (
"75 332 OFFCURVE",
"118 369 OFFCURVE",
"157 405 CURVE SMOOTH",
"191 435 OFFCURVE",
"242 502 OFFCURVE",
"242 502 CURVE SMOOTH",
"242 502 OFFCURVE",
"174 468 OFFCURVE",
"132 431 CURVE SMOOTH",
"97 401 OFFCURVE",
"50 362 OFFCURVE",
"65 346 CURVE"
);
}
);
width = 504;
}
);
unicode = 3089;
},
{
glyphname = "ri-hira";
lastChange = "2019-11-10 15:50:35 +0000";
layers = (
{
layerId = "1305C52C-0BD1-483E-A343-C05F3AFF2931";
paths = (
{
closed = 1;
nodes = (
"142 385 OFFCURVE",
"211 377 OFFCURVE",
"240 368 CURVE",
"268 359 OFFCURVE",
"312 353 OFFCURVE",
"313 318 CURVE",
"313 295 OFFCURVE",
"273 272 OFFCURVE",
"261 274 CURVE",
"252 275 OFFCURVE",
"251 291 OFFCURVE",
"245 298 CURVE",
"237 307 OFFCURVE",
"223 321 OFFCURVE",
"210 330 CURVE",
"192 343 OFFCURVE",
"137 364 OFFCURVE",
"139 372 CURVE"
);
},
{
closed = 1;
nodes = (
"112 496 OFFCURVE",
"134 461 OFFCURVE",
"153 465 CURVE",
"229 482 OFFCURVE",
"241 526 OFFCURVE",
"270 531 CURVE",
"292 536 OFFCURVE",
"321 522 OFFCURVE",
"319 514 CURVE",
"316 501 OFFCURVE",
"298 492 OFFCURVE",
"293 482 CURVE",
"275 447 OFFCURVE",
"247 352 OFFCURVE",
"212 298 CURVE",
"177 245 OFFCURVE",
"117 189 OFFCURVE",
"86 168 CURVE",
"71 157 OFFCURVE",
"30 172 OFFCURVE",
"30 172 CURVE",
"30 172 OFFCURVE",
"70 179 OFFCURVE",
"84 192 CURVE",
"113 218 OFFCURVE",
"168 262 OFFCURVE",
"202 327 CURVE",
"243 405 OFFCURVE",
"247 480 OFFCURVE",
"247 480 CURVE",
"247 480 OFFCURVE",
"213 457 OFFCURVE",
"198 444 CURVE",
"182 430 OFFCURVE",
"169 398 OFFCURVE",
"153 397 CURVE",
"137 396 OFFCURVE",
"114 419 OFFCURVE",
"106 435 CURVE",
"98 451 OFFCURVE",
"94 488 OFFCURVE",
"103 492 CURVE"
);
},
{
closed = 1;
nodes = (
"568 577 OFFCURVE",
"602 542 OFFCURVE",
"613 519 CURVE",
"625 496 OFFCURVE",
"638 452 OFFCURVE",
"628 439 CURVE",
"609 414 OFFCURVE",
"568 453 OFFCURVE",
"547 447 CURVE",
"522 440 OFFCURVE",
"491 405 OFFCURVE",
"492 352 CURVE",
"498 152 OFFCURVE",
"745 151 OFFCURVE",
"745 151 CURVE",
"745 151 OFFCURVE",
"487 93 OFFCURVE",
"442 329 CURVE",
"417 462 OFFCURVE",
"522 504 OFFCURVE",
"538 544 CURVE",
"542 554 OFFCURVE",
"547 571 OFFCURVE",
"554 573 CURVE"
);
},
{
closed = 1;
nodes = (
"295 797 OFFCURVE",
"353 785 OFFCURVE",
"381 772 CURVE",
"409 760 OFFCURVE",
"451 723 OFFCURVE",
"452 704 CURVE",
"453 676 OFFCURVE",
"405 681 OFFCURVE",
"402 664 CURVE",
"394 621 OFFCURVE",
"389 520 OFFCURVE",
"387 449 CURVE",
"385 348 OFFCURVE",
"385 146 OFFCURVE",
"386 70 CURVE",
"387 44 OFFCURVE",
"415 2 OFFCURVE",
"416 -18 CURVE",
"416 -45 OFFCURVE",
"407 -52 OFFCURVE",
"392 -51 CURVE",
"377 -51 OFFCURVE",
"331 -10 OFFCURVE",
"331 10 CURVE",
"331 26 OFFCURVE",
"350 66 OFFCURVE",
"350 83 CURVE",
"352 150 OFFCURVE",
"358 326 OFFCURVE",
"358 424 CURVE",
"357 504 OFFCURVE",
"349 619 OFFCURVE",
"348 669 CURVE",
"347 727 OFFCURVE",
"274 774 OFFCURVE",
"282 783 CURVE"
);
}
);
width = 775;
}
);
unicode = 308A;
},
{
glyphname = "ru-hira";
lastChange = "2019-11-11 14:27:15 +0000";
layers = (
{
layerId = "1305C52C-0BD1-483E-A343-C05F3AFF2931";
paths = (
{
closed = 1;
nodes = (
"136 379 OFFCURVE",
"205 380 OFFCURVE",
"234 372 CURVE",
"271 362 OFFCURVE",
"306 351 OFFCURVE",
"307 321 CURVE",
"308 304 OFFCURVE",
"274 278 OFFCURVE",
"256 279 CURVE",
"248 280 OFFCURVE",
"246 295 OFFCURVE",
"241 302 CURVE",
"234 311 OFFCURVE",
"222 324 OFFCURVE",
"210 333 CURVE",
"192 346 OFFCURVE",
"136 379 OFFCURVE",
"136 379 CURVE"
);
},
{
closed = 1;
nodes = (
"114 498 OFFCURVE",
"133 469 OFFCURVE",
"152 471 CURVE",
"171 472 OFFCURVE",
"199 487 OFFCURVE",
"219 498 CURVE",
"238 508 OFFCURVE",
"245 537 OFFCURVE",
"276 539 CURVE",
"292 541 OFFCURVE",
"318 531 OFFCURVE",
"318 517 CURVE",
"318 506 OFFCURVE",
"299 504 OFFCURVE",
"294 490 CURVE",
"280 454 OFFCURVE",
"246 365 OFFCURVE",
"210 311 CURVE",
"174 256 OFFCURVE",
"122 186 OFFCURVE",
"78 176 CURVE",
"62 172 OFFCURVE",
"30 178 OFFCURVE",
"30 178 CURVE",
"30 178 OFFCURVE",
"62 186 OFFCURVE",
"76 194 CURVE",
"117 216 OFFCURVE",
"153 256 OFFCURVE",
"193 327 CURVE",
"242 414 OFFCURVE",
"242 477 OFFCURVE",
"242 477 CURVE",
"242 477 OFFCURVE",
"215 472 OFFCURVE",
"194 451 CURVE",
"180 437 OFFCURVE",
"169 407 OFFCURVE",
"154 405 CURVE",
"139 403 OFFCURVE",
"119 418 OFFCURVE",
"110 432 CURVE",
"102 446 OFFCURVE",
"94 482 OFFCURVE",
"102 488 CURVE"
);
},
{
closed = 1;
nodes = (
"298 267 OFFCURVE",
"298 217 OFFCURVE",
"314 220 CURVE",
"354 226 OFFCURVE",
"436 251 OFFCURVE",
"498 270 CURVE",
"569 291 OFFCURVE",
"730 345 OFFCURVE",
"730 345 CURVE",
"730 345 OFFCURVE",
"565 275 OFFCURVE",
"499 246 CURVE",
"445 223 OFFCURVE",
"373 193 OFFCURVE",
"344 177 CURVE",
"330 170 OFFCURVE",
"326 140 OFFCURVE",
"311 135 CURVE",
"296 131 OFFCURVE",
"258 156 OFFCURVE",
"252 177 CURVE",
"242 210 OFFCURVE",
"257 251 OFFCURVE",
"267 255 CURVE"
);
},
{
closed = 1;
nodes = (
"323 797 OFFCURVE",
"345 783 OFFCURVE",
"356 780 CURVE",
"365 776 OFFCURVE",
"374 775 OFFCURVE",
"382 770 CURVE",
"404 758 OFFCURVE",
"462 710 OFFCURVE",
"462 686 CURVE",
"461 668 OFFCURVE",
"441 657 OFFCURVE",
"428 655 CURVE",
"418 653 OFFCURVE",
"394 656 OFFCURVE",
"392 644 CURVE",
"384 609 OFFCURVE",
"385 514 OFFCURVE",
"384 448 CURVE",
"382 358 OFFCURVE",
"384 180 OFFCURVE",
"384 103 CURVE",
"384 68 OFFCURVE",
"410 25 OFFCURVE",
"410 1 CURVE",
"409 -17 OFFCURVE",
"394 -45 OFFCURVE",
"381 -45 CURVE",
"368 -44 OFFCURVE",
"342 6 OFFCURVE",
"336 23 CURVE",
"332 35 OFFCURVE",
"344 46 OFFCURVE",
"344 59 CURVE",
"346 121 OFFCURVE",
"349 306 OFFCURVE",
"349 398 CURVE",
"350 470 OFFCURVE",
"349 559 OFFCURVE",
"347 613 CURVE",
"347 648 OFFCURVE",
"342 691 OFFCURVE",
"337 716 CURVE",
"333 733 OFFCURVE",
"319 749 OFFCURVE",
"315 762 CURVE",
"313 773 OFFCURVE",
"310 791 OFFCURVE",
"316 794 CURVE"
);
}
);
width = 760;
}
);
unicode = 308B;
},
{
glyphname = "re-hira";
lastChange = "2019-11-11 14:28:18 +0000";
layers = (
{
layerId = "1305C52C-0BD1-483E-A343-C05F3AFF2931";
paths = (
{
closed = 1;
nodes = (
"157 379 OFFCURVE",
"237 327 OFFCURVE",
"268 293 CURVE",
"300 257 OFFCURVE",
"362 187 OFFCURVE",
"323 157 CURVE",
"301 140 OFFCURVE",
"277 161 OFFCURVE",
"257 161 CURVE",
"235 162 OFFCURVE",
"189 165 OFFCURVE",
"189 165 CURVE",
"189 165 OFFCURVE",
"245 191 OFFCURVE",
"247 217 CURVE",
"251 264 OFFCURVE",
"157 379 OFFCURVE",
"157 379 CURVE"
);
},
{
closed = 1;
nodes = (
"132 746 OFFCURVE",
"160 701 OFFCURVE",
"186 705 CURVE",
"223 710 OFFCURVE",
"288 744 OFFCURVE",
"317 760 CURVE",
"338 771 OFFCURVE",
"345 793 OFFCURVE",
"381 795 CURVE",
"401 796 OFFCURVE",
"443 781 OFFCURVE",
"441 757 CURVE",
"440 739 OFFCURVE",
"309 660 OFFCURVE",
"308 600 CURVE",
"307 547 OFFCURVE",
"457 537 OFFCURVE",
"458 437 CURVE",
"458 358 OFFCURVE",
"296 308 OFFCURVE",
"207 237 CURVE",
"137 181 OFFCURVE",
"55 79 OFFCURVE",
"54 14 CURVE",
"53 -30 OFFCURVE",
"84 -114 OFFCURVE",
"84 -114 CURVE",
"84 -114 OFFCURVE",
"30 -53 OFFCURVE",
"30 23 CURVE",
"29 86 OFFCURVE",
"110 203 OFFCURVE",
"171 252 CURVE",
"259 324 OFFCURVE",
"369 382 OFFCURVE",
"367 443 CURVE",
"365 507 OFFCURVE",
"277 544 OFFCURVE",
"273 591 CURVE",
"270 624 OFFCURVE",
"344 733 OFFCURVE",
"344 733 CURVE",
"344 733 OFFCURVE",
"305 723 OFFCURVE",
"261 686 CURVE",
"237 666 OFFCURVE",
"226 616 OFFCURVE",
"192 613 CURVE",
"165 612 OFFCURVE",
"131 644 OFFCURVE",
"119 665 CURVE",
"108 686 OFFCURVE",
"106 735 OFFCURVE",
"119 740 CURVE"
);
}
);
width = 488;
}
);
unicode = 308C;
},
{
glyphname = "ro-hira";
lastChange = "2019-11-11 14:29:01 +0000";
layers = (
{
layerId = "1305C52C-0BD1-483E-A343-C05F3AFF2931";
paths = (
{
closed = 1;
nodes = (
"272 654 OFFCURVE",
"298 615 OFFCURVE",
"321 618 CURVE",
"355 623 OFFCURVE",
"396 643 OFFCURVE",
"421 662 CURVE",
"446 681 OFFCURVE",
"448 701 OFFCURVE",
"489 703 CURVE",
"509 704 OFFCURVE",
"536 691 OFFCURVE",
"535 679 CURVE",
"535 668 OFFCURVE",
"513 659 OFFCURVE",
"507 647 CURVE",
"486 606 OFFCURVE",
"463 527 OFFCURVE",
"407 429 CURVE",
"330 293 OFFCURVE",
"266 252 OFFCURVE",
"266 252 CURVE",
"266 252 OFFCURVE",
"314 228 OFFCURVE",
"338 217 CURVE",
"395 189 OFFCURVE",
"502 87 OFFCURVE",
"610 88 CURVE",
"676 89 OFFCURVE",
"803 124 OFFCURVE",
"803 124 CURVE",
"803 124 OFFCURVE",
"651 20 OFFCURVE",
"568 17 CURVE",
"395 9 OFFCURVE",
"324 223 OFFCURVE",
"204 218 CURVE",
"137 215 OFFCURVE",
"108 134 OFFCURVE",
"84 133 CURVE",
"69 133 OFFCURVE",
"56 151 OFFCURVE",
"53 164 CURVE",
"51 176 OFFCURVE",
"29 185 OFFCURVE",
"30 197 CURVE",
"32 228 OFFCURVE",
"75 214 OFFCURVE",
"98 221 CURVE",
"129 232 OFFCURVE",
"172 245 OFFCURVE",
"214 261 CURVE",
"263 280 OFFCURVE",
"309 317 OFFCURVE",
"382 441 CURVE",
"436 534 OFFCURVE",
"437 623 OFFCURVE",
"437 623 CURVE",
"437 623 OFFCURVE",
"392 604 OFFCURVE",
"374 589 CURVE",
"354 572 OFFCURVE",
"351 528 OFFCURVE",
"319 529 CURVE",
"301 530 OFFCURVE",
"255 573 OFFCURVE",
"252 595 CURVE",
"250 618 OFFCURVE",
"249 644 OFFCURVE",
"261 649 CURVE"
);
},
{
closed = 1;
nodes = (
"303 506 OFFCURVE",
"396 508 OFFCURVE",
"435 501 CURVE",
"498 490 OFFCURVE",
"529 449 OFFCURVE",
"527 426 CURVE",
"523 393 OFFCURVE",
"468 369 OFFCURVE",
"452 373 CURVE",
"441 376 OFFCURVE",
"443 395 OFFCURVE",
"437 407 CURVE",
"430 419 OFFCURVE",
"412 432 OFFCURVE",
"398 442 CURVE",
"376 458 OFFCURVE",
"303 506 OFFCURVE",
"303 506 CURVE"
);
}
);
width = 833;
}
);
unicode = 308D;
},
{
glyphname = "wa-hira";
lastChange = "2019-11-24 13:12:42 +0000";
layers = (
{
layerId = "1305C52C-0BD1-483E-A343-C05F3AFF2931";
paths = (
{
closed = 1;
nodes = (
"167 410 OFFCURVE",
"178 396 OFFCURVE",
"181 385 CURVE",
"184 373 OFFCURVE",
"183 353 OFFCURVE",
"169 341 CURVE",
"159 330 OFFCURVE",
"104 320 OFFCURVE",
"89 337 CURVE",
"73 353 OFFCURVE",
"66 406 OFFCURVE",
"84 432 CURVE",
"105 461 OFFCURVE",
"159 516 OFFCURVE",
"213 515 CURVE",
"239 515 OFFCURVE",
"264 485 OFFCURVE",
"266 460 CURVE",
"267 429 OFFCURVE",
"219 366 OFFCURVE",
"194 335 CURVE",
"173 310 OFFCURVE",
"119 259 OFFCURVE",
"119 259 CURVE",
"119 259 OFFCURVE",
"185 277 OFFCURVE",
"209 286 CURVE",
"228 294 OFFCURVE",
"240 312 OFFCURVE",
"264 311 CURVE",
"292 310 OFFCURVE",
"308 299 OFFCURVE",
"309 291 CURVE",
"309 275 OFFCURVE",
"281 269 OFFCURVE",
"265 268 CURVE",
"249 267 OFFCURVE",
"230 270 OFFCURVE",
"213 266 CURVE",
"191 261 OFFCURVE",
"153 249 OFFCURVE",
"130 236 CURVE",
"109 223 OFFCURVE",
"90 187 OFFCURVE",
"74 186 CURVE",
"57 185 OFFCURVE",
"27 215 OFFCURVE",
"30 231 CURVE",
"32 248 OFFCURVE",
"82 257 OFFCURVE",
"111 283 CURVE",
"129 299 OFFCURVE",
"163 331 OFFCURVE",
"189 363 CURVE",
"210 389 OFFCURVE",
"239 435 OFFCURVE",
"239 454 CURVE",
"239 476 OFFCURVE",
"223 485 OFFCURVE",
"204 485 CURVE",
"190 485 OFFCURVE",
"165 471 OFFCURVE",
"151 460 CURVE",
"140 450 OFFCURVE",
"124 432 OFFCURVE",
"123 421 CURVE",
"122 408 OFFCURVE",
"126 393 OFFCURVE",
"134 393 CURVE",
"143 392 OFFCURVE",
"151 410 OFFCURVE",
"159 410 CURVE"
);
},
{
closed = 1;
nodes = (
"531 518 OFFCURVE",
"578 499 OFFCURVE",
"602 475 CURVE",
"617 460 OFFCURVE",
"639 438 OFFCURVE",
"640 421 CURVE",
"641 380 OFFCURVE",
"582 388 OFFCURVE",
"561 377 CURVE",
"530 360 OFFCURVE",
"485 313 OFFCURVE",
"451 290 CURVE",
"403 258 OFFCURVE",
"275 200 OFFCURVE",
"275 200 CURVE",
"275 200 OFFCURVE",
"371 275 OFFCURVE",
"419 316 CURVE",
"465 356 OFFCURVE",
"511 401 OFFCURVE",
"531 452 CURVE",
"537 467 OFFCURVE",
"510 499 OFFCURVE",
"519 507 CURVE"
);
},
{
closed = 1;
nodes = (
"268 797 OFFCURVE",
"321 770 OFFCURVE",
"358 747 CURVE",
"387 728 OFFCURVE",
"419 711 OFFCURVE",
"417 683 CURVE",
"415 651 OFFCURVE",
"383 662 OFFCURVE",
"375 647 CURVE",
"365 626 OFFCURVE",
"350 584 OFFCURVE",
"349 538 CURVE",
"347 440 OFFCURVE",
"347 114 OFFCURVE",
"348 22 CURVE",
"349 8 OFFCURVE",
"363 -9 OFFCURVE",
"362 -32 CURVE",
"362 -45 OFFCURVE",
"365 -68 OFFCURVE",
"354 -70 CURVE",
"344 -71 OFFCURVE",
"306 -45 OFFCURVE",
"304 -28 CURVE",
"302 -15 OFFCURVE",
"301 7 OFFCURVE",
"302 19 CURVE",
"303 28 OFFCURVE",
"314 43 OFFCURVE",
"314 52 CURVE",
"317 158 OFFCURVE",
"323 544 OFFCURVE",
"319 654 CURVE",
"318 674 OFFCURVE",
"300 692 OFFCURVE",
"290 710 CURVE",
"279 732 OFFCURVE",
"245 780 OFFCURVE",
"256 788 CURVE"
);
}
);
width = 670;
}
);
unicode = 308F;
},
{
glyphname = "wo-hira";
lastChange = "2019-11-24 13:14:01 +0000";
layers = (
{
layerId = "1305C52C-0BD1-483E-A343-C05F3AFF2931";
paths = (
{
closed = 1;
nodes = (
"376 798 OFFCURVE",
"406 788 OFFCURVE",
"425 780 CURVE",
"443 772 OFFCURVE",
"468 755 OFFCURVE",
"466 737 CURVE",
"464 721 OFFCURVE",
"442 711 OFFCURVE",
"422 695 CURVE",
"401 678 OFFCURVE",
"383 662 OFFCURVE",
"368 647 CURVE",
"340 618 OFFCURVE",
"297 568 OFFCURVE",
"297 568 CURVE",
"297 568 OFFCURVE",
"354 570 OFFCURVE",
"380 549 CURVE",
"454 486 OFFCURVE",
"452 398 OFFCURVE",
"441 343 CURVE",
"412 204 OFFCURVE",
"451 20 OFFCURVE",
"599 22 CURVE",
"702 23 OFFCURVE",
"758 77 OFFCURVE",
"758 77 CURVE",
"758 77 OFFCURVE",
"667 -50 OFFCURVE",
"571 -49 CURVE",
"459 -47 OFFCURVE",
"370 68 OFFCURVE",
"367 199 CURVE",
"365 266 OFFCURVE",
"399 351 OFFCURVE",
"396 407 CURVE",
"393 485 OFFCURVE",
"357 535 OFFCURVE",
"314 533 CURVE",
"255 531 OFFCURVE",
"249 470 OFFCURVE",
"228 458 CURVE",
"217 451 OFFCURVE",
"196 467 OFFCURVE",
"197 480 CURVE",
"200 541 OFFCURVE",
"240 540 OFFCURVE",
"262 565 CURVE",
"294 603 OFFCURVE",
"379 694 OFFCURVE",
"381 729 CURVE",
"381 744 OFFCURVE",
"361 744 OFFCURVE",
"357 751 CURVE",
"351 759 OFFCURVE",
"350 783 OFFCURVE",
"361 789 CURVE"
);
},
{
closed = 1;
nodes = (
"209 734 OFFCURVE",
"209 687 OFFCURVE",
"237 689 CURVE",
"258 690 OFFCURVE",
"322 741 OFFCURVE",
"322 741 CURVE",
"322 741 OFFCURVE",
"301 705 OFFCURVE",
"291 688 CURVE",
"277 666 OFFCURVE",
"276 623 OFFCURVE",
"237 615 CURVE",
"217 610 OFFCURVE",
"174 641 OFFCURVE",
"171 663 CURVE",
"169 687 OFFCURVE",
"188 736 OFFCURVE",
"199 735 CURVE"
);
},
{
closed = 1;
nodes = (
"177 319 OFFCURVE",
"194 298 OFFCURVE",
"197 286 CURVE",
"200 274 OFFCURVE",
"196 254 OFFCURVE",
"187 246 CURVE",
"176 236 OFFCURVE",
"154 231 OFFCURVE",
"129 231 CURVE",
"109 231 OFFCURVE",
"75 246 OFFCURVE",
"75 290 CURVE",
"76 341 OFFCURVE",
"117 389 OFFCURVE",
"150 410 CURVE",
"182 431 OFFCURVE",
"256 434 OFFCURVE",
"276 419 CURVE",
"295 405 OFFCURVE",
"290 355 OFFCURVE",
"277 327 CURVE",
"264 298 OFFCURVE",
"235 267 OFFCURVE",
"212 241 CURVE",
"187 213 OFFCURVE",
"127 152 OFFCURVE",
"127 152 CURVE",
"127 152 OFFCURVE",
"173 167 OFFCURVE",
"196 176 CURVE",
"229 190 OFFCURVE",
"257 212 OFFCURVE",
"280 213 CURVE",
"304 215 OFFCURVE",
"340 201 OFFCURVE",
"340 185 CURVE",
"340 163 OFFCURVE",
"304 161 OFFCURVE",
"283 160 CURVE",
"216 159 OFFCURVE",
"166 143 OFFCURVE",
"144 131 CURVE",
"92 103 OFFCURVE",
"102 75 OFFCURVE",
"81 74 CURVE",
"63 73 OFFCURVE",
"30 102 OFFCURVE",
"30 116 CURVE",
"28 147 OFFCURVE",
"73 143 OFFCURVE",
"92 159 CURVE",
"120 183 OFFCURVE",
"172 227 OFFCURVE",
"200 261 CURVE",
"224 290 OFFCURVE",
"255 341 OFFCURVE",
"258 370 CURVE",
"259 386 OFFCURVE",
"246 404 OFFCURVE",
"221 404 CURVE",
"181 402 OFFCURVE",
"130 351 OFFCURVE",
"127 322 CURVE",
"126 311 OFFCURVE",
"129 298 OFFCURVE",
"143 298 CURVE",
"150 298 OFFCURVE",
"159 318 OFFCURVE",
"168 318 CURVE"
);
}
);
width = 788;
}
);
unicode = 3092;
},
{
glyphname = "n-hira";
lastChange = "2019-11-24 13:14:48 +0000";
layers = (
{
layerId = "1305C52C-0BD1-483E-A343-C05F3AFF2931";
paths = (
{
closed = 1;
nodes = (
"87 478 OFFCURVE",
"80 404 OFFCURVE",
"111 406 CURVE",
"156 409 OFFCURVE",
"269 496 OFFCURVE",
"356 496 CURVE",
"412 496 OFFCURVE",
"494 474 OFFCURVE",
"493 428 CURVE",
"491 335 OFFCURVE",
"320 276 OFFCURVE",
"319 168 CURVE",
"318 49 OFFCURVE",
"421 1 OFFCURVE",
"421 1 CURVE",
"421 1 OFFCURVE",
"272 37 OFFCURVE",
"279 171 CURVE",
"285 288 OFFCURVE",
"416 355 OFFCURVE",
"416 410 CURVE",
"415 437 OFFCURVE",
"393 457 OFFCURVE",
"355 455 CURVE",
"227 450 OFFCURVE",
"148 332 OFFCURVE",
"101 331 CURVE",
"68 330 OFFCURVE",
"32 372 OFFCURVE",
"30 397 CURVE",
"28 422 OFFCURVE",
"60 475 OFFCURVE",
"74 476 CURVE"
);
}
);
width = 523;
}
);
unicode = 3093;
},
